<svg width="70" height="70" viewBox="0 0 70 70" fill="none" xmlns="http://www.w3.org/2000/svg">
<rect x="0.5" y="0.5" width="69" height="69" rx="4.5" fill="#FBDEA4" stroke="#C7B08D"/>
<path d="M35 65C52.6731 65 67 62.0898 67 58.5C67 54.9102 52.6731 52 35 52C17.3269 52 3 54.9102 3 58.5C3 62.0898 17.3269 65 35 65Z" fill="#EBEBEB"/>
<path d="M33 4H5V57H33V4Z" fill="#C7B08D"/>
<path d="M18.1222 6.04346H6.8916V22.1643H18.1222V6.04346Z" fill="white"/>
<path d="M31.1007 6.04346H19.8701V22.1643H31.1007V6.04346Z" fill="white"/>
<path d="M18.1222 23.6445H6.8916V39.7654H18.1222V23.6445Z" fill="white"/>
<path d="M31.1007 23.6445H19.8701V39.7654H31.1007V23.6445Z" fill="white"/>
<path d="M18 41H7V55H18V41Z" fill="white"/>
<path d="M31 41H20V54H31V41Z" fill="white"/>
<path d="M65 4H37V57H65V4Z" fill="#C7B08D"/>
<path d="M50.0411 6.04346H38.8105V22.1643H50.0411V6.04346Z" fill="white"/>
<path d="M63.0196 6.04346H51.7891V22.1643H63.0196V6.04346Z" fill="white"/>
<path d="M50.0411 23.6445H38.8105V39.7654H50.0411V23.6445Z" fill="white"/>
<path d="M63.0196 23.6445H51.7891V39.7654H63.0196V23.6445Z" fill="white"/>
<path d="M50.0411 41.2456H38.8105V57.3665H50.0411V41.2456Z" fill="white"/>
<path d="M63 41H52V55H63V41Z" fill="white"/>
<path opacity="0.5" d="M57.4039 20.7853C60.1187 20.7853 62.3194 18.5845 62.3194 15.8697C62.3194 13.1549 60.1187 10.9541 57.4039 10.9541C54.6891 10.9541 52.4883 13.1549 52.4883 15.8697C52.4883 18.5845 54.6891 20.7853 57.4039 20.7853Z" fill="#FDE2D1"/>
<path d="M60.9458 15.8694C60.9458 16.5688 60.7384 17.2526 60.3498 17.8341C59.9613 18.4157 59.4089 18.8689 58.7628 19.1366C58.1166 19.4043 57.4055 19.4743 56.7195 19.3378C56.0335 19.2014 55.4034 18.8646 54.9088 18.37C54.4143 17.8754 54.0775 17.2453 53.941 16.5593C53.8045 15.8733 53.8746 15.1623 54.1422 14.5161C54.4099 13.8699 54.8632 13.3176 55.4447 12.929C56.0263 12.5404 56.71 12.333 57.4094 12.333C58.3474 12.333 59.2468 12.7056 59.91 13.3688C60.5732 14.032 60.9458 14.9315 60.9458 15.8694V15.8694Z" fill="#FFF8E8"/>
<path d="M18.0846 17.2208L18.1225 17.1829V18.4737H11.3428C11.3428 18.4737 12.8205 14.4321 15.0964 14.4321C17.3723 14.4321 18.0846 17.2208 18.0846 17.2208Z" fill="#DEFBFF"/>
<path d="M26.2533 18.4739H19.8701V15.9757C20.1855 15.8218 20.5298 15.7357 20.8805 15.7231C22.1435 15.7231 23.2373 17.7237 23.2373 17.7237C23.2373 17.7237 25.0181 16.6325 26.2533 18.4739Z" fill="#DEFBFF"/>
<path opacity="0.5" d="M48.5786 28.3988H41.6094C41.6094 28.3988 43.1679 26.1431 44.388 26.1431C45.608 26.1431 45.9768 27.646 45.9768 27.646C45.9768 27.646 46.8432 26.9438 47.6465 27.0701C48.4498 27.1964 48.5786 28.3988 48.5786 28.3988Z" fill="#EBEBEB"/>
<path d="M18.1222 36.7924V38.5606H7.7959C7.7959 38.5606 9.65503 34.4103 11.643 34.1502C13.6309 33.89 14.5832 37.2344 14.5832 37.2344C14.5832 37.2344 15.8664 36.0522 16.8743 36.0522C17.3669 36.0421 17.8039 36.4135 18.1222 36.7924Z" fill="#DEFBFF"/>
<path d="M21.3706 38.5505H19.8701V37.3203C20.4309 37.338 21.0472 37.6057 21.3706 38.5505Z" fill="#EBEBEB"/>
<path d="M50.0407 44.0974V48.2123H45.0039C45.0039 48.2123 46.8605 44.0621 48.851 43.8019C49.2705 43.7502 49.6942 43.8555 50.0407 44.0974Z" fill="#EBEBEB"/>
<path d="M58.5764 48.2124H51.7891V46.8863C51.7891 46.8863 53.0723 45.7041 54.0801 45.7041C55.088 45.7041 55.866 47.2601 55.866 47.2601C55.866 47.2601 57.8843 46.1941 58.5764 48.2124Z" fill="#EBEBEB"/>
<path opacity="0.5" d="M61.4789 38.2321H52.3096C52.3096 38.2321 53.8833 35.2261 55.5934 35.1832C57.3035 35.1403 58.2002 37.4566 58.2002 37.4566C58.2002 37.4566 60.8676 35.3247 61.4789 38.2321Z" fill="#DEFBFF"/>
<path opacity="0.5" d="M30.0985 27.2692H20.9316C20.9316 27.2692 22.5053 24.2633 24.2154 24.2203C25.9255 24.1774 26.8223 26.4937 26.8223 26.4937C26.8223 26.4937 29.4796 24.3618 30.0985 27.2692Z" fill="#EBEBEB"/>
<path d="M43.4766 22.1079H19.2656V54.9424H43.4766V22.1079Z" fill="#FFC727"/>
<path opacity="0.6" d="M43.4766 22.1079H19.2656V54.9424H43.4766V22.1079Z" fill="white"/>
<path d="M43.4691 54.9424H50.04L50.04 22.1079H43.4691L43.4691 54.9424Z" fill="#FFC727"/>
<path opacity="0.3" d="M43.4691 54.9424H50.04L50.04 22.1079H43.4691L43.4691 54.9424Z" fill="white"/>
<path d="M15.8711 17H40.0821L43.4692 22.1077H19.2582L15.8711 17Z" fill="#FFC727"/>
<path opacity="0.3" d="M15.8711 17H40.0821L43.4692 22.1077H19.2582L15.8711 17Z" fill="white"/>
<path d="M53.4278 17H46.8568L43.4697 22.1077H50.0407L53.4278 17Z" fill="#FFC727"/>
<path d="M19.2656 33.4004C19.2656 33.4004 24.0889 45.3433 43.4698 45.3433V54.9423H19.2656V33.4004Z" fill="#FFC727"/>
<path d="M43.4694 44.1712V42.1932C43.4694 42.1932 30.6391 43.3109 21.792 33.3867C21.7785 33.4003 27.5433 44.1712 43.4694 44.1712Z" fill="#FFC727"/>
<path d="M41.1249 32.093C41.1249 34.7282 38.1714 36.8349 34.5336 36.8349C30.8959 36.8349 27.9355 34.7011 27.9355 32.093C27.9355 29.4849 30.8891 27.3511 34.5336 27.3511C38.1781 27.3511 41.1249 29.4511 41.1249 32.093Z" fill="#FFC727"/>
<path d="M47.4939 62.487C54.3478 62.487 59.9039 59.279 59.9039 55.3219C59.9039 51.3647 54.3478 48.1567 47.4939 48.1567C40.6401 48.1567 35.084 51.3647 35.084 55.3219C35.084 59.279 40.6401 62.487 47.4939 62.487Z" fill="#263238"/>
<path d="M55.9275 49.3008C51.2703 46.612 43.719 46.612 39.0625 49.3008C36.7335 50.6452 35.5693 52.4079 35.5693 54.1698V54.669C35.5693 56.4309 36.7371 58.1928 39.0625 59.5372C43.7198 62.2268 51.2703 62.2268 55.9275 59.5372C58.2566 58.1928 59.4207 56.4309 59.42 54.669V54.1756C59.4229 52.413 58.2587 50.6467 55.9275 49.3008Z" fill="#EB9775"/>
<path opacity="0.3" d="M55.9275 49.3008C51.2703 46.612 43.719 46.612 39.0625 49.3008C36.7335 50.6452 35.5693 52.4079 35.5693 54.1698V54.669C35.5693 56.4309 36.7371 58.1928 39.0625 59.5372C43.7198 62.2268 51.2703 62.2268 55.9275 59.5372C58.2566 58.1928 59.4207 56.4309 59.42 54.669V54.1756C59.4229 52.413 58.2587 50.6467 55.9275 49.3008Z" fill="white"/>
<path opacity="0.1" d="M43.5332 60.666V47.6743C41.8997 48.0057 40.3663 48.5502 39.0605 49.3019C36.7315 50.6463 35.5674 52.409 35.5674 54.1709V54.6701C35.5674 56.432 36.7352 58.1939 39.0605 59.5391C40.6319 60.4412 42.5296 61.0433 44.5302 61.3389C43.5879 61.171 43.5332 60.666 43.5332 60.666Z" fill="black"/>
<path d="M55.9261 49.3008C51.2688 46.612 43.7176 46.612 39.0611 49.3008C34.4045 51.9896 34.4038 56.3491 39.0611 59.038C43.7183 61.7268 51.2688 61.7268 55.9261 59.038C60.5834 56.3491 60.5834 51.9896 55.9261 49.3008Z" fill="#EB9775"/>
<path opacity="0.8" d="M55.9261 49.3008C51.2688 46.612 43.7176 46.612 39.0611 49.3008C34.4045 51.9896 34.4038 56.3491 39.0611 59.038C43.7183 61.7268 51.2688 61.7268 55.9261 59.038C60.5834 56.3491 60.5834 51.9896 55.9261 49.3008Z" fill="white"/>
<path opacity="0.15" d="M53.6691 50.8535C50.2577 48.8828 44.7275 48.8828 41.3161 50.8535C37.9047 52.8241 37.9054 56.0158 41.3161 57.985C44.7268 59.9542 50.2577 59.9557 53.6691 57.985C57.0805 56.0144 57.0798 52.8227 53.6691 50.8535Z" fill="#EB9775"/>
<path d="M52.9041 51.6339C49.9153 49.9085 45.0697 49.9085 42.0809 51.6339C39.0921 53.3593 39.0884 56.1591 42.0809 57.883C45.0733 59.607 49.9153 59.6084 52.9041 57.883C55.8929 56.1576 55.8929 53.3615 52.9041 51.6339Z" fill="#EB9775"/>
<path opacity="0.8" d="M52.9041 51.6339C49.9153 49.9085 45.0697 49.9085 42.0809 51.6339C39.0921 53.3593 39.0884 56.1591 42.0809 57.883C45.0733 59.607 49.9153 59.6084 52.9041 57.883C55.8929 56.1576 55.8929 53.3615 52.9041 51.6339Z" fill="white"/>
<path d="M38.9902 58.6405C39.9831 59.1581 41.0339 59.556 42.1206 59.8258C43.2025 60.0987 44.3061 60.2767 45.4189 60.3579C46.5303 60.4399 47.6464 60.4364 48.7573 60.3476C49.8671 60.2615 50.9678 60.0823 52.0476 59.8119C53.1263 59.5487 54.1715 59.163 55.1627 58.6624C56.1451 58.158 57.0669 57.5114 57.777 56.6706C58.1342 56.2537 58.4178 55.7791 58.6157 55.267C58.8138 54.7534 58.8972 54.2026 58.8602 53.6533C58.8213 53.1003 58.6698 52.5611 58.4149 52.0687C58.2881 51.8207 58.1417 51.5833 57.977 51.3586C57.8128 51.132 57.6339 50.9164 57.4413 50.7134C57.646 50.906 57.8378 51.1118 58.0157 51.3294C58.1924 51.5496 58.351 51.7837 58.4901 52.0293C58.7738 52.5247 58.9529 53.0729 59.0164 53.6402C59.0725 54.2134 59.003 54.792 58.8127 55.3356C58.6185 55.8767 58.3331 56.3805 57.969 56.8253C57.6081 57.2688 57.195 57.6671 56.7384 58.0113C56.286 58.3562 55.8056 58.6626 55.3021 58.9273C54.2925 59.4444 53.2263 59.8424 52.1249 60.1134C49.9265 60.6519 47.6528 60.8152 45.3999 60.5965C44.2767 60.4928 43.1658 60.2831 42.082 59.9703C41.542 59.8112 41.0115 59.6216 40.493 59.4025C39.9741 59.1857 39.4718 58.931 38.9902 58.6405V58.6405Z" fill="white"/>
<path opacity="0.2" d="M51.7871 51.7711C49.4157 50.4018 45.57 50.4018 43.1987 51.7711C40.8274 53.1403 40.8266 55.3606 43.1987 56.7298C45.5708 58.099 49.4157 58.099 51.7871 56.7298C54.1584 55.3606 54.1591 53.1425 51.7871 51.7711Z" fill="#EB9775"/>
<path opacity="0.2" d="M51.7734 55.8745L43.9572 51.5435L35.5674 54.1863C35.5747 55.9424 36.7352 57.6977 39.0605 59.0377C40.3663 59.7924 41.8997 60.3347 43.5332 60.6653L51.7734 55.8745Z" fill="#EB9775"/>
<path d="M35.168 49.1025C35.168 50.9352 36.927 51.876 38.2816 52.4475C39.2983 52.8745 40.072 53.0183 40.6004 53.4533C40.5522 53.2 39.3844 46.9969 39.3844 46.9969C38.8946 46.6959 38.326 46.5485 37.7517 46.5735C37.4029 46.5836 37.0619 46.6788 36.7584 46.8509L36.1292 47.2158C35.6125 47.5085 35.168 48.0829 35.168 49.1025ZM36.9656 48.7376C36.9698 48.4765 37.065 48.225 37.235 48.0267C37.3045 48.0137 37.3751 48.0071 37.4459 48.007C37.6901 48.0009 37.9331 48.0435 38.1607 48.1323C38.3883 48.2212 38.5959 48.3545 38.7713 48.5245C39.0814 49.3829 39.3254 50.2637 39.5012 51.1593C39.4435 51.1367 39.3859 51.1133 39.3253 51.0863C37.6298 50.3783 36.9656 49.6536 36.9656 48.7405V48.7376Z" fill="#FAFAFA"/>
<path d="M35.168 49.1029C35.168 50.9356 36.927 51.8764 38.2816 52.4479C39.2983 52.8748 40.072 53.0186 40.6004 53.4536C40.226 51.483 39.2976 48.6226 38.7582 47.3592C38.2687 47.0567 37.6997 46.908 37.1247 46.9322C36.3781 46.9498 35.168 47.4205 35.168 49.1029ZM36.3358 49.1029C36.3365 48.9583 36.3657 48.8154 36.4218 48.6821C36.4778 48.5489 36.5595 48.428 36.6623 48.3263C36.765 48.2246 36.8868 48.1442 37.0206 48.0896C37.1544 48.035 37.2977 48.0073 37.4422 48.0081C37.6865 48.0019 37.9295 48.0445 38.157 48.1334C38.3846 48.2222 38.5922 48.3556 38.7677 48.5255C39.0976 49.3846 39.5559 51.1202 39.5808 51.7851C39.2946 51.6837 39.0158 51.5852 38.6962 51.4509C37.0036 50.74 36.3394 50.0152 36.3394 49.1029H36.3358Z" fill="#E0E0E0"/>
<path opacity="0.1" d="M38.5984 51.4089C38.8147 51.9163 39.0782 52.4023 39.3852 52.8606C39.8778 53.0365 40.2836 53.1927 40.6004 53.4533C40.226 51.4826 39.2976 48.6223 38.7582 47.3589C38.4908 47.1943 38.1985 47.0742 37.8926 47.0034V47.9384C37.8926 47.9778 37.8926 48.0165 37.8926 48.0559C38.2221 48.1302 38.525 48.2932 38.7684 48.5274C39.0983 49.3864 39.5567 51.1221 39.5815 51.787C39.2954 51.6855 39.0166 51.587 38.6969 51.4527L38.5984 51.4089Z" fill="black"/>
<path d="M56.4822 46.1225C56.4822 44.8132 55.6173 43.5038 53.8868 42.5046C50.4257 40.5069 44.8152 40.5069 41.3542 42.5046C39.6244 43.5038 38.7588 44.8132 38.7588 46.1225V48.045C38.7588 50.3954 39.6925 52.6495 41.3544 54.3114C42.1773 55.1344 43.1543 55.7871 44.2295 56.2325C45.3047 56.6779 46.4571 56.9071 47.6208 56.9071C49.9711 56.9069 52.225 55.9731 53.8868 54.3112C55.5486 52.6492 56.4822 50.3953 56.4822 48.045V46.1225Z" fill="#FAFAFA"/>
<path d="M47.6211 41.0837C49.9749 41.0837 52.1864 41.6121 53.8483 42.5719C55.4971 43.5207 56.4028 44.7849 56.4028 46.1227V48.0452C56.4028 49.1988 56.1756 50.3411 55.7342 51.407C55.2927 52.4728 54.6456 53.4412 53.8299 54.2569C53.0141 55.0726 52.0457 55.7197 50.9799 56.1612C49.9141 56.6027 48.7718 56.8299 47.6182 56.8299C46.4645 56.8299 45.3222 56.6027 44.2564 56.1612C43.1906 55.7197 42.2222 55.0726 41.4064 54.2569C40.5907 53.4412 39.9436 52.4728 39.5022 51.407C39.0607 50.3411 38.8335 49.1988 38.8335 48.0452V46.1227C38.8335 44.7849 39.7414 43.5237 41.388 42.5719C43.0506 41.6121 45.2621 41.0837 47.616 41.0837H47.6211ZM47.616 41.0063C45.3475 41.0063 43.0798 41.5056 41.3493 42.5048C39.6188 43.504 38.7539 44.8133 38.7539 46.1227V48.0452C38.7539 49.2094 38.9833 50.3622 39.429 51.4377C39.8747 52.5133 40.5279 53.4904 41.3513 54.3134C42.1748 55.1364 43.1524 55.7891 44.2281 56.2341C45.3039 56.6792 46.4569 56.9079 47.6211 56.9073V56.9073C49.9713 56.9071 52.2252 55.9733 53.887 54.3114C55.5488 52.6494 56.4824 50.3954 56.4824 48.0452V46.1227C56.4824 44.8133 55.6175 43.504 53.887 42.5048C52.1565 41.5056 49.8888 41.0063 47.6211 41.0063H47.616Z" fill="#E0E0E0"/>
<path d="M44.8546 55.5467C41.1542 53.9651 41.2995 51.0215 42.5307 51.1624C43.762 51.3032 46.0341 51.739 49.0397 51.1726L49.0667 43.0054L40.2047 43.3199C39.2412 44.1681 38.7588 45.1446 38.7588 46.1226V48.0451C38.7588 50.3955 39.6925 52.6496 41.3544 54.3115C43.0164 55.9735 45.2705 56.9072 47.6208 56.9072C49.7011 56.9099 51.7156 56.1779 53.3087 54.8402C51.8935 55.8729 48.5558 57.1283 44.8546 55.5467Z" fill="#E0E0E0"/>
<path d="M53.8869 42.5046C50.4258 40.5069 44.8153 40.5069 41.3543 42.5046C37.8933 44.5022 37.894 47.7421 41.3543 49.7405C44.8146 51.7389 50.4266 51.7381 53.8869 49.7405C57.3472 47.7428 57.3479 44.503 53.8869 42.5046ZM53.6168 49.2741C52.0242 50.1937 49.8945 50.7003 47.6209 50.7003C45.3474 50.7003 43.2176 50.1923 41.6243 49.2741C40.1245 48.4085 39.299 47.2896 39.299 46.124C39.299 44.9584 40.1245 43.8395 41.6243 42.9732C43.2176 42.0535 45.3467 41.547 47.6209 41.547C49.8952 41.547 52.0242 42.0535 53.6168 42.9732C55.1167 43.8395 55.9429 44.9584 55.9429 46.124C55.9429 47.2896 55.1167 48.407 53.6168 49.2741Z" fill="white"/>
<path d="M53.6164 42.9728C52.0238 42.0524 49.8941 41.5459 47.6205 41.5459C45.347 41.5459 43.2165 42.0524 41.6239 42.9728C40.1226 43.8384 39.2979 44.9566 39.2979 46.1229C39.299 46.4574 39.3657 46.7884 39.4942 47.0973C39.8197 46.2944 40.5488 45.5419 41.6239 44.9215C43.2165 44.0019 45.3463 43.4954 47.6205 43.4954C49.8948 43.4954 52.0238 44.0019 53.6164 44.9215C54.6915 45.5419 55.4199 46.2922 55.7469 47.0973C55.8751 46.7884 55.9416 46.4574 55.9425 46.1229C55.9425 44.9573 55.1163 43.8384 53.6164 42.9728Z" fill="#EBEBEB"/>
<path d="M47.6205 41.5459C45.3463 41.5459 43.2165 42.0524 41.6239 42.9728C40.1226 43.8384 39.2979 44.9566 39.2979 46.1229C39.299 46.4574 39.3657 46.7884 39.4942 47.0973C39.8197 46.2944 40.5488 45.5419 41.6239 44.9215C43.2165 44.0019 45.3463 43.4954 47.6205 43.4954C47.7621 43.4954 47.9037 43.4954 48.0446 43.5012C47.4979 43.4954 46.3447 43.2195 46.7308 42.4714C47.1366 41.689 48.1628 41.5532 48.9204 41.6028C48.4942 41.5656 48.0599 41.5459 47.6205 41.5459Z" fill="#E0E0E0"/>
<path opacity="0.1" d="M47.6205 41.5459C45.3463 41.5459 43.2165 42.0524 41.6239 42.9728C40.1226 43.8384 39.2979 44.9566 39.2979 46.1229C39.299 46.4574 39.3657 46.7884 39.4942 47.0973C39.8197 46.2944 40.5488 45.5419 41.6239 44.9215C43.2165 44.0019 45.3463 43.4954 47.6205 43.4954C47.7621 43.4954 47.9037 43.4954 48.0446 43.5012C47.4979 43.4954 46.3447 43.2195 46.7308 42.4714C47.1366 41.689 48.1628 41.5532 48.9204 41.6028C48.4942 41.5656 48.0599 41.5459 47.6205 41.5459Z" fill="black"/>
<path d="M55.9424 46.1229C55.9424 45.093 55.2972 44.0997 54.1126 43.2852C54.6687 43.9296 54.3556 45.0828 53.1543 44.6719H53.1455C53.3068 44.7515 53.4645 44.8339 53.6163 44.9222C54.6914 45.5426 55.4198 46.2929 55.7468 47.098C55.8751 46.7889 55.9415 46.4576 55.9424 46.1229Z" fill="#E0E0E0"/>
<path opacity="0.1" d="M55.9424 46.1229C55.9424 45.093 55.2972 44.0997 54.1126 43.2852C54.6687 43.9296 54.3556 45.0828 53.1543 44.6719H53.1455C53.3068 44.7515 53.4645 44.8339 53.6163 44.9222C54.6914 45.5426 55.4198 46.2929 55.7468 47.098C55.8751 46.7889 55.9415 46.4576 55.9424 46.1229Z" fill="black"/>
<path d="M53.6154 44.9213C52.0228 44.0016 49.8931 43.4951 47.6195 43.4951C45.346 43.4951 43.2155 44.0016 41.6229 44.9213C40.5478 45.5417 39.8187 46.292 39.4932 47.097C39.8194 47.8999 40.5478 48.6524 41.6236 49.2728C43.2155 50.1924 45.346 50.6989 47.6195 50.6989C49.8931 50.6989 52.0228 50.1924 53.6154 49.2728C54.6905 48.6524 55.4189 47.9013 55.7459 47.097C55.4189 46.292 54.6905 45.5417 53.6154 44.9213Z" fill="#EB9775"/>
<path opacity="0.4" d="M53.6154 44.9213C52.0228 44.0016 49.8931 43.4951 47.6195 43.4951C45.346 43.4951 43.2155 44.0016 41.6229 44.9213C40.5478 45.5417 39.8187 46.292 39.4932 47.097C39.8194 47.8999 40.5478 48.6524 41.6236 49.2728C43.2155 50.1924 45.346 50.6989 47.6195 50.6989C49.8931 50.6989 52.0228 50.1924 53.6154 49.2728C54.6905 48.6524 55.4189 47.9013 55.7459 47.097C55.4189 46.292 54.6905 45.5417 53.6154 44.9213Z" fill="black"/>
<path opacity="0.3" d="M41.6229 44.9216C40.5478 45.542 39.8187 46.2923 39.4932 47.0974C39.8194 47.9002 40.5478 48.6527 41.6236 49.2731C42.7958 49.9504 44.2592 50.4022 45.8569 50.5942C45.3788 50.3387 44.7475 49.8285 44.2198 49.7183C44.0373 49.6804 43.8614 49.6249 43.6819 49.5724C43.1746 49.4264 43.0155 49.2607 42.9141 49.1344C42.744 48.9301 42.6623 48.6367 42.7608 48.39C42.8343 48.2337 42.9492 48.1004 43.0929 48.0046C43.5826 47.6448 44.2045 47.509 44.7154 47.1806C44.8475 47.0959 44.9781 46.9886 45.0219 46.839C45.0708 46.674 45.0022 46.496 44.9015 46.3573C44.8008 46.2186 44.6694 46.1047 44.5657 45.9683C44.4621 45.8318 44.3862 45.6581 44.4234 45.4909C44.4473 45.385 44.5046 45.2896 44.5869 45.2187C44.9373 44.9267 45.3898 44.8735 45.6868 44.8041C45.7966 44.7808 45.9002 44.7345 45.9909 44.6683C46.0816 44.6022 46.1573 44.5176 46.2131 44.4202C46.3277 44.2268 46.2043 43.9859 46.316 43.7918C46.3813 43.6822 46.4735 43.591 46.5838 43.5269C44.7044 43.6619 42.9681 44.1429 41.6229 44.9216ZM41.531 47.5265C41.5104 47.537 41.4876 47.5425 41.4645 47.5425C41.4414 47.5425 41.4187 47.537 41.3981 47.5265C41.39 47.524 41.3828 47.5189 41.3777 47.512C41.3727 47.5051 41.3699 47.4968 41.3699 47.4882C41.3699 47.4797 41.3727 47.4713 41.3777 47.4644C41.3828 47.4575 41.39 47.4524 41.3981 47.4499C41.4187 47.4394 41.4414 47.4339 41.4645 47.4339C41.4876 47.4339 41.5104 47.4394 41.531 47.4499C41.5388 47.4528 41.5455 47.458 41.5503 47.4649C41.5551 47.4717 41.5576 47.4799 41.5576 47.4882C41.5576 47.4966 41.5551 47.5047 41.5503 47.5116C41.5455 47.5184 41.5388 47.5236 41.531 47.5265ZM42.3637 48.7294C42.3 48.7617 42.2294 48.7786 42.1579 48.7786C42.0864 48.7786 42.0159 48.7617 41.9521 48.7294C41.8382 48.6637 41.8382 48.5578 41.9521 48.4921C42.0159 48.4598 42.0864 48.4429 42.1579 48.4429C42.2294 48.4429 42.3 48.4598 42.3637 48.4921C42.4776 48.5578 42.4776 48.6637 42.3637 48.7294V48.7294ZM42.5418 48.1929C42.5213 48.2034 42.4985 48.2089 42.4754 48.2089C42.4523 48.2089 42.4296 48.2034 42.409 48.1929C42.4008 48.1904 42.3937 48.1853 42.3886 48.1784C42.3835 48.1715 42.3808 48.1631 42.3808 48.1546C42.3808 48.146 42.3835 48.1377 42.3886 48.1308C42.3937 48.1239 42.4008 48.1188 42.409 48.1163C42.4297 48.1062 42.4524 48.101 42.4754 48.101C42.4984 48.101 42.5211 48.1062 42.5418 48.1163C42.5496 48.1192 42.5564 48.1244 42.5612 48.1312C42.5659 48.1381 42.5685 48.1462 42.5685 48.1546C42.5685 48.1629 42.5659 48.1711 42.5612 48.1779C42.5564 48.1848 42.5496 48.19 42.5418 48.1929V48.1929ZM42.6265 47.3171C42.5257 47.3682 42.4143 47.3948 42.3013 47.3948C42.1883 47.3948 42.0769 47.3682 41.9762 47.3171C41.7966 47.2134 41.7966 47.0455 41.9762 46.9419C42.0769 46.8908 42.1883 46.8642 42.3013 46.8642C42.4143 46.8642 42.5257 46.8908 42.6265 46.9419C42.806 47.047 42.806 47.2149 42.6265 47.3185V47.3171ZM44.003 45.1873C44.0355 45.1708 44.0713 45.1622 44.1078 45.1622C44.1442 45.1622 44.1801 45.1708 44.2125 45.1873C44.2254 45.1914 44.2367 45.1994 44.2446 45.2103C44.2526 45.2212 44.257 45.2344 44.257 45.2479C44.257 45.2614 44.2526 45.2746 44.2446 45.2855C44.2367 45.2964 44.2254 45.3044 44.2125 45.3085C44.1801 45.325 44.1442 45.3336 44.1078 45.3336C44.0713 45.3336 44.0355 45.325 44.003 45.3085C43.9905 45.304 43.9796 45.2958 43.9719 45.285C43.9643 45.2741 43.9601 45.2612 43.9601 45.2479C43.9601 45.2346 43.9643 45.2216 43.9719 45.2108C43.9796 45.1999 43.9905 45.1917 44.003 45.1873V45.1873ZM43.0498 45.9398C42.8703 45.8362 42.8703 45.6683 43.0498 45.5646C43.1505 45.5136 43.2617 45.4869 43.3746 45.4869C43.4875 45.4869 43.5988 45.5136 43.6994 45.5646C43.8789 45.6683 43.8789 45.8362 43.6994 45.9398C43.5988 45.991 43.4876 46.0178 43.3747 46.0179C43.2618 46.018 43.1505 45.9915 43.0498 45.9405V45.9398ZM43.479 47.3601C43.4464 47.3767 43.4104 47.3853 43.3739 47.3853C43.3373 47.3853 43.3013 47.3767 43.2688 47.3601C43.2561 47.3559 43.2452 47.3478 43.2374 47.337C43.2296 47.3262 43.2254 47.3132 43.2254 47.2999C43.2254 47.2866 43.2296 47.2736 43.2374 47.2628C43.2452 47.252 43.2561 47.2439 43.2688 47.2397C43.3013 47.2232 43.3373 47.2145 43.3739 47.2145C43.4104 47.2145 43.4464 47.2232 43.479 47.2397C43.4916 47.2439 43.5026 47.252 43.5104 47.2628C43.5181 47.2736 43.5223 47.2866 43.5223 47.2999C43.5223 47.3132 43.5181 47.3262 43.5104 47.337C43.5026 47.3478 43.4916 47.3559 43.479 47.3601V47.3601ZM44.419 46.4281C44.6241 46.5471 44.6241 46.739 44.419 46.8572C44.304 46.9155 44.1769 46.9459 44.0479 46.9459C43.9189 46.9459 43.7918 46.9155 43.6768 46.8572C43.4717 46.739 43.4717 46.5471 43.6768 46.4281C43.7918 46.3698 43.9189 46.3394 44.0479 46.3394C44.1769 46.3394 44.304 46.3698 44.419 46.4281V46.4281ZM45.1007 44.6655C45.0803 44.6758 45.0576 44.6812 45.0347 44.6812C45.0117 44.6812 44.9891 44.6758 44.9686 44.6655C44.9619 44.662 44.9562 44.6568 44.9522 44.6504C44.9483 44.6439 44.9462 44.6365 44.9462 44.629C44.9462 44.6214 44.9483 44.614 44.9522 44.6075C44.9562 44.6011 44.9619 44.5959 44.9686 44.5925C44.9891 44.5821 45.0117 44.5767 45.0347 44.5767C45.0576 44.5767 45.0803 44.5821 45.1007 44.5925C45.1086 44.5952 45.1155 44.6003 45.1203 44.6071C45.1252 44.6139 45.1278 44.6221 45.1278 44.6304C45.1278 44.6388 45.1252 44.6469 45.1203 44.6537C45.1155 44.6605 45.1086 44.6656 45.1007 44.6684V44.6655Z" fill="#EB9775"/>
<path opacity="0.3" d="M53.616 44.9211C53.2407 44.7058 52.8504 44.5178 52.4482 44.3584C52.3377 44.3824 52.2295 44.4161 52.1249 44.4591C52.0069 44.4984 51.9038 44.5727 51.8293 44.6722C51.6702 44.9219 51.865 45.2445 52.0752 45.4525C52.3976 45.7578 52.7539 46.0253 53.1372 46.2495C53.3379 46.3728 53.5474 46.4933 53.6963 46.6757C53.8452 46.8582 53.9233 47.1202 53.8225 47.3326C53.7496 47.4888 53.597 47.5895 53.4678 47.7048C53.3386 47.8202 53.2211 47.9815 53.2533 48.1508C53.2781 48.2807 53.3839 48.3771 53.4722 48.4778C53.5605 48.5785 53.6313 48.7172 53.578 48.8383C53.5248 48.9595 53.3766 48.9982 53.246 49.0164C52.7606 49.0836 52.2584 49.0529 51.7862 49.1887C51.6039 49.2295 51.439 49.3265 51.3147 49.466C51.214 49.5952 51.1731 49.7638 51.0666 49.8879C50.8257 50.1696 50.3871 50.1068 50.017 50.128C49.5411 50.1543 49.0937 50.3565 48.6668 50.5696C48.5974 50.6039 48.5295 50.6426 48.4609 50.6747C50.4133 50.5667 52.2205 50.0769 53.616 49.2741C54.6911 48.6537 55.4195 47.9026 55.7465 47.0983C55.4195 46.2918 54.6911 45.5415 53.616 44.9211ZM52.9416 45.1963C52.8408 45.2474 52.7294 45.274 52.6164 45.274C52.5035 45.274 52.3921 45.2474 52.2913 45.1963C52.1117 45.0926 52.1117 44.9248 52.2913 44.8211C52.3921 44.77 52.5035 44.7434 52.6164 44.7434C52.7294 44.7434 52.8408 44.77 52.9416 44.8211C53.1211 44.9248 53.1211 45.0926 52.9416 45.1963V45.1963ZM53.4853 45.7291C53.4303 45.7568 53.3696 45.7713 53.308 45.7713C53.2464 45.7713 53.1856 45.7568 53.1306 45.7291C53.0328 45.6722 53.0328 45.5831 53.1306 45.524C53.1856 45.4963 53.2464 45.4818 53.308 45.4818C53.3696 45.4818 53.4303 45.4963 53.4853 45.524C53.5832 45.5809 53.5832 45.6722 53.4853 45.7291V45.7291ZM52.1504 49.7018C52.0883 49.7334 52.0195 49.7499 51.9497 49.7499C51.8799 49.7499 51.8112 49.7334 51.749 49.7018C51.6381 49.6383 51.6381 49.5339 51.749 49.4704C51.8112 49.4387 51.8799 49.4222 51.9497 49.4222C52.0195 49.4222 52.0883 49.4387 52.1504 49.4704C52.2614 49.5339 52.2614 49.639 52.1504 49.7018ZM52.6358 49.4886C52.6 49.507 52.5603 49.5165 52.5201 49.5165C52.4799 49.5165 52.4402 49.507 52.4044 49.4886C52.3917 49.4828 52.3809 49.4735 52.3733 49.4617C52.3657 49.4499 52.3617 49.4362 52.3617 49.4222C52.3617 49.4082 52.3657 49.3945 52.3733 49.3827C52.3809 49.371 52.3917 49.3616 52.4044 49.3558C52.4402 49.3375 52.4799 49.3279 52.5201 49.3279C52.5603 49.3279 52.6 49.3375 52.6358 49.3558C52.6485 49.3616 52.6593 49.371 52.6669 49.3827C52.6745 49.3945 52.6785 49.4082 52.6785 49.4222C52.6785 49.4362 52.6745 49.4499 52.6669 49.4617C52.6593 49.4735 52.6485 49.4828 52.6358 49.4886ZM54.3145 47.275C54.3438 47.2602 54.3762 47.2525 54.409 47.2525C54.4418 47.2525 54.4742 47.2602 54.5035 47.275C54.5561 47.3056 54.5561 47.3545 54.5035 47.3844C54.4743 47.3995 54.4419 47.4074 54.409 47.4074C54.3761 47.4074 54.3437 47.3995 54.3145 47.3844C54.2627 47.3545 54.2627 47.3034 54.3152 47.275H54.3145ZM54.5911 48.3457C54.4595 48.4122 54.3141 48.4469 54.1667 48.4469C54.0192 48.4469 53.8738 48.4122 53.7423 48.3457C53.508 48.2099 53.508 47.9902 53.7423 47.8552C53.8738 47.7886 54.0192 47.7539 54.1667 47.7539C54.3141 47.7539 54.4595 47.7886 54.5911 47.8552C54.8268 47.9902 54.8268 48.2099 54.5918 48.3457H54.5911ZM54.8933 46.7757C54.821 46.8125 54.7411 46.8316 54.6601 46.8316C54.579 46.8316 54.4991 46.8125 54.4269 46.7757C54.2977 46.7027 54.2977 46.5801 54.4269 46.5057C54.4991 46.4689 54.579 46.4498 54.6601 46.4498C54.7411 46.4498 54.821 46.4689 54.8933 46.5057C55.0232 46.5801 55.0232 46.7013 54.894 46.7757H54.8933ZM55.3794 46.9129C55.3501 46.928 55.3177 46.9359 55.2848 46.9359C55.2519 46.9359 55.2195 46.928 55.1903 46.9129C55.1378 46.883 55.1378 46.8341 55.1903 46.8035C55.2196 46.7887 55.252 46.781 55.2848 46.781C55.3177 46.781 55.35 46.7887 55.3794 46.8035C55.4326 46.8341 55.4326 46.883 55.3801 46.9129H55.3794Z" fill="#EB9775"/>
<path opacity="0.4" d="M46.4481 43.541C44.6234 43.687 42.9389 44.1614 41.6229 44.9212C40.5478 45.5416 39.8187 46.2919 39.4932 47.0969C39.8194 47.8998 40.5478 48.6523 41.6236 49.2727C42.0347 49.5085 42.4635 49.712 42.906 49.8814C42.0302 49.3763 41.1397 48.6158 41.1361 47.6013C41.1295 45.5919 43.5666 43.857 46.4481 43.541Z" fill="black"/>
<path opacity="0.1" d="M48.6857 61.7624C48.6864 61.7551 48.6864 61.7478 48.6857 61.7405C48.686 61.7376 48.686 61.7347 48.6857 61.7318C48.6834 61.7249 48.6805 61.7183 48.6769 61.7121L48.6726 61.7033C48.6678 61.6967 48.6624 61.6906 48.6565 61.6851C48.6543 61.6822 48.6518 61.6795 48.6492 61.677C48.6394 61.6686 48.6289 61.661 48.6178 61.6544V61.6544L37.6333 55.5863C37.7994 55.3538 37.8981 55.0801 37.9187 54.7951C37.9203 54.7708 37.9203 54.7464 37.9187 54.7221C37.9187 54.7221 37.9187 54.7163 37.9187 54.7134C37.9099 54.3586 37.6464 53.974 37.0691 53.5769C35.8663 52.7485 33.0979 52.0209 31.9177 52.7011C31.5061 52.939 31.3922 53.2894 31.4798 53.6733C31.5593 54.0864 31.8316 54.6221 32.3929 55.2126L32.3972 55.2177C32.4337 55.2556 32.4702 55.2907 32.5111 55.3323L32.5264 55.3476C32.5702 55.3907 32.6162 55.4345 32.6636 55.4783C32.977 55.7775 33.3338 56.0278 33.7219 56.2205C33.8348 56.2754 33.9505 56.3241 34.0686 56.3665C34.2572 56.4345 34.451 56.487 34.6481 56.5234C34.9438 56.5771 35.2439 56.6033 35.5444 56.6015C36.0503 56.6031 36.5468 56.4644 36.9786 56.2008L47.4289 62.5032C47.758 62.6937 48.6879 62.2113 48.6886 61.931C48.6886 61.904 48.6886 61.7945 48.6886 61.7653C48.6864 61.7646 48.6857 61.7639 48.6857 61.7624Z" fill="black"/>
<path d="M35.5405 56.1931C36.8469 56.1931 37.9206 55.2888 37.9206 54.3079L31.4795 53.2686C31.5707 53.7437 31.9174 54.3838 32.6633 55.0735C33.4093 55.7632 34.2333 56.1931 35.5405 56.1931Z" fill="#EBEBEB"/>
<path opacity="0.15" d="M35.5405 56.1931C36.8469 56.1931 37.9206 55.2888 37.9206 54.3079L31.4795 53.2686C31.5707 53.7437 31.9174 54.3838 32.6633 55.0735C33.4093 55.7632 34.2333 56.1931 35.5405 56.1931Z" fill="black"/>
<path opacity="0.15" d="M37.5938 54.4563C37.6091 55.1592 36.7691 56.0307 35.4619 56.0263C34.1934 56.0212 33.0343 55.4592 32.168 54.5592C32.3221 54.7416 32.4876 54.9139 32.6635 55.0753C33.4102 55.7657 34.2335 56.1949 35.5407 56.1949C36.8479 56.1949 37.9208 55.2906 37.9208 54.3096L37.5902 54.2563C37.5916 54.3271 37.5923 54.3943 37.5938 54.4563Z" fill="black"/>
<path d="M37.0715 53.1717C35.8687 52.3433 33.1003 51.6156 31.9201 52.2958C30.7399 52.9761 32.0011 54.5752 33.436 55.27C34.8556 55.9576 36.1825 55.8758 37.1518 55.3168C38.121 54.7577 38.2626 53.9913 37.0715 53.1717Z" fill="#E6E6E6"/>
<path d="M33.2024 52.0969C34.5709 52.0969 36.2248 52.6728 37.0335 53.229C37.5918 53.6136 37.8677 53.9924 37.8538 54.3537C37.8407 54.6756 37.5867 54.9887 37.1181 55.2587C36.6065 55.549 36.0277 55.7 35.4394 55.6966C34.7544 55.6869 34.0805 55.5214 33.4688 55.2127C32.4017 54.6945 31.5485 53.7545 31.5237 53.0706C31.5127 52.7699 31.658 52.5305 31.955 52.359C32.2521 52.1874 32.674 52.0984 33.2024 52.0984V52.0969ZM33.2024 52.0298C32.6981 52.0298 32.2485 52.1101 31.9207 52.2991C30.7413 52.9801 32.0018 54.5785 33.4367 55.2733C34.0576 55.5861 34.7413 55.7541 35.4365 55.7645C36.0376 55.7699 36.6295 55.6166 37.1524 55.32C38.1217 54.7602 38.2633 53.9939 37.0722 53.1742C36.2029 52.5757 34.5176 52.0298 33.2039 52.0298H33.2024Z" fill="#E0E0E0"/>
<path d="M36.3917 53.3438C35.2181 52.5621 32.762 51.8228 31.9212 52.395C31.0804 52.9672 32.4577 54.4488 33.7977 55.1174C35.1217 55.7794 36.2099 55.7465 36.9019 55.2736C37.5938 54.8006 37.5529 54.1175 36.3917 53.3438Z" fill="#F0F0F0"/>
<path d="M35.0755 53.059C34.2427 52.505 32.5013 51.981 31.9042 52.389C31.3072 52.797 32.2859 53.8429 33.2355 54.3173C34.1851 54.7917 34.9463 54.7633 35.4368 54.4282C35.9273 54.0932 35.8988 53.6079 35.0755 53.059Z" fill="#FAFAFA"/>
<path d="M48.6116 61.2439L37.4797 55.0933C37.2605 55.2582 37.022 55.396 36.7695 55.5034V55.6684L47.4256 62.0956C47.7548 62.2854 48.6846 61.8 48.6854 61.5227C48.6854 61.4964 48.6854 61.3862 48.6854 61.3577C48.6852 61.3337 48.6781 61.3102 48.6651 61.2901C48.652 61.2699 48.6335 61.2539 48.6116 61.2439V61.2439Z" fill="#E0E0E0"/>
<path opacity="0.25" d="M48.6116 61.2439L37.4797 55.0933C37.2609 55.259 37.0224 55.3967 36.7695 55.5034V55.6684L47.4256 62.0956C47.7548 62.2854 48.6846 61.8 48.6854 61.5227C48.6854 61.4964 48.6854 61.3862 48.6854 61.3577C48.6852 61.3337 48.6781 61.3102 48.6651 61.2901C48.652 61.2699 48.6335 61.2539 48.6116 61.2439V61.2439Z" fill="black"/>
<path d="M47.4256 61.9307C47.8066 62.1496 48.9926 61.4657 48.6116 61.246L37.4797 55.0933C37.2609 55.259 37.0224 55.3967 36.7695 55.5034L47.4256 61.9307Z" fill="#F0F0F0"/>
<path d="M37.5449 55.2671C37.5449 55.2671 46.8391 60.3762 47.5317 60.7572C48.2908 61.1732 48.7535 61.363 48.2711 61.6418C47.7047 61.9687 47.5667 61.8235 47.5667 61.8235C47.7552 61.8042 47.9367 61.742 48.0974 61.6418C48.382 61.4593 48.1346 61.2162 47.577 60.9491C47.0193 60.682 37.5449 55.2671 37.5449 55.2671Z" fill="#FAFAFA"/>
<path opacity="0.2" d="M48.1333 47.2857C48.2559 46.5303 47.9143 45.9486 47.1772 45.4486C46.3261 44.8713 44.9146 44.0787 44.5803 42.3934C43.9577 39.2207 48.0165 37.4741 48.8179 36.8814C49.7259 36.2099 50.2185 35.6771 50.0893 34.3926C51.5425 35.6282 52.133 38.3149 49.4594 39.9111C47.4041 41.1373 46.2845 42.5437 47.4363 44.0714C48.6508 45.6851 48.7588 46.3325 48.1333 47.2857Z" fill="white"/>
<path opacity="0.2" d="M50.4362 36.4177C50.3392 37.3994 49.1955 38.0862 48.4196 38.5343C47.6438 38.9824 46.8015 39.3766 46.1424 40.0138C45.5855 40.5524 45.1936 41.3063 45.2126 42.107C45.2454 43.3733 45.9986 44.0572 46.7526 44.4309C46.7825 44.4455 46.8022 44.4309 46.7088 44.3579C46.2709 43.993 45.8804 43.5222 45.7468 43.1011C45.5724 42.5493 45.5447 42.0304 45.6884 41.5618C45.9651 40.6611 46.6971 40.0466 47.4649 39.5576C48.6145 38.8277 50.4151 38.0059 50.4684 36.4148C50.4691 36.3805 50.4384 36.3987 50.4362 36.4177Z" fill="white"/>
<path opacity="0.2" d="M48.417 31.9033C49.4637 33.2171 49.3454 35.1001 47.793 36.111C46.2406 37.1219 43.8086 38.3211 43.8656 40.2968C42.9678 39.0867 42.8897 37.3956 44.4115 36.2314C45.1589 35.6592 46.6289 35.0315 47.4098 34.2783C48.0857 33.6251 48.5316 32.7901 48.417 31.9033Z" fill="white"/>
<path opacity="0.4" d="M29.361 46.8591C32.5944 42.7792 32.4894 41.9518 32.4441 41.587C32.4322 41.4892 30.7607 36.2768 27.7443 36.2768H21.807C21.826 35.1322 21.8618 34.2547 21.8904 34.0592C22.0096 33.1865 22.4269 32.3662 23.0827 32.3662C23.7384 32.3662 23.7503 31.5483 23.0827 31.5483H10.6834C10.0205 31.5483 10.0205 32.3662 10.6834 32.3662C11.3462 32.3662 13.8237 33.32 14.1957 33.7969C14.5677 34.2738 14.6726 37.1543 14.5796 38.7805C14.4866 40.4067 6.99457 44.5795 5.92871 49.4844C5.15614 53.0611 6.32215 57.7228 11.1626 60H25.274C30.1145 57.7228 31.2829 53.0492 30.5198 49.4844C30.2911 48.5479 29.8988 47.6591 29.361 46.8591V46.8591ZM21.7736 38.4133H27.6203C28.5741 39.1524 29.6686 40.4711 29.919 42.0687C29.7163 42.5932 29.0915 43.7163 28.0257 45.1017C25.491 42.1855 21.7569 40.3948 21.7736 38.4133Z" fill="#90CAF9"/>
<path d="M11.9866 58.5548H23.9376C27.9674 56.6329 28.945 52.7247 28.2917 49.7322C27.7885 47.424 25.4589 44.9633 23.475 43.0151H12.9022C10.7371 44.9656 8.13327 47.424 7.63253 49.7322C6.98634 52.7247 7.95921 56.6305 11.9866 58.5548Z" fill="white"/>
</svg>
