<svg width="172" height="42" viewBox="0 0 172 42" fill="none" xmlns="http://www.w3.org/2000/svg">
<path d="M92.7366 42C49.3511 42 14.1801 38.9551 14.1801 35.1989C14.1801 31.4428 49.3511 28.3978 92.7366 28.3978C136.122 28.3978 171.293 31.4428 171.293 35.1989C171.293 38.9551 136.122 42 92.7366 42Z" fill="#EAD1BB"/>
<path d="M49.3863 30.5916C22.111 30.5916 7.62939e-06 27.9967 7.62939e-06 24.7958C7.62939e-06 21.5949 22.111 19 49.3863 19C76.6616 19 98.7726 21.5949 98.7726 24.7958C98.7726 27.9967 76.6616 30.5916 49.3863 30.5916Z" fill="#EAD1BB"/>
<path d="M46.82 0H35.4601V25.94H46.82V0Z" fill="#455A64"/>
<path d="M35.4601 2.78998H30V23.16H35.4601V2.78998Z" fill="#455A64"/>
<path d="M35.4601 2.78998H32.73V23.16H35.4601V2.78998Z" fill="#37474F"/>
<path d="M80.45 25.95H91.81V0.00994873H80.45V25.95Z" fill="#455A64"/>
<path d="M91.81 23.16H97.2701V2.79001H91.81V23.16Z" fill="#455A64"/>
<path d="M94.54 2.78998H91.81V23.16H94.54V2.78998Z" fill="#37474F"/>
<path d="M80.45 8.04999H46.82V17.9H80.45V8.04999Z" fill="#37474F"/>
<path d="M91.4901 10.02H80.13V35.96H91.4901V10.02Z" fill="#455A64"/>
<path d="M80.13 12.8H74.67V33.17H80.13V12.8Z" fill="#455A64"/>
<path d="M80.13 12.8H77.4V33.17H80.13V12.8Z" fill="#37474F"/>
<path d="M125.12 35.95H136.48V10.0099H125.12V35.95Z" fill="#455A64"/>
<path d="M136.48 33.17H141.94V12.8H136.48V33.17Z" fill="#455A64"/>
<path d="M139.21 12.8H136.48V33.17H139.21V12.8Z" fill="#37474F"/>
<path d="M125.12 18.06H91.4901V27.91H125.12V18.06Z" fill="#37474F"/>
</svg>
