<svg width="1230" height="902" viewBox="0 0 1230 902" fill="none" xmlns="http://www.w3.org/2000/svg">
<rect x="1088.67" y="673.055" width="134.098" height="134.098" transform="rotate(25.5 1088.67 673.055)" fill="white" fill-opacity="0.5"/>
<rect x="438.169" y="630.581" width="84.3521" height="84.3521" transform="rotate(-17.2418 438.169 630.581)" fill="white" fill-opacity="0.5"/>
<path d="M272.048 54.2919L317.421 98.8796L256.12 115.88L272.048 54.2919Z" fill="white" fill-opacity="0.5"/>
<path d="M594.451 155.427L713.626 187.36L626.384 274.603L594.451 155.427Z" fill="white" fill-opacity="0.5"/>
<path d="M1157.69 116.656L1138.55 271.616L1013.92 177.558L1157.69 116.656Z" fill="white" fill-opacity="0.5"/>
<path d="M170.128 457.265L213.832 536.109L167.403 613.38L77.2703 611.806L33.5665 532.963L79.9953 455.692L170.128 457.265Z" fill="white" fill-opacity="0.5"/>
<path d="M906.262 550.55L965.999 566.72L981.864 626.539L937.992 670.188L878.255 654.018L862.39 594.199L906.262 550.55Z" fill="white" fill-opacity="0.5"/>
<circle cx="710.637" cy="814.84" r="18.7909" fill="white" fill-opacity="0.5"/>
<circle cx="1076.2" cy="437.315" r="44.4148" fill="white" fill-opacity="0.5"/>
<circle cx="338.236" cy="352.756" r="46.123" fill="white" fill-opacity="0.5"/>
<path d="M245.318 740.442L292.134 862.712L162.837 842.121L245.318 740.442Z" fill="white" fill-opacity="0.5"/>
<circle cx="58.9354" cy="47.8314" r="41.8524" fill="white" fill-opacity="0.5"/>
<rect x="793.487" y="16.0659" width="30.7487" height="70.8928" transform="rotate(-31.5 793.487 16.0659)" fill="white" fill-opacity="0.5"/>
<rect x="729.749" y="409.982" width="57.0037" height="131.425" transform="rotate(25.143 729.749 409.982)" fill="white" fill-opacity="0.5"/>
</svg>
