<svg id="visual" viewBox="0 0 960 540" width="960" height="540" xmlns="http://www.w3.org/2000/svg" xmlns:xlink="http://www.w3.org/1999/xlink" version="1.1"><rect x="0" y="0" width="960" height="540" fill="#F5A98A"></rect><g fill="#FABFA8"><circle r="54" cx="663" cy="456"></circle><circle r="4" cx="603" cy="45"></circle><circle r="27" cx="750" cy="218"></circle><circle r="19" cx="801" cy="81"></circle><circle r="20" cx="25" cy="317"></circle><circle r="27" cx="40" cy="521"></circle><circle r="19" cx="235" cy="386"></circle><circle r="25" cx="425" cy="296"></circle><circle r="27" cx="82" cy="179"></circle><circle r="7" cx="952" cy="66"></circle><circle r="22" cx="535" cy="171"></circle><circle r="45" cx="338" cy="106"></circle><circle r="14" cx="859" cy="201"></circle><circle r="51" cx="435" cy="491"></circle><circle r="47" cx="583" cy="366"></circle><circle r="44" cx="16" cy="48"></circle><circle r="19" cx="195" cy="130"></circle><circle r="45" cx="205" cy="23"></circle><circle r="5" cx="807" cy="490"></circle><circle r="42" cx="926" cy="417"></circle><circle r="45" cx="128" cy="421"></circle><circle r="16" cx="189" cy="518"></circle><circle r="27" cx="225" cy="277"></circle><circle r="29" cx="627" cy="234"></circle><circle r="31" cx="481" cy="44"></circle><circle r="6" cx="554" cy="510"></circle><circle r="37" cx="693" cy="121"></circle><circle r="9" cx="720" cy="351"></circle><circle r="19" cx="921" cy="535"></circle><circle r="10" cx="916" cy="303"></circle><circle r="25" cx="426" cy="169"></circle><circle r="41" cx="311" cy="498"></circle><circle r="32" cx="826" cy="382"></circle><circle r="9" cx="332" cy="238"></circle><circle r="31" cx="379" cy="4"></circle><circle r="39" cx="363" cy="395"></circle></g></svg>