<svg width="902" height="602" viewBox="0 0 902 602" fill="none" xmlns="http://www.w3.org/2000/svg">
<g clip-path="url(#clip0_1560_265)">
<path d="M612.15 492.874C609.389 492.877 607.152 495.117 607.154 497.878C607.156 500.64 609.397 502.877 612.158 502.874C614.92 502.872 617.156 500.632 617.154 497.871C617.152 495.109 614.912 492.872 612.15 492.874Z" fill="#FAE2D9"/>
<path d="M751 472.005C747.134 472.008 744.002 475.145 744.005 479.011C744.008 482.877 747.145 486.008 751.011 486.005C754.877 486.002 758.008 482.866 758.005 479C758.002 475.134 754.866 472.002 751 472.005Z" fill="#FAE2D9"/>
<path d="M360 526C363.314 526 366 523.314 366 520C366 516.686 363.314 514 360 514C356.686 514 354 516.686 354 520C354 523.314 356.686 526 360 526Z" fill="#EB764A"/>
<path d="M547 503C553.627 503 559 497.627 559 491C559 484.373 553.627 479 547 479C540.373 479 535 484.373 535 491C535 497.627 540.373 503 547 503Z" fill="#EB764A"/>
<path d="M198 485C201.314 485 204 482.314 204 479C204 475.686 201.314 473 198 473C194.686 473 192 475.686 192 479C192 482.314 194.686 485 198 485Z" fill="#EB764A"/>
<path d="M169 600C171.761 600 174 597.761 174 595C174 592.239 171.761 590 169 590C166.239 590 164 592.239 164 595C164 597.761 166.239 600 169 600Z" fill="#EB764A"/>
<path d="M570 94C576.075 94 581 89.0751 581 83C581 76.9249 576.075 72 570 72C563.925 72 559 76.9249 559 83C559 89.0751 563.925 94 570 94Z" fill="#EB764A"/>
<path d="M691 441C696.523 441 701 436.523 701 431C701 425.477 696.523 421 691 421C685.477 421 681 425.477 681 431C681 436.523 685.477 441 691 441Z" fill="#EB764A"/>
<path d="M108 156C115.18 156 121 150.18 121 143C121 135.82 115.18 130 108 130C100.82 130 95 135.82 95 143C95 150.18 100.82 156 108 156Z" fill="#EB764A"/>
<path d="M881 336C888.18 336 894 330.18 894 323C894 315.82 888.18 310 881 310C873.82 310 868 315.82 868 323C868 330.18 873.82 336 881 336Z" fill="#EB764A"/>
<path d="M773 426C775.761 426 778 423.761 778 421C778 418.239 775.761 416 773 416C770.239 416 768 418.239 768 421C768 423.761 770.239 426 773 426Z" fill="#EB764A"/>
<path d="M238 136C241.314 136 244 133.314 244 130C244 126.686 241.314 124 238 124C234.686 124 232 126.686 232 130C232 133.314 234.686 136 238 136Z" fill="#EB764A"/>
<path d="M875 479C878.314 479 881 476.314 881 473C881 469.686 878.314 467 875 467C871.686 467 869 469.686 869 473C869 476.314 871.686 479 875 479Z" fill="#EB764A"/>
<path d="M785 369C788.866 369 792 365.866 792 362C792 358.134 788.866 355 785 355C781.134 355 778 358.134 778 362C778 365.866 781.134 369 785 369Z" fill="#EB764A"/>
<path d="M186 381C189.314 381 192 378.314 192 375C192 371.686 189.314 369 186 369C182.686 369 180 371.686 180 375C180 378.314 182.686 381 186 381Z" fill="#EB764A"/>
<path d="M232 320C235.866 320 239 316.866 239 313C239 309.134 235.866 306 232 306C228.134 306 225 309.134 225 313C225 316.866 228.134 320 232 320Z" fill="#EB764A"/>
<path d="M873 421C879.627 421 885 415.627 885 409C885 402.373 879.627 397 873 397C866.373 397 861 402.373 861 409C861 415.627 866.373 421 873 421Z" fill="#EB764A"/>
<path d="M675 531C678.314 531 681 528.314 681 525C681 521.686 678.314 519 675 519C671.686 519 669 521.686 669 525C669 528.314 671.686 531 675 531Z" fill="#EB764A"/>
<path d="M722 313C725.314 313 728 310.314 728 307C728 303.686 725.314 301 722 301C718.686 301 716 303.686 716 307C716 310.314 718.686 313 722 313Z" fill="#EB764A"/>
<path d="M284 434C290.075 434 295 429.075 295 423C295 416.925 290.075 412 284 412C277.925 412 273 416.925 273 423C273 429.075 277.925 434 284 434Z" fill="#EB764A"/>
<path d="M872 184C875.866 184 879 180.866 879 177C879 173.134 875.866 170 872 170C868.134 170 865 173.134 865 177C865 180.866 868.134 184 872 184Z" fill="#EB764A"/>
<path d="M250 531C256.075 531 261 526.075 261 520C261 513.925 256.075 509 250 509C243.925 509 239 513.925 239 520C239 526.075 243.925 531 250 531Z" fill="#EB764A"/>
<path d="M831 210C836.523 210 841 205.523 841 200C841 194.477 836.523 190 831 190C825.477 190 821 194.477 821 200C821 205.523 825.477 210 831 210Z" fill="#EB764A"/>
<path d="M836 585C842.075 585 847 580.075 847 574C847 567.925 842.075 563 836 563C829.925 563 825 567.925 825 574C825 580.075 829.925 585 836 585Z" fill="#EB764A"/>
<path d="M360 89C363.314 89 366 86.3137 366 83C366 79.6863 363.314 77 360 77C356.686 77 354 79.6863 354 83C354 86.3137 356.686 89 360 89Z" fill="#EB764A"/>
<path d="M681 143C687.627 143 693 137.627 693 131C693 124.373 687.627 119 681 119C674.373 119 669 124.373 669 131C669 137.627 674.373 143 681 143Z" fill="#EB764A"/>
<path d="M76 295C82.6274 295 88 289.627 88 283C88 276.373 82.6274 271 76 271C69.3726 271 64 276.373 64 283C64 289.627 69.3726 295 76 295Z" fill="#EB764A"/>
<path d="M835 76C839.971 76 844 71.9706 844 67C844 62.0294 839.971 58 835 58C830.029 58 826 62.0294 826 67C826 71.9706 830.029 76 835 76Z" fill="#EB764A"/>
<path d="M792 271C795.314 271 798 268.314 798 265C798 261.686 795.314 259 792 259C788.686 259 786 261.686 786 265C786 268.314 788.686 271 792 271Z" fill="#EB764A"/>
<path d="M615 275C619.418 275 623 271.418 623 267C623 262.582 619.418 259 615 259C610.582 259 607 262.582 607 267C607 271.418 610.582 275 615 275Z" fill="#EB764A"/>
<path d="M75.0936 420.292C68.4662 420.297 63.0978 425.674 63.103 432.301C63.1081 438.929 68.4849 444.297 75.1123 444.292C81.7397 444.287 87.1081 438.91 87.103 432.283C87.0978 425.655 81.7211 420.287 75.0936 420.292Z" fill="#FAE2D9"/>
<path d="M277 168.01C269.821 168.016 264.005 173.841 264.01 181.02C264.016 188.2 269.841 194.016 277.021 194.01C284.2 194.005 290.016 188.18 290.01 181C290.005 173.82 284.18 168.005 277 168.01Z" fill="#FAE2D9"/>
<path d="M244 438.005C240.687 438.007 238.003 440.696 238.005 444.009C238.008 447.323 240.696 450.007 244.01 450.005C247.323 450.002 250.008 447.314 250.005 444C250.003 440.686 247.314 438.002 244 438.005Z" fill="#FAE2D9"/>
<path d="M533 546.005C529.134 546.008 526.002 549.145 526.005 553.011C526.008 556.877 529.145 560.008 533.011 560.005C536.877 560.002 540.008 556.866 540.005 553C540.002 549.134 536.866 546.002 533 546.005Z" fill="#FAE2D9"/>
<path d="M21.019 324.334C17.7053 324.336 15.0211 327.025 15.0237 330.338C15.0262 333.652 17.7146 336.336 21.0283 336.334C24.342 336.331 27.0262 333.643 27.0237 330.329C27.0211 327.015 24.3327 324.331 21.019 324.334Z" fill="#FAE2D9"/>
<path d="M185 259.004C182.239 259.006 180.002 261.246 180.004 264.008C180.006 266.769 182.246 269.006 185.008 269.004C187.769 269.002 190.006 266.761 190.004 264C190.002 261.239 187.761 259.002 185 259.004Z" fill="#FAE2D9"/>
<path d="M675 330.009C668.925 330.013 664.004 334.942 664.009 341.017C664.014 347.092 668.942 352.013 675.018 352.009C681.093 352.004 686.014 347.075 686.009 341C686.004 334.925 681.076 330.004 675 330.009Z" fill="#FAE2D9"/>
<path d="M757.911 185.761C752.388 185.765 747.915 190.246 747.919 195.769C747.923 201.292 752.404 205.765 757.927 205.761C763.45 205.757 767.923 201.276 767.919 195.753C767.915 190.231 763.434 185.757 757.911 185.761Z" fill="#FAE2D9"/>
<path d="M484.949 233.973C481.635 233.976 478.951 236.664 478.953 239.978C478.956 243.292 481.644 245.976 484.958 245.973C488.272 245.971 490.956 243.282 490.953 239.969C490.951 236.655 488.262 233.971 484.949 233.973Z" fill="#FAE2D9"/>
<path d="M376.919 197.057C370.844 197.062 365.923 201.991 365.928 208.066C365.933 214.141 370.861 219.062 376.937 219.057C383.012 219.053 387.933 214.124 387.928 208.049C387.923 201.974 382.995 197.053 376.919 197.057Z" fill="#FAE2D9"/>
<path d="M212 194.006C207.582 194.01 204.003 197.594 204.006 202.012C204.01 206.431 207.594 210.01 212.013 210.006C216.431 210.003 220.01 206.418 220.006 202C220.003 197.582 216.419 194.003 212 194.006Z" fill="#FAE2D9"/>
<path d="M145.897 168.237C140.927 168.241 136.9 172.273 136.904 177.244C136.908 182.215 140.941 186.241 145.911 186.237C150.882 186.233 154.908 182.201 154.904 177.23C154.9 172.259 150.868 168.233 145.897 168.237Z" fill="#FAE2D9"/>
<path d="M784.187 540.741C777.56 540.746 772.192 546.123 772.197 552.75C772.202 559.378 777.579 564.746 784.206 564.741C790.833 564.736 796.202 559.359 796.197 552.731C796.192 546.104 790.815 540.736 784.187 540.741Z" fill="#FAE2D9"/>
<path d="M36.9707 262.322C34.2093 262.324 31.9725 264.564 31.9746 267.326C31.9768 270.087 34.2171 272.324 36.9785 272.322C39.7399 272.32 41.9768 270.079 41.9746 267.318C41.9725 264.556 39.7322 262.32 36.9707 262.322Z" fill="#FAE2D9"/>
<path d="M712 230.005C708.134 230.008 705.002 233.145 705.005 237.011C705.008 240.877 708.145 244.008 712.011 244.005C715.877 244.002 719.008 240.866 719.005 237C719.002 233.134 715.866 230.002 712 230.005Z" fill="#FAE2D9"/>
<path d="M841.14 480.697C837.826 480.699 835.142 483.388 835.145 486.701C835.147 490.015 837.836 492.699 841.149 492.697C844.463 492.694 847.147 490.006 847.145 486.692C847.142 483.378 844.454 480.694 841.14 480.697Z" fill="#FAE2D9"/>
<path d="M457 525.005C453.687 525.007 451.003 527.696 451.005 531.009C451.008 534.323 453.696 537.007 457.01 537.005C460.323 537.002 463.008 534.314 463.005 531C463.003 527.686 460.314 525.002 457 525.005Z" fill="#FAE2D9"/>
<path d="M649.915 190.845C643.288 190.85 637.919 196.227 637.924 202.854C637.929 209.482 643.306 214.85 649.934 214.845C656.561 214.84 661.929 209.463 661.924 202.835C661.919 196.208 656.542 190.84 649.915 190.845Z" fill="#FAE2D9"/>
<path d="M424 423.009C417.925 423.013 413.004 427.942 413.009 434.017C413.014 440.092 417.942 445.013 424.018 445.009C430.093 445.004 435.014 440.075 435.009 434C435.004 427.925 430.076 423.004 424 423.009Z" fill="#FAE2D9"/>
<path d="M429.952 239.016C427.191 239.018 424.954 241.259 424.956 244.02C424.958 246.781 427.199 249.018 429.96 249.016C432.721 249.014 434.958 246.774 434.956 244.012C434.954 241.251 432.714 239.014 429.952 239.016Z" fill="#FAE2D9"/>
<path d="M282.832 85.1302C279.519 85.1327 276.835 87.8211 276.837 91.1348C276.84 94.4485 279.528 97.1327 282.842 97.1302C286.156 97.1276 288.84 94.4392 288.837 91.1255C288.835 87.8118 286.146 85.1276 282.832 85.1302Z" fill="#FAE2D9"/>
<path d="M115.128 465.261C110.71 465.264 107.131 468.849 107.134 473.267C107.138 477.685 110.722 481.264 115.141 481.261C119.559 481.257 123.138 477.673 123.134 473.254C123.131 468.836 119.546 465.257 115.128 465.261Z" fill="#FAE2D9"/>
<path d="M300 560.009C293.925 560.013 289.004 564.942 289.009 571.017C289.014 577.092 293.942 582.013 300.018 582.009C306.093 582.004 311.014 577.075 311.009 571C311.004 564.925 306.076 560.004 300 560.009Z" fill="#FAE2D9"/>
</g>
<defs>
<clipPath id="clip0_1560_265">
<rect width="900" height="600" fill="white" transform="translate(901.233 600.65) rotate(179.955)"/>
</clipPath>
</defs>
</svg>
