<svg id="visual" viewBox="0 0 960 540" width="960" height="540" xmlns="http://www.w3.org/2000/svg" xmlns:xlink="http://www.w3.org/1999/xlink" version="1.1"><rect x="0" y="0" width="960" height="540" fill="#FFC59E"></rect><g fill="#ffd4b2"><circle r="56" cx="836" cy="495"></circle><circle r="4" cx="241" cy="112"></circle><circle r="37" cx="194" cy="333"></circle><circle r="29" cx="478" cy="190"></circle><circle r="49" cx="627" cy="248"></circle><circle r="37" cx="451" cy="538"></circle><circle r="36" cx="55" cy="446"></circle><circle r="39" cx="629" cy="8"></circle><circle r="22" cx="140" cy="529"></circle><circle r="38" cx="12" cy="156"></circle><circle r="5" cx="927" cy="271"></circle><circle r="52" cx="408" cy="331"></circle><circle r="54" cx="876" cy="94"></circle><circle r="20" cx="630" cy="487"></circle><circle r="40" cx="802" cy="384"></circle><circle r="19" cx="723" cy="109"></circle><circle r="14" cx="943" cy="438"></circle><circle r="45" cx="238" cy="456"></circle><circle r="37" cx="125" cy="11"></circle></g></svg>