<svg width="91" height="57" viewBox="0 0 91 57" fill="none" xmlns="http://www.w3.org/2000/svg">
<path d="M67.7539 27.4128C67.7539 27.4128 72.3379 22.2672 76.8959 23.2119C81.4538 24.1565 82.2504 24.9532 82.2504 24.9532C82.2504 24.9532 89.2418 23.3294 89.3201 24.2262C89.3985 25.1229 87.1435 29.6765 87.1435 29.6765C87.8041 30.8695 88.1697 32.2033 88.2099 33.5665C88.25 34.9296 87.9635 36.2826 87.3742 37.5124C87.3742 37.5124 92.7984 42.5666 90.378 43.8552C87.9576 45.1438 82.7902 43.4547 82.7902 43.4547C82.7902 43.4547 72.129 53.7546 62.765 55.7005C53.4011 57.6464 42.0216 52.7533 38.108 48.7744C33.9636 44.5648 30.4679 33.2201 31.2863 32.6411C32.4791 31.8053 30.4462 25.641 38.2516 20.0165C46.0571 14.3921 45.3693 11.1402 45.3693 11.1402L48.4166 10.1084C48.4166 10.1084 45.2866 19.8119 49.8183 26.0371C54.3501 32.2624 62.3907 35.2574 67.7539 27.4128Z" fill="#F7D4AD"/>
<g opacity="0.2">
<path opacity="0.2" d="M76.8305 23.1074C75.9493 23.4322 75.1893 24.0204 74.6539 24.7921C74.3931 25.1768 74.2238 25.6162 74.1589 26.0764C74.094 26.5367 74.1352 27.0057 74.2795 27.4476C74.4364 27.886 74.7226 28.2663 75.1004 28.5384C75.4782 28.8105 75.9297 28.9614 76.3952 28.9713C77.4922 28.9408 78.5718 28.0222 79.5818 28.4924C80.1956 28.7841 80.4786 29.498 80.9966 29.9377C81.2158 30.1063 81.4679 30.2271 81.7366 30.2922C82.0054 30.3573 82.2848 30.3653 82.5568 30.3157C82.8288 30.266 83.0874 30.1598 83.3158 30.004C83.5443 29.8482 83.7374 29.6461 83.8829 29.4109C84.0419 29.0833 84.1246 28.7238 84.1246 28.3596C84.1246 27.9954 84.0419 27.6359 83.8829 27.3083C83.5603 26.6532 83.0964 26.0778 82.5246 25.6236C80.8677 24.2142 78.8008 23.3762 76.6303 23.2336" fill="white"/>
</g>
<path d="M32.7795 31.4657C32.0482 30.3033 28.8616 31.0303 27.7166 31.7704C26.5717 32.5105 25.8317 33.7424 25.1047 34.9004C24.0337 36.5764 22.7887 38.2002 21.117 39.2842C19.4454 40.3682 17.2861 40.8514 15.4273 40.1548C13.5684 39.4583 12.2929 37.6212 11.1219 35.9539C9.95083 34.2866 8.57954 32.5453 6.60749 32.0359C3.9041 31.3307 1.00045 33.4638 0.295213 36.1672C-0.410021 38.8706 0.730545 41.8047 2.63729 43.8464C5.77602 47.2115 10.8607 48.4174 15.3402 47.3291C19.8198 46.2408 23.642 43.1238 26.0842 39.2232C27.007 37.7475 27.7732 36.1324 29.0357 34.9352C30.2981 33.7381 32.2615 33.0372 33.8243 33.8382" fill="#F7D4AD"/>
<path d="M73.0258 28.4052C73.0584 29.0703 72.8357 29.7228 72.4032 30.2292C72.5687 29.9593 72.2988 29.6372 72.055 29.4369C71.8112 29.2367 71.5369 28.9276 71.6893 28.6533C71.9244 28.218 72.708 28.6533 73.0432 28.3007" fill="#263238"/>
<path d="M72.0463 26.0849C72.0463 26.1197 71.8634 26.2416 71.5543 26.4462C71.15 26.6788 70.8414 27.0476 70.6837 27.4866C70.6279 27.7013 70.6422 27.9281 70.7244 28.1341C70.8066 28.34 70.9525 28.5143 71.1408 28.6316C71.4455 28.8144 71.6893 28.797 71.6893 28.8405C71.6893 28.884 71.4412 28.9537 71.0581 28.7883C70.837 28.6843 70.6553 28.5118 70.54 28.2964C70.3974 28.0294 70.3616 27.7181 70.4399 27.4257C70.5238 27.1782 70.6575 26.9505 70.8327 26.7566C71.0078 26.5627 71.2208 26.4067 71.4586 26.2982C71.636 26.184 71.8369 26.1111 72.0463 26.0849Z" fill="#263238"/>
<path d="M75.3852 32.541C75.5042 32.5375 75.6207 32.5758 75.7144 32.6492C75.8082 32.7227 75.8732 32.8267 75.8982 32.9431C75.9232 33.0595 75.9067 33.181 75.8514 33.2865C75.7961 33.392 75.7057 33.4747 75.5957 33.5204C75.4857 33.5661 75.3632 33.5719 75.2495 33.5366C75.1358 33.5014 75.038 33.4274 74.9731 33.3275C74.9082 33.2277 74.8804 33.1083 74.8945 32.99C74.9085 32.8718 74.9635 32.7622 75.05 32.6803" fill="#263238"/>
<path d="M75.8337 25.7453C75.9527 25.7418 76.0692 25.7801 76.1629 25.8536C76.2566 25.927 76.3216 26.031 76.3466 26.1474C76.3717 26.2639 76.3551 26.3854 76.2998 26.4908C76.2446 26.5963 76.1541 26.6791 76.0441 26.7248C75.9342 26.7705 75.8117 26.7762 75.6979 26.741C75.5842 26.7057 75.4864 26.6318 75.4215 26.5319C75.3567 26.432 75.3288 26.3126 75.3429 26.1944C75.3569 26.0761 75.412 25.9665 75.4984 25.8846" fill="#263238"/>
<path d="M59.4478 31.8487C68.2426 31.8487 75.3722 24.7191 75.3722 15.9244C75.3722 7.12957 68.2426 0 59.4478 0C50.653 0 43.5234 7.12957 43.5234 15.9244C43.5234 24.7191 50.653 31.8487 59.4478 31.8487Z" fill="#8EAADB"/>
<path d="M69.2601 32.7978C69.1886 29.1167 67.8354 25.5758 65.4336 22.7852C64.65 21.8841 63.6923 21.0439 62.5386 20.7784C61.385 20.5128 59.9658 21.0308 59.5653 22.1583C59.1953 23.2162 59.783 24.335 60.2575 25.358C61.8981 28.8825 62.3384 32.8475 61.5113 36.6461" fill="#F7D4AD"/>
<path d="M68.9903 32.6584C68.9803 32.5512 68.9803 32.4434 68.9903 32.3362C68.9903 32.1273 68.9903 31.8225 68.9642 31.4264C68.8953 30.3142 68.7085 29.2124 68.4069 28.1396C67.9588 26.549 67.2466 25.0451 66.2999 23.6906C65.7756 22.8776 65.1003 22.1727 64.3105 21.614C63.8922 21.3335 63.4212 21.1409 62.9261 21.0481C62.4182 20.9629 61.897 21.0079 61.4112 21.1787C60.9277 21.3425 60.5135 21.6646 60.2358 22.0929C59.9933 22.5258 59.8899 23.0228 59.9398 23.5164C60.0911 24.4764 60.3391 25.4186 60.6798 26.3287C61.2264 27.9022 61.6343 29.5205 61.8988 31.1652C62.0671 32.2806 62.0671 33.4149 61.8988 34.5303C61.8514 34.8328 61.7859 35.1323 61.7029 35.4271C61.6759 35.5303 61.6394 35.6309 61.594 35.7274C61.5679 35.7274 61.7072 35.2921 61.803 34.5172C61.9301 33.41 61.9008 32.2904 61.7159 31.1913C61.4236 29.5622 60.9954 27.9604 60.436 26.4027L60.0007 25.0314C59.8394 24.5471 59.7328 24.0462 59.6829 23.5382C59.6241 22.9931 59.7384 22.4432 60.0094 21.9667C60.3171 21.4892 60.7774 21.1301 61.3154 20.948C61.8411 20.76 62.4063 20.7106 62.9566 20.8043C63.4848 20.9051 63.987 21.1125 64.4324 21.4138C65.2448 21.9924 65.9392 22.7209 66.4784 23.56C68.0739 25.8802 68.9658 28.6117 69.0469 31.4264C69.0469 31.8269 69.0469 32.136 69.0469 32.3449C69.0399 32.4512 69.0209 32.5563 68.9903 32.6584Z" fill="#263238"/>
<path d="M61.5678 24.4481C61.2686 24.1004 61.0019 23.7259 60.7712 23.3293C60.4733 22.9753 60.2081 22.595 59.9789 22.1931C60.7628 22.7367 61.3264 23.5427 61.5678 24.4655V24.4481Z" fill="#263238"/>
<path d="M62.6257 23.3903C62.2932 23.078 62.0007 22.7256 61.7551 22.3412C61.4438 22.0077 61.1761 21.6362 60.9584 21.2354C61.0063 21.1875 61.4852 21.5837 61.951 22.1888C62.2663 22.5313 62.4974 22.9427 62.6257 23.3903Z" fill="#263238"/>
<path d="M63.8882 23.0507C63.8142 23.0507 63.6966 22.5152 63.3875 21.9145C63.0784 21.3137 62.7128 20.8871 62.765 20.8349C63.1481 21.0517 63.446 21.3926 63.6095 21.8013C63.845 22.1727 63.9435 22.6145 63.8882 23.0507Z" fill="#263238"/>
<path d="M35.7267 30.73C36.8209 29.9468 37.6636 28.8623 38.1521 27.6085C38.6406 26.3548 38.7538 24.9859 38.478 23.6689C38.3142 23.2716 38.3142 22.8256 38.478 22.4283C38.8349 21.8667 39.6534 22.154 40.3063 22.2498C43.9501 22.7722 50.5975 22.4587 50.5975 22.4587C52.8351 22.2498 56.3178 21.8841 56.3178 21.8841C54.6418 24.692 50.6585 26.8033 47.6329 26.7554C48.8442 27.797 49.8881 29.0186 50.7281 30.3774C52.1926 32.6829 52.8425 35.4125 52.5739 38.1306C52.4273 39.4787 51.9883 40.7785 51.2876 41.9394C50.5868 43.1003 49.6412 44.0943 48.5167 44.8521C46.2399 46.3061 43.1534 46.5151 40.8157 45.1568" fill="#F7D4AD"/>
<path d="M43.8891 46.097C44.5327 46.0679 45.1724 45.9805 45.8002 45.8358C47.5226 45.3626 49.0539 44.3625 50.1796 42.9757C51.4409 41.4948 52.1946 39.6487 52.3302 37.7082C52.3715 36.9771 52.3409 36.2437 52.2388 35.5185C52.138 34.7422 51.9645 33.977 51.7207 33.233C51.4753 32.4485 51.1591 31.6879 50.776 30.9606C49.9823 29.4052 48.889 28.0219 47.559 26.8903L47.3239 26.69H47.633C49.6873 26.6162 51.6859 26.002 53.4272 24.9095C54.5964 24.1443 55.5532 23.0961 56.209 21.8622L56.3352 22.0407C50.3143 22.7002 44.2438 22.7774 38.2081 22.2714L38.2995 22.1539C38.7055 23.4074 38.8186 24.7373 38.6303 26.0414C38.499 27.0222 38.2047 27.9742 37.7597 28.858C37.4759 29.4128 37.1329 29.9354 36.7367 30.4165C36.5974 30.5775 36.4842 30.6951 36.4102 30.7734L36.2883 30.891C36.3181 30.8435 36.3516 30.7983 36.3884 30.756C36.458 30.6733 36.5669 30.5514 36.6975 30.386C37.0726 29.8949 37.3992 29.3686 37.6726 28.8144C38.0978 27.9356 38.3758 26.9929 38.4954 26.024C38.6643 24.7418 38.5408 23.4381 38.1341 22.2105L38.0905 22.0842H38.2255C44.2495 22.5447 50.3033 22.4456 56.3091 21.7882L56.5485 21.7578L56.4353 21.9667C55.7576 23.2311 54.7725 24.3045 53.5709 25.088C51.793 26.2074 49.7501 26.8353 47.6504 26.9077L47.72 26.69C49.6985 28.4102 51.1592 30.6471 51.9384 33.1503C52.1844 33.907 52.3579 34.6854 52.4564 35.475C52.5564 36.2223 52.5812 36.9777 52.5304 37.73C52.4794 38.4366 52.3465 39.1349 52.1343 39.8109C51.7487 41.0151 51.1255 42.1298 50.3015 43.0889C49.148 44.4892 47.5768 45.4838 45.8176 45.9273C45.6653 45.9621 45.5216 46.0013 45.3823 46.0274L44.9905 46.0709L44.6597 46.1144H44.011L43.8891 46.097Z" fill="#263238"/>
<path d="M52.0559 24.3045C52.6009 24.1168 53.1145 23.8483 53.5796 23.5078C54.3153 22.894 54.546 22.1104 54.62 22.1365C54.694 22.1627 54.62 22.3498 54.5112 22.6589C54.3392 23.0612 54.0753 23.4175 53.7406 23.6994C53.409 23.9819 53.0152 24.1818 52.5914 24.2827C52.2649 24.3567 52.0559 24.3349 52.0559 24.3045Z" fill="#263238"/>
<path d="M70.7881 31.4656C70.7881 31.4961 70.5182 31.4656 70.2483 31.187C70.0947 31.0102 69.9963 30.7923 69.9654 30.5602C69.9323 30.2778 69.9822 29.9919 70.109 29.7374C70.2215 29.5102 70.3822 29.3102 70.58 29.1516C70.7777 28.9929 71.0077 28.8794 71.2539 28.8188C71.6283 28.7361 71.8634 28.8188 71.859 28.8188C71.8547 28.8188 71.6327 28.858 71.3062 28.9799C70.882 29.1334 70.534 29.4456 70.3354 29.8506C70.2333 30.0411 70.1842 30.2556 70.1934 30.4715C70.2026 30.6875 70.2697 30.897 70.3876 31.0782C70.5792 31.3568 70.8012 31.4308 70.7881 31.4656Z" fill="#263238"/>
<g opacity="0.3">
<path opacity="0.3" d="M88.0489 23.9301C88.5539 23.9519 86.8866 25.6497 86.1857 26.4158C85.9464 26.7432 85.5916 26.9673 85.1932 27.0427C84.8673 27.0302 84.5542 26.9127 84.3008 26.7075C83.6265 26.2514 83.0285 25.6917 82.529 25.0489L82.4158 24.914C82.4158 24.914 86.9954 23.8822 88.0489 23.9301Z" fill="black"/>
</g>
<g opacity="0.3">
<path opacity="0.3" d="M85.8418 38.9534C84.6012 39.8434 83.6843 41.1133 83.2298 42.5709C84.7626 43.3264 86.4884 43.5996 88.1795 43.3545C88.3519 43.3493 88.5212 43.3079 88.6765 43.2329C88.8317 43.1579 88.9695 43.051 89.0807 42.9192C89.3332 42.5361 89.1242 42.0181 88.8674 41.6393C88.1012 40.5118 86.9606 39.7108 85.8418 38.9359" fill="black"/>
</g>
<path d="M69.7608 42.7363C69.7216 42.7363 69.9872 42.0702 70.3311 40.995C71.2277 38.1839 71.6182 35.236 71.4847 32.2884C71.4368 31.1609 71.3498 30.4643 71.389 30.4556C71.4474 30.6111 71.4855 30.7736 71.5021 30.9389C71.5587 31.2523 71.6153 31.7094 71.6632 32.2753C71.8942 35.2459 71.4967 38.2318 70.4965 41.0385C70.3494 41.4632 70.1808 41.8802 69.9916 42.2879C69.9361 42.4474 69.8584 42.5984 69.7608 42.7363Z" fill="#263238"/>
<path d="M72.8037 41.2867C72.7645 41.2867 72.8734 40.6947 72.9822 39.7413C73.259 37.2604 73.1118 34.7505 72.5469 32.3189C72.3335 31.383 72.1551 30.8127 72.1942 30.7997C72.2712 30.9179 72.3299 31.047 72.3684 31.1827C72.4685 31.4352 72.5904 31.8096 72.721 32.2754C73.3899 34.7146 73.5383 37.2672 73.1563 39.7674C73.0823 40.242 73.004 40.6381 72.9343 40.8862C72.9137 41.0261 72.8695 41.1616 72.8037 41.2867Z" fill="#263238"/>
<path d="M71.5456 25.0706C71.7407 25.494 71.8275 25.9593 71.7981 26.4245C71.8504 26.8865 71.7891 27.3542 71.6196 27.7871C71.5456 27.3399 71.5223 26.8857 71.55 26.4332C71.4954 25.9808 71.4939 25.5235 71.5456 25.0706Z" fill="#263238"/>
<g opacity="0.2">
<path opacity="0.2" d="M75.9164 49.14C75.7205 47.9559 73.9791 45.9795 72.7776 46.0144C71.5761 46.0492 70.4747 46.6325 69.3951 47.1593C68.3155 47.686 67.1357 48.1736 65.9473 48.0038C64.4193 47.7818 63.2308 46.5281 61.7377 46.1319C61.0966 45.9852 60.4322 45.9721 59.7858 46.0934C59.1394 46.2147 58.525 46.4679 57.9808 46.8371C56.8945 47.587 56.0119 48.5953 55.4123 49.7713C54.7724 50.9423 54.324 52.2265 53.5012 53.2757C52.6785 54.3248 51.3246 55.313 50.0186 54.9691C50.0186 54.9691 58.3769 57.6856 65.1158 55.2129C70.0873 53.4019 75.9164 49.14 75.9164 49.14Z" fill="white"/>
</g>
<g opacity="0.2">
<path opacity="0.2" d="M68.1239 27.4998C67.5974 27.4243 67.0603 27.4859 66.5645 27.6788C66.0688 27.8717 65.6312 28.1892 65.2941 28.6007C64.957 29.0122 64.7319 29.5037 64.6404 30.0277C64.5489 30.5518 64.5942 31.0905 64.7719 31.5919C64.9446 31.9557 65.0788 32.3365 65.1724 32.7281C65.2769 33.4856 64.8111 34.1952 64.7066 34.9483C64.6576 35.2862 64.6888 35.631 64.7977 35.9547C64.9066 36.2784 65.0901 36.5719 65.3335 36.8115C65.5832 37.044 65.8946 37.1996 66.2304 37.2599C66.5662 37.3201 66.9122 37.2823 67.2272 37.151C67.989 36.8071 68.359 35.9408 68.5723 35.1355C69.2313 32.6111 69.0541 29.9411 68.0673 27.5259" fill="white"/>
</g>
<g opacity="0.2">
<path opacity="0.2" d="M35.6962 46.071C37.2749 46.3843 38.9037 46.34 40.463 45.9415C42.0224 45.543 43.4727 44.8004 44.7075 43.7681C45.9787 42.6885 47.0191 41.2301 47.2194 39.5715C47.4196 37.9129 46.6012 36.0889 45.0427 35.4402C42.9749 34.5696 40.5545 36.0366 38.3996 35.4402C37.5136 35.1166 36.6924 34.6375 35.9748 34.0254C35.2541 33.4148 34.3921 32.9943 33.4673 32.8021C32.5357 32.6846 31.4648 33.1156 31.1557 34.008V34.7655C32.1047 37.8737 33.8068 41.8613 35.6962 46.071Z" fill="white"/>
</g>
<g opacity="0.2">
<path opacity="0.2" d="M9.57644 47.464C10.1168 47.565 10.6731 47.5404 11.2024 47.3922C11.7317 47.244 12.2199 46.9761 12.6293 46.6092C13.0386 46.2424 13.3582 45.7864 13.5633 45.2764C13.7684 44.7664 13.8536 44.2161 13.8122 43.6679C13.7913 43.4513 13.7445 43.2379 13.6729 43.0324C13.1113 41.5044 11.7662 40.2071 10.1511 40.0199C9.19335 39.9067 8.17033 40.1766 7.2779 39.8109C6.38548 39.4452 5.79343 38.4353 5.46258 37.4732C5.13173 36.5111 4.91841 35.4794 4.32201 34.6523C3.72561 33.8251 2.58069 33.281 1.67521 33.7816C1.67521 33.7816 -1.25892 36.3936 0.639121 40.7251C2.17584 44.1947 5.1056 46.7022 9.57644 47.464Z" fill="white"/>
</g>
<path d="M69.2906 4.55792C69.2555 4.65547 69.2071 4.74775 69.1469 4.83218L68.6855 5.58965C68.4478 5.99182 68.1891 6.38124 67.9106 6.75633C67.5885 7.19166 67.2446 7.72276 66.8005 8.24951L66.1214 9.08971C65.8863 9.38138 65.6121 9.66434 65.3422 9.96037C64.8154 10.5742 64.1885 11.1706 63.5399 11.8105C62.0949 13.163 60.5462 14.4002 58.908 15.5108C57.2549 16.5983 55.5183 17.5532 53.7145 18.3666C52.8743 18.7192 52.082 19.0718 51.3115 19.3243C50.9284 19.4549 50.5627 19.5986 50.2014 19.7074L49.1653 20.0121C48.508 20.2211 47.8941 20.3343 47.363 20.4475C46.9094 20.5609 46.4503 20.651 45.9874 20.7174L45.1167 20.8523C45.0164 20.8722 44.9143 20.8824 44.812 20.8828C44.9089 20.8447 45.0096 20.8169 45.1124 20.8001L45.983 20.6216C46.3618 20.5519 46.8232 20.4562 47.35 20.3125C47.8767 20.1688 48.4818 20.047 49.1348 19.8293L50.1622 19.5115C50.5192 19.3983 50.8805 19.2503 51.2592 19.1154C52.0211 18.8542 52.8047 18.5015 53.6405 18.1446C57.2283 16.5173 60.5242 14.3112 63.3962 11.6146C64.0449 10.979 64.6761 10.3913 65.2072 9.78624C65.4771 9.49021 65.7514 9.2116 65.9952 8.91558L66.6786 8.08844C67.114 7.5704 67.484 7.06107 67.8148 6.62574C68.1457 6.19041 68.4112 5.80732 68.6202 5.48518L69.1208 4.75817C69.1731 4.68788 69.2298 4.62099 69.2906 4.55792Z" fill="#263238"/>
<path d="M57.4627 16.5817C57.3195 16.4148 57.1913 16.2356 57.0796 16.0462C56.962 15.8677 56.8228 15.6457 56.6791 15.3802C56.5354 15.1146 56.3569 14.8186 56.2046 14.4703C55.8155 13.6653 55.4895 12.8314 55.2294 11.9759C54.9197 10.9238 54.6983 9.84773 54.5677 8.75881C54.4525 7.67003 54.4292 6.57348 54.4981 5.48078C54.563 4.58833 54.6955 3.70208 54.8942 2.82962C54.9682 2.45524 55.0771 2.12874 55.1598 1.83707C55.2273 1.58607 55.3087 1.339 55.4036 1.09701C55.468 0.886242 55.5526 0.682154 55.6561 0.487549C55.704 0.487549 55.3687 1.38433 55.0684 2.8688C54.894 3.73041 54.7805 4.60323 54.7288 5.48078C54.6024 7.64525 54.8468 9.81541 55.4515 11.8975C55.6972 12.7466 56.0027 13.5773 56.3657 14.3833C56.9621 15.772 57.4844 16.5556 57.4627 16.5817Z" fill="#263238"/>
<path d="M61.7115 12.8466C61.5857 12.7268 61.4746 12.5924 61.3807 12.4461C61.0911 12.067 60.8278 11.6684 60.5927 11.2533C60.2372 10.6388 59.9315 9.99684 59.6785 9.33352C59.3738 8.51921 59.1393 7.68031 58.9777 6.82601C58.8271 5.96344 58.7499 5.08965 58.7469 4.21403C58.7498 3.50372 58.8094 2.79477 58.9254 2.09398C58.9989 1.62138 59.1051 1.15446 59.2432 0.696576C59.2819 0.525796 59.3419 0.360535 59.4217 0.204651C59.4652 0.204651 59.2563 0.931649 59.0995 2.1201C59.014 2.81328 58.9733 3.51125 58.9777 4.20968C58.9878 5.07322 59.0634 5.93475 59.204 6.78683C59.3646 7.6287 59.5902 8.45685 59.8788 9.26386C60.1231 9.92082 60.4141 10.5595 60.7494 11.175C61.298 12.2241 61.7507 12.8162 61.7115 12.8466Z" fill="#263238"/>
<path d="M65.673 9.20297C65.3603 8.88732 65.0949 8.52809 64.8851 8.13642C64.3407 7.21122 63.94 6.20867 63.6966 5.16311C63.4533 4.1166 63.3726 3.03888 63.4572 1.96779C63.4718 1.523 63.5525 1.08286 63.6966 0.661804C63.7402 0.661804 63.6618 1.16679 63.6357 1.96779C63.5649 4.08025 64.0497 6.1743 65.0418 8.04065C65.4205 8.7633 65.7079 9.17685 65.673 9.20297Z" fill="#263238"/>
<path d="M73.4611 7.90558C73.4246 8.00803 73.3764 8.1059 73.3174 8.19724L72.856 9.02438C72.6601 9.38135 72.4206 9.81668 72.0811 10.2999C71.7415 10.7831 71.415 11.3534 70.971 11.9367L70.2919 12.8814C70.0568 13.2035 69.7825 13.5213 69.5126 13.8565C68.9815 14.54 68.3547 15.2148 67.7017 15.9331C66.2529 17.4595 64.6946 18.8781 63.0393 20.1775C61.3684 21.4642 59.6065 22.6281 57.7674 23.6602C56.8968 24.0955 56.0958 24.5526 55.3035 24.8965C54.9117 25.0706 54.5373 25.2578 54.1673 25.4102L53.0963 25.8455C52.4216 26.1285 51.7904 26.32 51.2375 26.5116C50.6846 26.7031 50.2058 26.8424 49.8053 26.9469L48.8954 27.1863C48.7908 27.2198 48.6827 27.2418 48.5733 27.2516C48.6728 27.2049 48.7762 27.167 48.8824 27.1384L49.7791 26.8511C50.1709 26.7336 50.6498 26.5856 51.1896 26.3766C51.7294 26.1677 52.365 25.9761 53.0311 25.6801L54.0889 25.2448C54.4589 25.088 54.829 24.9009 55.2164 24.718C56 24.3697 56.801 23.9214 57.6543 23.4686C59.4727 22.4375 61.2182 21.2826 62.8782 20.0121C64.5217 18.716 66.0751 17.3096 67.5275 15.8025C68.1762 15.0929 68.8074 14.4268 69.3429 13.7564C69.6128 13.4212 69.8914 13.1121 70.1308 12.7943L70.8186 11.8801C71.254 11.3055 71.624 10.7439 71.9548 10.2694C72.2857 9.79491 72.5556 9.36829 72.7645 9.02002C72.9735 8.67176 73.1346 8.42797 73.2652 8.22336C73.3203 8.1115 73.3859 8.00511 73.4611 7.90558Z" fill="#263238"/>
<path d="M75.6334 10.0649C75.6118 10.17 75.5782 10.2722 75.5333 10.3696C75.4462 10.5916 75.3287 10.8746 75.1893 11.2403L74.9369 11.8628C74.8367 12.0848 74.7148 12.3199 74.5929 12.5767C74.3361 13.0861 74.0706 13.6825 73.6962 14.318L73.1346 15.2627C72.9387 15.6023 72.6993 15.9375 72.4729 16.2901C72.0376 17.0084 71.4673 17.7223 70.897 18.4667C68.3404 21.7215 65.2041 24.4755 61.6462 26.59C60.8148 27.0558 60.0355 27.5172 59.265 27.8699C58.8863 28.0483 58.5249 28.2399 58.1636 28.3923L57.1188 28.8276C56.4615 29.1193 55.8346 29.3021 55.2948 29.4937C55.0249 29.5807 54.7767 29.6721 54.5417 29.7418L53.893 29.9116L53.0006 30.1423C52.897 30.1732 52.7905 30.1936 52.6828 30.2032C52.7804 30.1555 52.8824 30.1175 52.9875 30.09L53.8582 29.8201L54.4981 29.6286C54.7288 29.5502 54.9726 29.4545 55.2425 29.3587C55.7736 29.1584 56.3918 28.9625 57.0404 28.6622L58.0722 28.2268C58.4291 28.0701 58.7861 27.8742 59.1649 27.6914C59.9267 27.3344 60.6972 26.8686 61.5156 26.3854C65.0371 24.2683 68.1497 21.536 70.7055 18.3187C71.2801 17.5656 71.8373 16.8647 72.2901 16.1421C72.5208 15.7895 72.7602 15.463 72.9605 15.1278L73.5351 14.1613C73.9182 13.5562 74.1881 12.9685 74.458 12.4679C74.5842 12.2154 74.7148 11.9803 74.8193 11.7627C74.9238 11.545 75.0065 11.3273 75.0936 11.1532C75.2503 10.8093 75.3765 10.5307 75.4767 10.3174C75.523 10.2297 75.5753 10.1453 75.6334 10.0649Z" fill="#263238"/>
<path d="M55.5472 12.8814C55.0457 12.7187 54.5531 12.5298 54.0715 12.3154C51.7075 11.3813 49.236 10.7466 46.7144 10.4261C46.1886 10.3832 45.6654 10.312 45.1472 10.2128C45.29 10.1811 45.437 10.1723 45.5825 10.1867C45.8568 10.1867 46.2529 10.2084 46.7405 10.2476C49.2937 10.4792 51.7927 11.1216 54.1411 12.15C54.5765 12.3503 54.9465 12.5244 55.1903 12.655C55.3196 12.7128 55.4398 12.789 55.5472 12.8814Z" fill="#263238"/>
<path d="M55.0902 7.47026C55.0554 7.53992 53.6362 6.7955 51.7599 6.22521C49.8836 5.65493 48.2773 5.46775 48.2773 5.38939C48.6293 5.35843 48.984 5.37749 49.3308 5.44598C51.0134 5.66993 52.6475 6.17002 54.1673 6.9261C54.5006 7.05997 54.8117 7.24343 55.0902 7.47026Z" fill="#263238"/>
<path d="M53.6623 17.7441C53.2028 17.6097 52.7521 17.4468 52.3128 17.2565C51.2334 16.8595 50.1316 16.5267 49.013 16.2596C47.8925 15.9969 46.7571 15.8021 45.6131 15.6763C45.1354 15.6474 44.66 15.5892 44.1895 15.5021C44.6683 15.4479 45.1517 15.4479 45.6305 15.5021C47.9527 15.6569 50.233 16.1968 52.3781 17.0998C52.8305 17.2622 53.2617 17.4785 53.6623 17.7441Z" fill="#263238"/>
<path d="M35.9835 15.9853C35.9835 15.9592 36.3318 15.9853 36.9282 15.8068C37.7692 15.5541 38.5388 15.1067 39.1745 14.5008C40.1111 13.5983 40.874 12.5315 41.4251 11.3534C42.1086 10.0474 42.7311 8.52808 43.7498 7.13503C44.6954 5.82053 45.8464 4.6667 47.1584 3.7177C48.2336 2.94476 49.4042 2.31411 50.6411 1.84143C51.4692 1.52454 52.3245 1.2841 53.1965 1.12313C53.5055 1.06653 53.7493 1.04478 53.9148 1.02301C53.9971 1.01145 54.0806 1.01145 54.1629 1.02301C53.8526 1.11205 53.5371 1.18183 53.2182 1.23196C52.361 1.42636 51.521 1.68987 50.7064 2.01991C49.5012 2.51136 48.3608 3.14881 47.3108 3.91795C46.0286 4.86318 44.902 6.00299 43.9718 7.29611C42.9706 8.6587 42.348 10.1693 41.6472 11.4753C41.0759 12.6703 40.2825 13.7458 39.3094 14.6445C38.6464 15.251 37.8431 15.6833 36.9717 15.9026C36.7359 15.9577 36.4954 15.9897 36.2534 15.9984C36.1633 16.007 36.0724 16.0026 35.9835 15.9853Z" fill="#455A64"/>
<path d="M67.3796 13.2732C67.3447 13.234 68.1501 12.6899 69.1862 11.5319C70.5245 10.0328 71.4988 8.24509 72.0332 6.30792C72.1969 5.7572 72.2747 5.18455 72.264 4.61014C72.2619 4.09178 72.1025 3.58628 71.8069 3.16049C71.5265 2.78863 71.1269 2.5243 70.675 2.41173C70.2768 2.31037 69.8624 2.28964 69.4561 2.35077C68.8586 2.46014 68.2797 2.65361 67.7365 2.92541C67.5375 3.03378 67.3292 3.12411 67.114 3.19531C67.2954 3.05842 67.4892 2.9389 67.693 2.83834C68.2347 2.52687 68.8225 2.30352 69.4343 2.17664C69.8675 2.09918 70.3119 2.11102 70.7403 2.21146C71.2439 2.32583 71.6919 2.61216 72.0071 3.02118C72.3322 3.48353 72.5125 4.03205 72.5252 4.59708C72.5432 5.18499 72.4712 5.77221 72.3118 6.3384C71.7739 8.31888 70.7573 10.1368 69.3516 11.632C68.9295 12.0843 68.4692 12.4993 67.976 12.8727C67.7943 13.0301 67.594 13.1646 67.3796 13.2732Z" fill="#455A64"/>
</svg>
