<svg width="104" height="104" viewBox="0 0 104 104" fill="none" xmlns="http://www.w3.org/2000/svg">
<rect width="104" height="104" fill="white"/>
<path d="M21.0731 67.2059C20.8211 67.2059 20.5785 67.1639 20.3451 67.0799C20.1118 66.9959 19.9205 66.8466 19.7711 66.6319C19.6218 66.4173 19.5471 66.1186 19.5471 65.7359V59.3939H20.7931V65.5819C20.7931 65.7966 20.8398 65.9506 20.9331 66.0439C21.0265 66.1373 21.1758 66.1839 21.3811 66.1839C21.4651 66.1839 21.5538 66.1746 21.6471 66.1559C21.7405 66.1373 21.8291 66.1139 21.9131 66.0859L22.0811 66.9959C21.9038 67.0799 21.7311 67.1359 21.5631 67.1639C21.3951 67.1919 21.2318 67.2059 21.0731 67.2059ZM25.4153 67.2059C24.594 67.2059 23.964 67.0193 23.5253 66.6459C23.096 66.2633 22.8813 65.7173 22.8813 65.0079C22.8813 64.2333 23.1613 63.6359 23.7213 63.2159C24.2906 62.7959 25.21 62.5486 26.4793 62.4739L27.8233 62.3899V61.9559C27.8233 61.3493 27.6833 60.9199 27.4033 60.6679C27.1326 60.4066 26.6753 60.2759 26.0313 60.2759C25.5646 60.2759 25.1166 60.3413 24.6873 60.4719C24.2673 60.5933 23.866 60.7659 23.4833 60.9899V59.8279C23.754 59.6879 24.118 59.5573 24.5753 59.4359C25.042 59.3146 25.5646 59.2539 26.1433 59.2539C27.1233 59.2539 27.8513 59.4686 28.3273 59.8979C28.8126 60.3179 29.0553 60.9806 29.0553 61.8859V67.0659H27.8233V63.4259L26.6473 63.5099C25.6953 63.5753 25.0373 63.7246 24.6733 63.9579C24.3186 64.1913 24.1413 64.5319 24.1413 64.9799C24.1413 65.3999 24.272 65.7079 24.5333 65.9039C24.804 66.0999 25.1773 66.1979 25.6533 66.1979C25.9613 66.1979 26.232 66.1559 26.4653 66.0719L26.6613 67.0099C26.484 67.0753 26.288 67.1219 26.0733 67.1499C25.868 67.1873 25.6486 67.2059 25.4153 67.2059ZM22.9017 58.1759V57.6299L23.9237 57.1819H25.7857V56.0479H26.8217V57.1819H27.8297V56.0479H28.8517V58.1759H22.9017ZM34.0434 67.2059C33.0354 67.2059 32.2794 66.9446 31.7754 66.4219C31.2807 65.8899 31.0334 65.0593 31.0334 63.9299C31.0334 63.7433 31.038 63.5426 31.0474 63.3279C31.066 63.1039 31.0847 62.8846 31.1034 62.6699H34.0434V63.6499H32.2794V63.9299C32.2794 64.5179 32.3447 64.9799 32.4754 65.3159C32.606 65.6426 32.7974 65.8713 33.0494 66.0019C33.3107 66.1326 33.6327 66.1979 34.0154 66.1979C34.4354 66.1979 34.7994 66.1186 35.1074 65.9599C35.4154 65.8013 35.6534 65.5119 35.8214 65.0919C35.9894 64.6719 36.0734 64.0699 36.0734 63.2859C36.0734 62.2593 35.896 61.5033 35.5414 61.0179C35.196 60.5326 34.594 60.2899 33.7354 60.2899C33.2874 60.2899 32.858 60.3506 32.4474 60.4719C32.046 60.5839 31.6587 60.7473 31.2854 60.9619V59.7999C31.5654 59.6506 31.934 59.5246 32.3914 59.4219C32.8487 59.3099 33.348 59.2539 33.8894 59.2539C34.7107 59.2539 35.3734 59.4219 35.8774 59.7579C36.3907 60.0846 36.764 60.5513 36.9974 61.1579C37.2307 61.7553 37.3474 62.4646 37.3474 63.2859C37.3474 64.1073 37.24 64.8119 37.0254 65.3999C36.8107 65.9879 36.4607 66.4359 35.9754 66.7439C35.4994 67.0519 34.8554 67.2059 34.0434 67.2059ZM39.2964 67.0659V64.4059C39.2964 63.8179 39.4271 63.3933 39.6884 63.1319C39.9498 62.8613 40.2811 62.6746 40.6824 62.5719L40.6964 62.5299L39.1564 61.9419V61.4799C39.1564 61.0973 39.2824 60.7379 39.5344 60.4019C39.7864 60.0566 40.1458 59.7813 40.6124 59.5759C41.0884 59.3613 41.6531 59.2539 42.3064 59.2539C42.8758 59.2539 43.4031 59.3473 43.8884 59.5339C44.3738 59.7113 44.7611 59.9959 45.0504 60.3879C45.3491 60.7706 45.4984 61.2746 45.4984 61.8999V67.0659H44.2524V62.0259C44.2524 61.4006 44.0611 60.9573 43.6784 60.6959C43.3051 60.4253 42.8431 60.2899 42.2924 60.2899C41.7231 60.2899 41.2704 60.4113 40.9344 60.6539C40.5984 60.8873 40.4304 61.1859 40.4304 61.5499L41.9424 62.3059L41.8304 62.9779C41.4851 62.9779 41.1818 63.0946 40.9204 63.3279C40.6684 63.5519 40.5424 63.9113 40.5424 64.4059V67.0659H39.2964ZM49.917 67.2059C49.3663 67.2059 48.853 67.1546 48.377 67.0519C47.9103 66.9399 47.5136 66.8093 47.187 66.6599L47.551 65.6519C47.8496 65.7733 48.2043 65.8899 48.615 66.0019C49.035 66.1139 49.4783 66.1699 49.945 66.1699C50.4396 66.1699 50.8503 66.0766 51.177 65.8899C51.5036 65.7033 51.667 65.4326 51.667 65.0779C51.667 64.7606 51.5363 64.4993 51.275 64.2939C51.0136 64.0886 50.5936 63.8973 50.015 63.7199C49.427 63.5333 48.9276 63.3373 48.517 63.1319C48.1156 62.9173 47.8076 62.6653 47.593 62.3759C47.3876 62.0773 47.285 61.7086 47.285 61.2699C47.285 60.6913 47.523 60.2106 47.999 59.8279C48.475 59.4453 49.2356 59.2539 50.281 59.2539C50.729 59.2539 51.149 59.2959 51.541 59.3799C51.9423 59.4546 52.255 59.5619 52.479 59.7019V60.7519C52.2456 60.6399 51.9236 60.5326 51.513 60.4299C51.1023 60.3273 50.6776 60.2759 50.239 60.2759C49.6136 60.2759 49.1703 60.3739 48.909 60.5699C48.657 60.7566 48.531 60.9713 48.531 61.2139C48.531 61.4193 48.587 61.5919 48.699 61.7319C48.8203 61.8719 49.021 62.0073 49.301 62.1379C49.5903 62.2686 49.9776 62.4179 50.463 62.5859C50.911 62.7353 51.3216 62.9079 51.695 63.1039C52.0683 63.2999 52.3623 63.5473 52.577 63.8459C52.801 64.1353 52.913 64.5086 52.913 64.9659C52.913 65.3579 52.815 65.7266 52.619 66.0719C52.4323 66.4079 52.1196 66.6833 51.681 66.8979C51.2423 67.1033 50.6543 67.2059 49.917 67.2059ZM50.3969 70.7759C49.7996 70.7759 49.3469 70.6546 49.0389 70.4119C48.7216 70.1786 48.5629 69.8426 48.5629 69.4039V69.1659C48.5629 69.0073 48.5256 68.9093 48.4509 68.8719C48.3669 68.8439 48.2549 68.8486 48.1149 68.8859L48.0309 68.0459C48.1616 68.0086 48.2922 67.9853 48.4229 67.9759C48.5442 67.9666 48.6376 67.9619 48.7029 67.9619C49.0389 67.9619 49.2816 68.0366 49.4309 68.1859C49.5709 68.3353 49.6409 68.5453 49.6409 68.8159V69.2919C49.6409 69.4693 49.6969 69.6186 49.8089 69.7399C49.9209 69.8613 50.1122 69.9219 50.3829 69.9219C50.6629 69.9219 50.8589 69.8613 50.9709 69.7399C51.0736 69.6186 51.1249 69.4693 51.1249 69.2919V68.0039H52.2169V69.3619C52.2169 70.3046 51.6102 70.7759 50.3969 70.7759ZM57.6769 67.2059C56.5756 67.2059 55.7869 66.9539 55.3109 66.4499C54.8349 65.9459 54.5969 65.2273 54.5969 64.2939V59.3939H55.8429V64.3079C55.8429 65.5493 56.4542 66.1699 57.6769 66.1699C58.3116 66.1699 58.7782 66.0159 59.0769 65.7079C59.3849 65.3999 59.5389 64.9333 59.5389 64.3079V56.6359H60.7849V64.2939C60.7849 65.2273 60.5422 65.9459 60.0569 66.4499C59.5809 66.9539 58.7876 67.2059 57.6769 67.2059ZM63.1715 67.2059C63.0035 67.2059 62.8401 67.1873 62.6815 67.1499C62.5228 67.1219 62.3641 67.0706 62.2055 66.9959L62.3455 66.1279C62.4108 66.1466 62.4855 66.1653 62.5695 66.1839C62.6535 66.2026 62.7328 66.2119 62.8075 66.2119C63.0875 66.2119 63.2275 66.0253 63.2275 65.6519V64.3499C63.2275 63.7713 63.3348 63.3559 63.5495 63.1039C63.7641 62.8426 64.0721 62.6653 64.4735 62.5719L64.4875 62.5299L62.8775 61.9419V61.4799C62.8775 61.0973 62.9988 60.7379 63.2415 60.4019C63.4935 60.0566 63.8575 59.7813 64.3335 59.5759C64.8095 59.3613 65.3788 59.2539 66.0415 59.2539C66.6201 59.2539 67.1521 59.3473 67.6375 59.5339C68.1228 59.7113 68.5101 59.9959 68.7995 60.3879C69.0981 60.7706 69.2475 61.2746 69.2475 61.8999V67.0659H68.0015V62.0259C68.0015 61.4006 67.8101 60.9573 67.4275 60.6959C67.0448 60.4253 66.5781 60.2899 66.0275 60.2899C65.4488 60.2899 64.9915 60.4113 64.6555 60.6539C64.3195 60.8873 64.1515 61.1859 64.1515 61.5499L65.7475 62.3059L65.6355 62.9779C65.2901 62.9779 65.0101 63.0899 64.7955 63.3139C64.5808 63.5379 64.4735 63.8973 64.4735 64.3919V65.7499C64.4735 66.3193 64.3475 66.7066 64.0955 66.9119C63.8435 67.1079 63.5355 67.2059 63.1715 67.2059ZM73.679 67.0659V61.6199C73.679 61.1626 73.5717 60.8266 73.357 60.6119C73.1517 60.3973 72.8017 60.2899 72.307 60.2899C71.971 60.2899 71.6537 60.3366 71.355 60.4299C71.0657 60.5139 70.7857 60.6353 70.515 60.7939V59.6739C70.7017 59.5806 70.9677 59.4873 71.313 59.3939C71.6583 59.3006 72.069 59.2539 72.545 59.2539C73.273 59.2539 73.8517 59.4173 74.281 59.7439C74.7103 60.0706 74.925 60.6353 74.925 61.4379V67.0659H73.679ZM78.0225 67.0659L76.6365 59.3939H77.9105L78.4565 62.7259C78.5032 62.9966 78.5498 63.3466 78.5965 63.7759C78.6432 64.2053 78.6992 64.7139 78.7645 65.3019H78.8065C78.9278 64.7046 79.0445 64.1913 79.1565 63.7619C79.2778 63.3326 79.3805 62.9733 79.4645 62.6839L80.4025 59.3939H81.4245L82.3765 62.6839C82.4605 62.9733 82.5585 63.3326 82.6705 63.7619C82.7918 64.1913 82.9132 64.7046 83.0345 65.3019H83.0905C83.1465 64.7139 83.1978 64.2053 83.2445 63.7759C83.2912 63.3466 83.3378 62.9966 83.3845 62.7259L83.9445 59.3939H85.2185L83.8325 67.0659H82.6145L81.3265 62.8939C81.2612 62.6606 81.1958 62.4179 81.1305 62.1659C81.0745 61.9139 81.0185 61.5826 80.9625 61.1719H80.9065C80.8412 61.5826 80.7758 61.9186 80.7105 62.1799C80.6452 62.4319 80.5752 62.6699 80.5005 62.8939L79.2405 67.0659H78.0225Z" fill="#FF9A62"/>
<path d="M44.028 40.4559C43.8681 40.0459 43.7783 39.5976 43.7783 39.1302C43.7783 37.0996 45.4558 35.4521 47.5233 35.4521C48.2918 35.4521 49.0096 35.682 49.6026 36.0728C50.6832 34.2337 52.7 33 55.0133 33C58.4619 33 61.255 35.7433 61.255 39.1302C61.255 39.2337 61.2511 39.3371 61.2472 39.4406C63.4318 40.1953 65 42.2413 65 44.6474C65 47.6933 62.4838 50.1646 59.3825 50.1646H45.0267C42.2686 50.1646 40.0333 47.9692 40.0333 45.2604C40.0333 42.8888 41.7498 40.908 44.028 40.4559ZM49.6533 42.8083H52.2046V47.0995C52.2046 47.4366 52.4855 47.7125 52.8287 47.7125H54.7012C55.0445 47.7125 55.3254 47.4366 55.3254 47.0995V42.8083H57.8767C58.4345 42.8083 58.7115 42.1493 58.3175 41.7624L54.2058 37.7241C53.964 37.4865 53.566 37.4865 53.3242 37.7241L49.2125 41.7624C48.8185 42.1493 49.0994 42.8083 49.6533 42.8083V42.8083Z" fill="#FF9A62"/>
</svg>
