<svg width="40" height="37" viewBox="0 0 40 37" fill="none" xmlns="http://www.w3.org/2000/svg">
<path d="M37 0H2.84615C1.27427 0 0 1.27427 0 2.84615V4.26923C0 5.84111 1.27427 7.11538 2.84615 7.11538H37C38.5718 7.11538 39.8461 5.84111 39.8461 4.26923V2.84615C39.8461 1.27427 38.5718 0 37 0Z" fill="#F24E1E"/>
<path d="M3.77568 9.96144C3.67569 9.9609 3.57671 9.98144 3.48519 10.0217C3.39367 10.062 3.31167 10.1211 3.24454 10.1952C3.1774 10.2693 3.12664 10.3567 3.09555 10.4518C3.06447 10.5468 3.05377 10.6473 3.06414 10.7468L5.40421 33.21C5.40373 33.2166 5.40373 33.2231 5.40421 33.2296C5.52648 34.2686 6.02599 35.2265 6.8079 35.9215C7.58982 36.6166 8.59971 37.0003 9.64587 36.9999H30.1995C31.2454 36.9998 32.2548 36.6159 33.0364 35.921C33.8179 35.226 34.3172 34.2683 34.4394 33.2296V33.2109L36.7759 10.7468C36.7863 10.6473 36.7756 10.5468 36.7445 10.4518C36.7134 10.3567 36.6627 10.2693 36.5955 10.1952C36.5284 10.1211 36.4464 10.062 36.3549 10.0217C36.2633 9.98144 36.1644 9.9609 36.0644 9.96144H3.77568ZM25.9098 26.0324C26.0451 26.1639 26.1529 26.3209 26.227 26.4944C26.301 26.6679 26.3399 26.8543 26.3412 27.043C26.3425 27.2316 26.3064 27.4186 26.2348 27.5931C26.1632 27.7676 26.0576 27.9262 25.9242 28.0595C25.7908 28.1929 25.6322 28.2984 25.4577 28.3699C25.2831 28.4414 25.0961 28.4775 24.9074 28.4761C24.7188 28.4747 24.5324 28.4358 24.3589 28.3616C24.1855 28.2875 24.0285 28.1796 23.8971 28.0443L19.9231 24.0703L15.9483 28.0443C15.6802 28.3048 15.3204 28.4493 14.9465 28.4467C14.5727 28.444 14.215 28.2944 13.9506 28.0301C13.6862 27.7658 13.5364 27.4082 13.5336 27.0343C13.5308 26.6605 13.6752 26.3006 13.9356 26.0324L17.9104 22.0576L13.9356 18.0828C13.6752 17.8145 13.5308 17.4546 13.5336 17.0808C13.5364 16.707 13.6862 16.3493 13.9506 16.085C14.215 15.8208 14.5727 15.6711 14.9465 15.6685C15.3204 15.6658 15.6802 15.8104 15.9483 16.0709L19.9231 20.0448L23.8971 16.0709C24.1652 15.8104 24.525 15.6658 24.8988 15.6685C25.2727 15.6711 25.6304 15.8208 25.8948 16.085C26.1592 16.3493 26.309 16.707 26.3118 17.0808C26.3146 17.4546 26.1702 17.8145 25.9098 18.0828L21.935 22.0576L25.9098 26.0324Z" fill="#F24E1E"/>
</svg>
