<svg width="353" height="353" viewBox="0 0 353 353" fill="none" xmlns="http://www.w3.org/2000/svg">
<path d="M258.407 82.0245C240.323 66.3036 218.101 56.111 194.388 52.6601C170.675 49.2092 146.47 52.6455 124.655 62.5597C102.839 72.474 84.3324 88.4486 71.3375 108.582C58.3427 128.715 51.4073 152.158 51.3571 176.121C51.3068 200.083 58.1439 223.556 71.0542 243.743C83.9645 263.93 102.404 279.983 124.178 289.988C145.952 299.994 170.142 303.532 193.869 300.18C217.596 296.829 239.86 286.729 258.011 271.084L176.383 176.383L258.407 82.0245Z" fill="#F09146"/>
<path d="M101.729 251.15C116.048 265.469 134.18 275.371 153.967 279.678C173.754 283.985 194.362 282.515 213.337 275.443C232.312 268.371 248.855 255.996 260.997 239.789C273.138 223.583 280.367 204.229 281.822 184.031C283.277 163.833 278.897 143.643 269.203 125.863C259.51 108.084 244.911 93.4651 227.145 83.7467C209.38 74.0282 189.196 69.6199 168.996 71.0465C148.796 72.4731 129.432 79.6745 113.208 91.7934L176.439 176.44L101.729 251.15Z" fill="#F9DBB1"/>
<path d="M176.94 149.667L155.776 96.636C160.311 93.0665 167.366 89.6671 176.772 89.6671C186.682 89.6671 193.737 93.4065 198.776 97.1459L176.94 149.667Z" fill="#F2AA4D" stroke="#F2AA4D" stroke-width="7"/>
<path d="M176.612 203.667L197.776 255.814C193.241 259.324 186.186 262.667 176.78 262.667C166.87 262.667 159.815 258.99 154.776 255.313L176.612 203.667Z" fill="#F2AA4D" stroke="#F2AA4D" stroke-width="7"/>
<path d="M157.355 157.16L105.794 135.264C106.5 129.614 109.09 122.315 115.682 115.723C122.628 108.777 130.162 106.423 136.283 105.481L157.355 157.16Z" fill="#F2AA4D" stroke="#F2AA4D" stroke-width="7"/>
<path d="M148.776 176.503L97.5128 197.667C94.0624 193.132 90.7762 186.077 90.7762 176.671C90.7762 166.761 94.391 159.706 98.0057 154.667L148.776 176.503Z" fill="#F2AA4D" stroke="#F2AA4D" stroke-width="7"/>
<path d="M157.16 195.848L135.264 247.409C129.613 246.703 122.315 244.113 115.723 237.521C108.777 230.575 106.423 223.041 105.481 216.92L157.16 195.848Z" fill="#F2AA4D" stroke="#F2AA4D" stroke-width="7"/>
<path d="M228.835 132.339H217.78V143.667H210.925V115.23H229.948V120.523H217.78V127.066H228.835V132.339ZM227.077 185.355H217.682L216.042 190.667H208.718L219.147 162.23H225.593L236.1 190.667H228.737L227.077 185.355ZM219.323 180.062H225.436L222.37 170.198L219.323 180.062ZM234.675 237.667H227.858L217.78 219.972V237.667H210.925V209.23H217.78L227.839 226.925V209.23H234.675V237.667Z" fill="#F09146"/>
<path d="M228.835 132.339V133.339H229.835V132.339H228.835ZM217.78 132.339V131.339H216.78V132.339H217.78ZM217.78 143.667V144.667H218.78V143.667H217.78ZM210.925 143.667H209.925V144.667H210.925V143.667ZM210.925 115.23V114.23H209.925V115.23H210.925ZM229.948 115.23H230.948V114.23H229.948V115.23ZM229.948 120.523V121.523H230.948V120.523H229.948ZM217.78 120.523V119.523H216.78V120.523H217.78ZM217.78 127.066H216.78V128.066H217.78V127.066ZM228.835 127.066H229.835V126.066H228.835V127.066ZM228.835 131.339H217.78V133.339H228.835V131.339ZM216.78 132.339V143.667H218.78V132.339H216.78ZM217.78 142.667H210.925V144.667H217.78V142.667ZM211.925 143.667V115.23H209.925V143.667H211.925ZM210.925 116.23H229.948V114.23H210.925V116.23ZM228.948 115.23V120.523H230.948V115.23H228.948ZM229.948 119.523H217.78V121.523H229.948V119.523ZM216.78 120.523V127.066H218.78V120.523H216.78ZM217.78 128.066H228.835V126.066H217.78V128.066ZM227.835 127.066V132.339H229.835V127.066H227.835ZM227.077 185.355L228.032 185.056L227.812 184.355H227.077V185.355ZM217.682 185.355V184.355H216.945L216.727 185.06L217.682 185.355ZM216.042 190.667V191.667H216.78L216.997 190.962L216.042 190.667ZM208.718 190.667L207.779 190.323L207.286 191.667H208.718V190.667ZM219.147 162.23V161.23H218.449L218.208 161.885L219.147 162.23ZM225.593 162.23L226.531 161.883L226.289 161.23H225.593V162.23ZM236.1 190.667V191.667H237.536L237.038 190.321L236.1 190.667ZM228.737 190.667L227.783 190.965L228.002 191.667H228.737V190.667ZM219.323 180.062L218.368 179.766L217.968 181.062H219.323V180.062ZM225.436 180.062V181.062H226.795L226.391 179.765L225.436 180.062ZM222.37 170.198L223.325 169.901L222.367 166.82L221.415 169.903L222.37 170.198ZM227.077 184.355H217.682V186.355H227.077V184.355ZM216.727 185.06L215.086 190.372L216.997 190.962L218.638 185.65L216.727 185.06ZM216.042 189.667H208.718V191.667H216.042V189.667ZM209.656 191.011L220.086 162.574L218.208 161.885L207.779 190.323L209.656 191.011ZM219.147 163.23H225.593V161.23H219.147V163.23ZM224.655 162.576L235.162 191.014L237.038 190.321L226.531 161.883L224.655 162.576ZM236.1 189.667H228.737V191.667H236.1V189.667ZM229.692 190.369L228.032 185.056L226.123 185.653L227.783 190.965L229.692 190.369ZM219.323 181.062H225.436V179.062H219.323V181.062ZM226.391 179.765L223.325 169.901L221.415 170.495L224.481 180.359L226.391 179.765ZM221.415 169.903L218.368 179.766L220.279 180.357L223.325 170.494L221.415 169.903ZM234.675 237.667V238.667H235.675V237.667H234.675ZM227.858 237.667L226.989 238.162L227.277 238.667H227.858V237.667ZM217.78 219.972L218.649 219.477L216.78 216.195V219.972H217.78ZM217.78 237.667V238.667H218.78V237.667H217.78ZM210.925 237.667H209.925V238.667H210.925V237.667ZM210.925 209.23V208.23H209.925V209.23H210.925ZM217.78 209.23L218.65 208.735L218.362 208.23H217.78V209.23ZM227.839 226.925L226.969 227.419L228.839 230.708V226.925H227.839ZM227.839 209.23V208.23H226.839V209.23H227.839ZM234.675 209.23H235.675V208.23H234.675V209.23ZM234.675 236.667H227.858V238.667H234.675V236.667ZM228.727 237.172L218.649 219.477L216.911 220.467L226.989 238.162L228.727 237.172ZM216.78 219.972V237.667H218.78V219.972H216.78ZM217.78 236.667H210.925V238.667H217.78V236.667ZM211.925 237.667V209.23H209.925V237.667H211.925ZM210.925 210.23H217.78V208.23H210.925V210.23ZM216.911 209.724L226.969 227.419L228.708 226.431L218.65 208.735L216.911 209.724ZM228.839 226.925V209.23H226.839V226.925H228.839ZM227.839 210.23H234.675V208.23H227.839V210.23ZM233.675 209.23V237.667H235.675V209.23H233.675Z" fill="#F09146"/>
</svg>
