<svg width="233" height="161" viewBox="0 0 233 161" fill="none" xmlns="http://www.w3.org/2000/svg">
<path d="M232.92 146.412C233.804 144.025 132.386 67.4469 132.386 67.4469C119.69 58.0773 113.012 57.9298 100.456 67.4469C100.456 67.4469 -0.813328 143.963 0.0390332 146.317L0.0185547 146.334C0.0290215 146.355 0.0458594 146.369 0.0599668 146.387C0.91867 148.728 2.16796 150.907 3.75475 152.83C4.42508 153.643 5.23284 154.324 6.00966 155.031L5.97189 155.06C6.03378 155.115 6.11615 155.141 6.17804 155.196C9.47053 158.133 13.6227 160.035 18.2353 160.578C18.3077 160.587 18.3659 160.625 18.4383 160.633H18.7168C19.4181 160.7 20.0848 160.868 20.8029 160.868H212.264C221.692 160.868 229.679 154.94 232.852 146.629C232.89 146.567 232.948 146.522 232.983 146.458L232.92 146.412V146.412Z" fill="#EC994D"/>
<path d="M116.561 58.6581L0.553711 145.664V22.4062C0.553711 10.3921 10.291 0.654785 22.3051 0.654785H210.817C222.831 0.654785 232.568 10.3921 232.568 22.4062V145.664L116.561 58.6581Z" fill="#F5AD6A"/>
<path d="M1.90625 14.8431L100.952 92.6382C113.453 101.863 120.028 102.009 132.39 92.6382L231.28 14.9664C229.564 11.8564 226.996 9.39945 224.058 7.44033L225.418 6.37454C222.099 3.35237 217.855 1.39325 213.144 0.887207L19.9842 0.894036C15.2869 1.39326 11.0365 3.35919 7.72351 6.37454L9.07373 7.42714C6.17033 9.35894 3.62554 11.7736 1.90625 14.8431V14.8431Z" fill="#EDECE6"/>
<path d="M1.87446 15.0064C1.0048 17.3568 100.859 92.7542 100.859 92.7542C113.36 101.979 119.935 102.125 132.298 92.7542C132.298 92.7542 232.007 17.4178 231.167 15.0997L231.187 15.0828C231.177 15.0623 231.161 15.0491 231.147 15.0305C230.301 12.7257 229.071 10.5808 227.509 8.68714C226.849 7.88666 226.054 7.21679 225.289 6.51961L225.326 6.49094C225.265 6.43679 225.184 6.4113 225.124 6.35715C221.882 3.46558 217.794 1.59248 213.252 1.05776C213.181 1.04911 213.124 1.01226 213.053 1.00361H212.779C212.088 0.937622 211.432 0.771973 210.724 0.771973H22.2128C12.9301 0.771973 5.06547 6.60971 1.94226 14.7925C1.90495 14.8535 1.84761 14.8976 1.81348 14.9599L1.87446 15.0064V15.0064Z" fill="#FFCA8B"/>
</svg>
