<svg width="75" height="75" viewBox="0 0 75 75" fill="none" xmlns="http://www.w3.org/2000/svg">
<path d="M11.75 0H62.6667C65.783 0 68.7716 1.23794 70.9752 3.4415C73.1787 5.64505 74.4167 8.63371 74.4167 11.75V62.6667C74.4167 65.783 73.1787 68.7716 70.9752 70.9752C68.7716 73.1787 65.783 74.4167 62.6667 74.4167H11.75C8.63371 74.4167 5.64505 73.1787 3.4415 70.9752C1.23794 68.7716 0 65.783 0 62.6667V11.75C0 8.63371 1.23794 5.64505 3.4415 3.4415C5.64505 1.23794 8.63371 0 11.75 0ZM11.75 3.91667C9.67247 3.91667 7.68003 4.74196 6.211 6.211C4.74196 7.68003 3.91667 9.67247 3.91667 11.75V57.1285L20.7309 40.3143L30.5226 50.1059L50.1059 30.5226L70.5 50.9167V11.75C70.5 9.67247 69.6747 7.68003 68.2057 6.211C66.7366 4.74196 64.7442 3.91667 62.6667 3.91667H11.75ZM30.5226 55.6441L20.7309 45.8524L3.91667 62.6667C3.91667 64.7442 4.74196 66.7366 6.211 68.2057C7.68003 69.6747 9.67247 70.5 11.75 70.5H62.6667C64.7442 70.5 66.7366 69.6747 68.2057 68.2057C69.6747 66.7366 70.5 64.7442 70.5 62.6667V56.4548L50.1059 36.0608L30.5226 55.6441ZM21.5417 11.75C24.1386 11.75 26.6291 12.7816 28.4654 14.6179C30.3017 16.4542 31.3333 18.9448 31.3333 21.5417C31.3333 24.1386 30.3017 26.6291 28.4654 28.4654C26.6291 30.3017 24.1386 31.3333 21.5417 31.3333C18.9448 31.3333 16.4542 30.3017 14.6179 28.4654C12.7816 26.6291 11.75 24.1386 11.75 21.5417C11.75 18.9448 12.7816 16.4542 14.6179 14.6179C16.4542 12.7816 18.9448 11.75 21.5417 11.75ZM21.5417 15.6667C19.9835 15.6667 18.4892 16.2856 17.3874 17.3874C16.2856 18.4892 15.6667 19.9835 15.6667 21.5417C15.6667 23.0998 16.2856 24.5941 17.3874 25.6959C18.4892 26.7977 19.9835 27.4167 21.5417 27.4167C23.0998 27.4167 24.5941 26.7977 25.6959 25.6959C26.7977 24.5941 27.4167 23.0998 27.4167 21.5417C27.4167 19.9835 26.7977 18.4892 25.6959 17.3874C24.5941 16.2856 23.0998 15.6667 21.5417 15.6667Z" fill="#75818C"/>
</svg>
