<svg width="150" height="150" viewBox="0 0 150 150" fill="none" xmlns="http://www.w3.org/2000/svg">
<g clip-path="url(#clip0_1081:356)">
<circle cy="151" r="150" fill="#FFD394" fill-opacity="0.35"/>
<circle cx="0.500031" cy="150.5" r="135.5" fill="url(#paint0_linear_1081:356)"/>
<circle cx="0.500031" cy="150.5" r="93.5" fill="white"/>
<path d="M63.6552 61.993L71.7524 51.6291L73.4356 52.9441L69.9337 57.4263L69.9905 57.4706L77.8043 56.3573L79.7712 57.894L79.7269 57.9508L74.2735 58.6545C75.2258 59.5407 75.7205 60.5058 75.7575 61.55C75.817 62.5914 75.4478 63.6227 74.6499 64.6439L71.7686 68.3318L70.0854 67.0168L72.9371 63.3667C73.4888 62.6606 73.7191 61.937 73.6281 61.1959C73.5497 60.4646 73.0462 59.7057 72.1175 58.9193L68.3823 59.4121L65.3384 63.308L63.6552 61.993Z" fill="white"/>
<path d="M82.8891 79.8226C82.2697 79.1101 81.7588 78.3883 81.3563 77.657C80.9764 76.9272 80.6993 76.2671 80.5251 75.6765L82.2386 75.0137C82.4176 75.5366 82.6655 76.1267 82.9825 76.784C83.3099 77.4533 83.7361 78.0899 84.2609 78.6937C84.8173 79.3336 85.3999 79.76 86.0088 79.9727C86.6177 80.1854 87.1516 80.0923 87.6104 79.6934C88.021 79.3365 88.2121 78.8735 88.1839 78.3045C88.1556 77.7355 87.9308 76.9769 87.5094 76.0288C87.0896 75.0581 86.7816 74.1916 86.5854 73.4294C86.4118 72.6687 86.3914 71.9868 86.5243 71.3837C86.6798 70.7821 87.0413 70.2346 87.6089 69.7413C88.3575 69.0905 89.2471 68.8578 90.2775 69.0433C91.3079 69.2287 92.411 69.9977 93.5867 71.3501C94.0905 71.9297 94.5085 72.5204 94.8407 73.122C95.1955 73.7252 95.4083 74.2505 95.4791 74.6977L94.1206 75.8786C94.0031 75.4508 93.7798 74.9135 93.4508 74.2667C93.1217 73.6199 92.7105 73.0127 92.2172 72.4452C91.5139 71.6362 90.8885 71.1728 90.341 71.0551C89.816 70.939 89.3966 71.0174 89.0826 71.2904C88.817 71.5213 88.6566 71.7879 88.6014 72.0903C88.5567 72.4047 88.6073 72.8166 88.7532 73.3258C88.9095 73.8471 89.152 74.5161 89.4804 75.333C89.7911 76.0806 90.0296 76.8061 90.1959 77.5095C90.3621 78.213 90.3728 78.8715 90.2278 79.4852C90.1054 80.1004 89.7484 80.6652 89.1567 81.1795C88.6495 81.6204 88.0623 81.9082 87.3951 82.043C86.7504 82.1794 86.0426 82.0845 85.2715 81.7584C84.5125 81.4218 83.7183 80.7765 82.8891 79.8226Z" fill="white"/>
<path d="M91.9782 90.6196C91.7335 90.2636 91.5573 89.8799 91.4494 89.4687C91.3415 89.0575 91.3667 88.6422 91.525 88.2228C91.6832 87.8034 92.0327 87.4079 92.5733 87.0363L101.533 80.8784L102.743 82.6387L94.0007 88.6471C93.6974 88.8556 93.5252 89.071 93.484 89.2935C93.4427 89.516 93.5218 89.7723 93.7212 90.0624C93.8027 90.1811 93.902 90.2973 94.019 90.411C94.136 90.5247 94.2551 90.6273 94.3762 90.7188L93.2537 91.8398C92.9628 91.6708 92.716 91.4812 92.5134 91.2711C92.3107 91.0609 92.1323 90.8437 91.9782 90.6196Z" fill="white"/>
<path d="M96.1015 98.3079C95.3646 96.9785 95.1093 95.7754 95.3357 94.6987C95.5838 93.6282 96.3446 92.74 97.618 92.0341L98.8984 91.3243C99.5981 90.9365 100.205 90.728 100.72 90.699C101.234 90.67 101.7 90.6859 102.118 90.7469C102.572 90.8064 102.964 90.8542 103.295 90.8903C103.634 90.9403 103.971 90.8723 104.307 90.6861C104.601 90.5232 104.768 90.3299 104.809 90.1061C104.857 89.8964 104.819 89.6796 104.695 89.4557C104.602 89.2877 104.473 89.1213 104.309 88.9564C104.152 88.8055 103.981 88.6624 103.796 88.527L104.907 87.3625C105.215 87.5213 105.504 87.7633 105.776 88.0883C106.055 88.4274 106.273 88.7368 106.428 89.0167C106.862 89.8004 106.966 90.4656 106.738 91.0124C106.525 91.5515 106.11 91.9917 105.494 92.333C104.977 92.62 104.499 92.7656 104.063 92.7699C103.634 92.7881 103.192 92.7675 102.739 92.708C102.257 92.664 101.813 92.6543 101.405 92.6787C100.998 92.7032 100.536 92.859 100.018 93.146L98.7795 93.8325C98.1358 94.1893 97.6972 94.5696 97.4637 94.9734C97.2302 95.3773 97.1404 95.7929 97.1944 96.2203C97.2624 96.64 97.4089 97.0527 97.6338 97.4585C98.425 98.8859 99.4923 99.2273 100.836 98.4826L103.774 96.8536C104.292 96.5666 104.618 96.2305 104.752 95.8452C104.9 95.4522 104.827 94.9898 104.532 94.458L104.485 94.374L105.682 93.7108L105.74 93.8158C106.058 94.3895 106.416 94.7217 106.814 94.8122C107.212 94.9027 107.611 94.8642 108.012 94.6968C108.435 94.5355 108.807 94.3657 109.129 94.1873L110.165 96.0555C109.423 96.4666 108.743 96.7247 108.124 96.8298C107.506 96.9349 106.899 96.7315 106.304 96.2197L106.22 96.2662C106.34 96.7123 106.327 97.0853 106.182 97.3851C106.059 97.6911 105.866 97.9536 105.603 98.1725C105.354 98.3836 105.097 98.5628 104.831 98.7102L101.766 100.409C100.689 101.006 99.656 101.14 98.668 100.809C97.6939 100.471 96.8384 99.6373 96.1015 98.3079ZM108.749 89.1953L109.673 88.6833C109.884 88.9322 110.12 89.1764 110.381 89.416C110.656 89.6478 110.931 89.8151 111.208 89.9179C111.499 90.013 111.77 89.9907 112.022 89.8511C112.19 89.758 112.302 89.6315 112.36 89.4715C112.424 89.2897 112.394 89.0869 112.27 88.863C112.192 88.723 112.087 88.5986 111.953 88.4897C111.812 88.3668 111.689 88.261 111.585 88.1723L112.507 87.1126C112.886 87.2683 113.207 87.5017 113.471 87.8128C113.727 88.1099 113.914 88.3634 114.03 88.5733C114.34 89.133 114.431 89.6592 114.301 90.1517C114.164 90.6302 113.857 91.0013 113.382 91.2651C113.144 91.3969 112.897 91.4791 112.64 91.5114C112.398 91.5361 112.165 91.5281 111.941 91.4875L113.826 94.888L112.356 95.7025L108.749 89.1953Z" fill="white"/>
<path d="M100.96 108.033L109.522 104.311C110.241 103.998 110.696 103.599 110.887 103.115C111.084 102.646 111.013 102.022 110.675 101.244C110.446 100.716 110.155 100.249 109.804 99.8435C109.475 99.4461 109.092 99.0888 108.658 98.7718L110.419 98.0062C110.693 98.2358 111.022 98.5902 111.404 99.0693C111.787 99.5484 112.141 100.162 112.467 100.91C112.964 102.055 113.103 103.076 112.883 103.975C112.663 104.873 111.922 105.596 110.66 106.145L101.812 109.992L100.96 108.033Z" fill="white"/>
<path d="M58.8447 58.6735L63.9295 50.8437C64.3565 50.1861 64.5159 49.6029 64.4077 49.0938C64.3129 48.5935 63.9099 48.1124 63.1987 47.6505C62.7156 47.3368 62.2158 47.1076 61.6993 46.9629C61.2049 46.8136 60.689 46.7266 60.1517 46.702L61.1974 45.0917C61.553 45.1318 62.0225 45.246 62.6062 45.4342C63.1898 45.6225 63.8238 45.9388 64.5082 46.3832C65.5548 47.0629 66.2343 47.8381 66.5465 48.7086C66.8588 49.5791 66.6402 50.5913 65.8908 51.7453L60.6361 59.8368L58.8447 58.6735Z" fill="white"/>
<path d="M76.784 72.479L83.2105 65.7069C83.7502 65.1382 84.0132 64.5938 83.9996 64.0735C83.9975 63.5643 83.689 63.0178 83.0739 62.4341C82.656 62.0376 82.2064 61.7211 81.7248 61.4847C81.2659 61.2478 80.7746 61.0682 80.2508 60.9462L81.5724 59.5534C81.9147 59.6576 82.3556 59.8555 82.8951 60.1469C83.4347 60.4384 84.0004 60.8649 84.5923 61.4266C85.4976 62.2857 86.0244 63.1717 86.1728 64.0845C86.3212 64.9973 85.9218 65.9528 84.9747 66.9509L78.3334 73.9493L76.784 72.479Z" fill="white"/>
<path d="M48.4247 52.5905C46.8716 51.833 45.9032 50.8622 45.5194 49.6782C45.157 48.4867 45.4002 47.021 46.2488 45.2809C46.3891 44.9933 46.5471 44.6876 46.7228 44.3639C46.9199 44.0328 47.1135 43.7088 47.3036 43.3921L51.8335 45.6015L51.097 47.1115L48.3791 45.7859L48.1687 46.2173C47.7268 47.1233 47.4803 47.8842 47.4291 48.5001C47.3849 49.1016 47.5079 49.5977 47.798 49.9884C48.1024 50.3862 48.5495 50.7288 49.1391 51.0164C49.7862 51.332 50.4067 51.4833 51.0005 51.4703C51.5943 51.4573 52.1784 51.1903 52.7529 50.6695C53.3274 50.1486 53.9092 49.2841 54.4984 48.0762C55.2699 46.4943 55.5648 45.1962 55.3831 44.1819C55.2157 43.1746 54.4705 42.3483 53.1475 41.703C52.4572 41.3663 51.7501 41.1371 51.0262 41.0155C50.3236 40.8864 49.6041 40.847 48.8676 40.8972L49.7408 39.1068C50.2844 39.0872 50.9472 39.1701 51.729 39.3556C52.5178 39.5267 53.3292 39.8156 54.1633 40.2224C55.4288 40.8397 56.3236 41.5965 56.8477 42.493C57.3931 43.3821 57.6176 44.3817 57.5213 45.4917C57.4319 46.5875 57.0786 47.7681 56.4613 49.0336C55.8441 50.2991 55.1492 51.3042 54.3766 52.0488C53.6039 52.7935 52.728 53.2207 51.7487 53.3306C50.7838 53.4474 49.6758 53.2007 48.4247 52.5905Z" fill="white"/>
</g>
<defs>
<linearGradient id="paint0_linear_1081:356" x1="-11" y1="6.5" x2="131" y2="155.5" gradientUnits="userSpaceOnUse">
<stop stop-color="#F0D4D5"/>
<stop offset="0.520833" stop-color="#FFE193"/>
<stop offset="1" stop-color="#EDE2B4"/>
</linearGradient>
<clipPath id="clip0_1081:356">
<rect width="150" height="150" fill="white"/>
</clipPath>
</defs>
</svg>
