<svg width="150" height="150" viewBox="0 0 150 150" fill="none" xmlns="http://www.w3.org/2000/svg">
<g clip-path="url(#clip0_1081:349)">
<path d="M150.5 150C130.867 150 111.427 146.12 93.2888 138.582C75.1506 131.044 58.6699 119.995 44.7875 106.066C30.9052 92.1372 19.8931 75.6013 12.38 57.4025C4.86693 39.2037 0.999998 19.6983 1 -1.52588e-05L150.5 0V150Z" fill="#FFD394" fill-opacity="0.35"/>
<path d="M151 135C133.272 135 115.717 131.495 99.3377 124.686C82.9588 117.876 68.0765 107.895 55.5406 95.313C43.0047 82.7306 33.0606 67.7932 26.2763 51.3536C19.4919 34.914 16 17.2941 16 -0.500015L151 -0.5V135Z" fill="url(#paint0_linear_1081:349)"/>
<path d="M151 93C138.787 93 126.694 90.5815 115.41 85.8827C104.127 81.1839 93.8749 74.2968 85.2391 65.6145C76.6032 56.9322 69.7529 46.6248 65.0792 35.2809C60.4055 23.937 58 11.7786 58 -0.500008L151 -0.5L151 93Z" fill="white"/>
<path d="M79.2579 98.0708C78.9198 97.8019 78.639 97.4866 78.4156 97.1249C78.1922 96.7632 78.0949 96.3587 78.1236 95.9113C78.1524 95.4639 78.3709 94.9836 78.7793 94.4702L85.5473 85.9617L87.2189 87.2913L80.6153 95.5933C80.3862 95.8813 80.2845 96.1377 80.3101 96.3625C80.3357 96.5873 80.4863 96.8093 80.7617 97.0284C80.8744 97.118 81.0033 97.2001 81.1485 97.2747C81.2936 97.3493 81.4375 97.4126 81.58 97.4647L80.8343 98.8648C80.5068 98.7883 80.2153 98.6791 79.9601 98.5374C79.7048 98.3957 79.4707 98.2402 79.2579 98.0708Z" fill="white"/>
<path d="M87.9077 103.938C86.2311 102.97 85.2304 101.967 84.9055 100.93C84.5807 99.8925 84.7303 98.8334 85.3543 97.7526C85.7223 97.1152 86.1044 96.6614 86.5005 96.3913C86.9185 96.1153 87.318 95.9673 87.6992 95.9471C88.0942 95.935 88.4601 95.9892 88.7969 96.1098L88.8449 96.0267C88.6158 95.7835 88.4048 95.477 88.212 95.107C88.0191 94.737 87.9188 94.3188 87.9109 93.8524C87.9169 93.394 88.0719 92.9015 88.3759 92.3749C88.6559 91.89 89.0308 91.4967 89.5005 91.1951C89.9702 90.8936 90.5345 90.7483 91.1933 90.7591C91.8521 90.77 92.5903 91.0114 93.4078 91.4834C93.7404 91.6754 94.0708 91.9032 94.3991 92.1666C94.7353 92.4161 94.9685 92.6524 95.0985 92.8752L93.9379 94.1173C93.8175 93.9739 93.6446 93.8094 93.4191 93.6239C93.2156 93.4324 92.9822 93.2607 92.7189 93.1087C92.1369 92.7727 91.6274 92.6633 91.1903 92.7804C90.7611 92.8837 90.4186 93.157 90.1626 93.6004C89.8826 94.0854 89.7883 94.5206 89.8799 94.906C89.9853 95.2994 90.1971 95.6526 90.5152 95.9656C90.8552 96.2728 91.233 96.5463 91.6487 96.7863L92.0436 97.0143L91.2636 98.3653L90.8687 98.1373C90.0373 97.6573 89.3327 97.4538 88.7549 97.5266C88.1989 97.5936 87.7209 97.9735 87.3209 98.6663C87.0889 99.0681 86.9531 99.4793 86.9135 99.8999C86.8878 100.328 87.013 100.752 87.2889 101.17C87.5788 101.596 88.077 102.013 88.7837 102.421C89.8368 103.029 90.6813 103.23 91.3173 103.024C91.9613 102.805 92.5033 102.314 92.9433 101.552L97.3353 93.9449L99.1851 95.0129L94.8651 102.495C94.0251 103.95 93.047 104.78 91.9307 104.986C90.8283 105.199 89.4873 104.85 87.9077 103.938ZM97.8784 92.2632C97.0886 91.8072 96.7253 91.1725 96.7884 90.3591L95.2332 90.6528C94.4572 90.2048 93.9457 89.6508 93.6986 88.9909C93.4456 88.309 93.5351 87.594 93.9671 86.8457C94.4231 86.0559 95.0016 85.614 95.7026 85.5198C96.3977 85.4039 97.057 85.5259 97.6806 85.8859L102.523 88.6819L101.803 89.9289L97.2308 87.2889C96.9121 87.1049 96.5859 87.0459 96.2522 87.1119C95.9126 87.1561 95.6268 87.379 95.3948 87.7809C95.2268 88.0719 95.163 88.3584 95.2035 88.6403C95.2519 88.9085 95.4562 89.1465 95.8165 89.3545L97.5804 88.9873L97.9753 89.2153C97.8548 89.5522 97.8205 89.8834 97.8727 90.2091C97.9189 90.513 98.0945 90.7529 98.3993 90.9289C98.6626 91.0809 98.9075 91.1207 99.1341 91.0483C99.3468 90.9678 99.5252 90.8029 99.6692 90.5535L99.8252 90.2833L101.176 91.0633L101.008 91.3543C100.616 92.0333 100.147 92.4459 99.6005 92.5924C99.0483 92.7169 98.4742 92.6072 97.8784 92.2632Z" fill="white"/>
<path d="M100.786 111.077C99.4948 110.515 98.6218 109.734 98.1669 108.734C97.7267 107.74 97.8257 106.51 98.4637 105.042L101.966 96.9868L103.925 97.8385L100.47 105.784C99.692 107.574 100.176 108.849 101.922 109.608C102.949 110.054 103.885 110.069 104.73 109.651C105.589 109.24 106.261 108.476 106.746 107.361L109.78 100.384L111.738 101.236L106.494 113.297L104.865 112.589L105.553 110.768L105.442 110.72C104.923 111.192 104.25 111.475 103.424 111.57C102.619 111.656 101.74 111.491 100.786 111.077Z" fill="white"/>
<path d="M70.1533 90.3024C69.4573 89.6646 68.8679 89.0052 68.3852 88.3242C67.9251 87.6422 67.5751 87.0176 67.3352 86.4505L68.9626 85.5981C69.1996 86.0973 69.5128 86.6556 69.9021 87.2727C70.3032 87.9007 70.7987 88.4849 71.3885 89.0254C72.0137 89.5983 72.6409 89.956 73.2699 90.0984C73.899 90.2408 74.4189 90.0878 74.8297 89.6396C75.1972 89.2385 75.3347 88.7569 75.2422 88.1947C75.1497 87.6325 74.8405 86.9042 74.3145 86.0099C73.7875 85.093 73.3834 84.267 73.1021 83.5318C72.8435 82.7957 72.7461 82.1205 72.8098 81.5062C72.8962 80.8909 73.1934 80.306 73.7015 79.7516C74.3717 79.0202 75.2292 78.6883 76.274 78.756C77.3188 78.8236 78.5018 79.4627 79.823 80.6734C80.3892 81.1922 80.8714 81.7317 81.2696 82.2919C81.6903 82.8511 81.9612 83.3489 82.0822 83.7852L80.8661 85.1123C80.7009 84.7005 80.4183 84.192 80.0181 83.5866C79.618 82.9812 79.1407 82.4245 78.5863 81.9165C77.7959 81.1922 77.1221 80.8026 76.5648 80.7477C76.0301 80.6918 75.6222 80.8172 75.3412 81.1239C75.1034 81.3834 74.9742 81.6665 74.9536 81.9731C74.9448 82.2906 75.0417 82.6941 75.2442 83.1835C75.4586 83.6837 75.7752 84.3211 76.194 85.0955C76.5873 85.8031 76.9064 86.4969 77.1512 87.177C77.3961 87.8571 77.4812 88.5103 77.4067 89.1364C77.3547 89.7615 77.0639 90.363 76.5342 90.9411C76.0802 91.4365 75.5294 91.789 74.8817 91.9984C74.2566 92.2069 73.5426 92.1928 72.7395 91.9561C71.9473 91.7076 71.0852 91.1563 70.1533 90.3024Z" fill="white"/>
<path d="M62.5863 83.0375L69.3584 76.611C69.9271 76.0713 70.2182 75.5413 70.2319 75.0211C70.2565 74.5125 69.977 73.9506 69.3932 73.3354C68.9967 72.9176 68.5642 72.5781 68.0957 72.3168C67.6499 72.0562 67.1686 71.8512 66.6519 71.7018L68.0446 70.3802C68.3809 70.5022 68.8109 70.7228 69.3344 71.0421C69.858 71.3614 70.4006 71.817 70.9623 72.4089C71.8214 73.3142 72.3012 74.2265 72.4016 75.1458C72.502 76.0652 72.0531 76.9984 71.055 77.9456L64.0566 84.5869L62.5863 83.0375Z" fill="white"/>
<path d="M50.3782 68.0291L61.0184 60.2985L62.2739 62.0266L57.6722 65.3699L57.7145 65.4282L65.5326 66.5118L66.9997 68.5311L66.9415 68.5734L61.5054 67.7468C62.1765 68.8611 62.386 69.9252 62.1338 70.9391C61.9039 71.9565 61.2647 72.8461 60.2162 73.6079L56.43 76.3587L55.1745 74.6307L58.9219 71.9081C59.6468 71.3814 60.0676 70.7493 60.1844 70.0118C60.3107 69.2872 60.0358 68.419 59.3599 67.407L55.6335 66.8511L51.6337 69.7572L50.3782 68.0291Z" fill="white"/>
<path d="M46.1555 60.7576L54.2407 56.0896C54.9197 55.6976 55.3265 55.2502 55.4612 54.7475C55.6039 54.2587 55.4632 53.6471 55.0392 52.9127C54.7512 52.4138 54.41 51.9827 54.0154 51.6193C53.6427 51.2618 53.2226 50.9501 52.755 50.6842L54.4178 49.7242C54.7163 49.9214 55.0829 50.2363 55.5175 50.669C55.952 51.1017 56.3733 51.6713 56.7813 52.378C57.4053 53.4588 57.6588 54.4579 57.5418 55.3753C57.4249 56.2927 56.7706 57.0954 55.5789 57.7834L47.2235 62.6074L46.1555 60.7576Z" fill="white"/>
<path d="M40.0558 49.4797C39.3255 47.9136 39.1838 46.5497 39.6307 45.388C40.0989 44.234 41.2103 43.2479 42.9649 42.4297C43.2549 42.2945 43.5701 42.1563 43.9104 42.0153C44.2719 41.882 44.6262 41.7521 44.9733 41.6256L47.1032 46.1934L45.5807 46.9034L44.3027 44.1627L43.8676 44.3656C42.9541 44.7916 42.2836 45.2278 41.8562 45.6742C41.4434 46.1139 41.2267 46.5769 41.2063 47.063C41.1926 47.5637 41.3244 48.1114 41.6016 48.7059C41.9059 49.3584 42.2929 49.8665 42.7625 50.2301C43.2322 50.5936 43.8541 50.7538 44.6284 50.7105C45.4027 50.6673 46.3988 50.3616 47.6169 49.7936C49.212 49.0498 50.2581 48.2266 50.7552 47.3239C51.2591 46.4358 51.1999 45.3247 50.5778 43.9906C50.2533 43.2945 49.848 42.6714 49.3619 42.1213C48.8972 41.5789 48.3628 41.0955 47.7588 40.6709L49.5641 39.8291C49.999 40.1559 50.4619 40.6374 50.9527 41.2736C51.4581 41.903 51.9068 42.6382 52.299 43.4793C52.8941 44.7554 53.1131 45.9066 52.9563 46.9331C52.8206 47.9673 52.3661 48.8855 51.5925 49.6875C50.8335 50.4828 49.816 51.178 48.5399 51.773C47.2638 52.3681 46.0912 52.7118 45.0222 52.8043C43.9531 52.8968 43.0035 52.6776 42.1733 52.1467C41.3499 51.6303 40.6441 50.7413 40.0558 49.4797Z" fill="white"/>
</g>
<defs>
<linearGradient id="paint0_linear_1081:349" x1="352" y1="200" x2="-28.0065" y2="-38.9897" gradientUnits="userSpaceOnUse">
<stop offset="0.390625" stop-color="#C9E5F3"/>
<stop offset="0.651042" stop-color="#FCD1D2"/>
<stop offset="0.895833" stop-color="#ECD1E4"/>
</linearGradient>
<clipPath id="clip0_1081:349">
<rect width="150" height="150" fill="white"/>
</clipPath>
</defs>
</svg>
