<svg width="150" height="150" viewBox="0 0 150 150" fill="none" xmlns="http://www.w3.org/2000/svg">
<g clip-path="url(#clip0_1081:363)">
<path d="M150 -0.5C150 19.2639 146.12 38.8344 138.582 57.0939C131.044 75.3534 119.995 91.9444 106.066 105.92C92.1372 119.895 75.6013 130.981 57.4025 138.544C39.2037 146.107 19.6983 150 0 150V-0.5H150Z" fill="#FFD394" fill-opacity="0.35"/>
<path d="M135.961 -3.76434C136.4 14.477 133.151 32.6193 126.408 49.5743C119.665 66.5293 109.567 81.9477 96.7194 94.9048C83.872 107.862 68.54 118.091 51.6429 124.978C34.7459 131.865 16.6319 135.268 -1.61256 134.984L0.5 -0.5L135.961 -3.76434Z" fill="url(#paint0_linear_1081:363)"/>
<path d="M93.6091 -9.04084C94.8277 4.24417 93.1893 17.6361 88.8039 30.2355C84.4185 42.8349 77.3876 54.35 68.1836 64.0072C58.9795 73.6645 47.8155 81.2403 35.4412 86.2258C23.067 91.2113 9.76919 93.491 -3.55902 92.9118C-16.8872 92.3327 -29.9372 88.9081 -41.8323 82.868C-53.7275 76.8279 -64.1923 68.3123 -72.524 57.8931C-80.8556 47.4738 -86.8611 35.3923 -90.1371 22.46C-93.4131 9.52772 -93.8837 -3.9559 -91.5173 -17.0851L0.5 -0.5L93.6091 -9.04084Z" fill="white"/>
<path d="M95.3253 75.766C95.0447 76.0945 94.7198 76.364 94.3505 76.5747C93.9812 76.7853 93.5735 76.8685 93.1274 76.8241C92.6814 76.7798 92.2089 76.5446 91.7101 76.1186L83.4429 69.0578L84.8302 67.4336L92.8966 74.3229C93.1764 74.5619 93.4291 74.6725 93.6547 74.6548C93.8802 74.637 94.1073 74.4943 94.3359 74.2266C94.4295 74.1171 94.516 73.9912 94.5956 73.8487C94.6752 73.7063 94.7435 73.5647 94.8005 73.424L96.1738 74.2182C96.0858 74.5429 95.9666 74.8303 95.816 75.0805C95.6655 75.3306 95.5019 75.5591 95.3253 75.766Z" fill="white"/>
<path d="M98.5628 71.6042L87.4093 64.6347L88.1978 63.3729L90.172 64.1537L90.2229 64.0723C89.7564 63.46 89.5376 62.7384 89.5663 61.9074C89.5951 61.0763 89.8808 60.2266 90.4234 59.3582C91.178 58.1506 92.0836 57.3958 93.1402 57.0938C94.1968 56.7918 95.4035 57.0648 96.7604 57.9126L104.21 62.5674L103.078 64.3789L95.7302 59.7877C94.0749 58.7533 92.7427 59.0434 91.7337 60.6581C91.3352 61.2958 91.1453 61.9318 91.164 62.5661C91.1827 63.2004 91.3778 63.794 91.7493 64.3469C92.1072 64.8912 92.605 65.3627 93.2428 65.7612L99.6947 69.7928L98.5628 71.6042ZM85.746 63.3564L84.9522 62.8604L85.2293 60.9676L88.6505 55.4926L87.0019 54.4625L88.0702 52.7528L90.3701 54.1899L90.3574 54.2103L91.1511 54.7063L85.746 63.3564ZM85.7883 53.7325L82.4708 51.6594L83.5518 49.9294L86.8694 52.0024L85.7883 53.7325Z" fill="white"/>
<path d="M109.381 54.0064C108.548 55.7538 107.627 56.8301 106.618 57.2353C105.609 57.6405 104.542 57.5745 103.415 57.0372C102.751 56.7204 102.269 56.3751 101.968 56.0014C101.66 55.6063 101.481 55.2196 101.431 54.8412C101.388 54.4484 101.414 54.0794 101.507 53.7341L101.421 53.6928C101.196 53.9403 100.907 54.1747 100.554 54.396C100.2 54.6172 99.7908 54.7501 99.3265 54.7945C98.869 54.8245 98.3659 54.7086 97.8171 54.4468C97.3117 54.2057 96.8902 53.8629 96.5527 53.4183C96.2152 52.9737 96.0261 52.4226 95.9852 51.7649C95.9444 51.1073 96.1272 50.3524 96.5336 49.5004C96.6989 49.1538 96.9 48.8065 97.1368 48.4586C97.3592 48.1038 97.5764 47.8529 97.7884 47.7058L99.1178 48.7653C98.9842 48.8966 98.8338 49.0819 98.6665 49.3212C98.4916 49.5391 98.3388 49.7853 98.2079 50.0597C97.9186 50.6662 97.8495 51.1828 98.0005 51.6094C98.1371 52.0291 98.4365 52.3491 98.8986 52.5696C99.4041 52.8107 99.8453 52.8704 100.222 52.7489C100.606 52.613 100.942 52.3741 101.229 52.0324C101.508 51.6694 101.751 51.2713 101.958 50.838L102.154 50.4265L103.562 51.098L103.366 51.5096C102.953 52.3761 102.805 53.0945 102.923 53.6649C103.034 54.2139 103.45 54.6606 104.172 55.005C104.591 55.2047 105.011 55.3079 105.434 55.3143C105.863 55.3063 106.275 55.1484 106.67 54.8405C107.072 54.5181 107.449 53.9887 107.8 53.2521C108.323 52.1546 108.458 51.2969 108.203 50.679C107.934 50.0542 107.402 49.5524 106.608 49.1735L98.6793 45.3919L99.5989 43.464L107.397 47.1836C108.914 47.9069 109.818 48.8169 110.11 49.9136C110.409 50.9958 110.166 52.3601 109.381 54.0064Z" fill="white"/>
<path d="M115.314 42.366L101.604 41.0049L102.448 39.0166L114.241 40.1638L114.354 39.8987C114.504 39.5452 114.57 39.1647 114.552 38.7572C114.519 38.3434 114.42 37.9624 114.255 37.6143C113.956 36.9661 113.482 36.3827 112.834 35.8639C112.17 35.3388 111.477 34.9232 110.756 34.6168C109.533 34.0979 108.457 33.9714 107.527 34.2373C106.589 34.4821 105.914 35.0906 105.501 36.0626C105.332 36.4603 105.24 36.8209 105.224 37.1445L103.449 36.9647C103.492 36.6179 103.555 36.3057 103.638 36.0281C103.728 35.7358 103.819 35.4791 103.913 35.2582C104.526 33.8149 105.436 32.8369 106.645 32.3243C107.364 32.0214 108.15 31.9115 109.001 31.9947C109.858 32.0631 110.743 32.2912 111.656 32.6788C112.805 33.1664 113.754 33.7776 114.502 34.5125C115.236 35.241 115.755 35.983 116.06 36.7382C116.306 37.3466 116.423 38.0133 116.411 38.7381C116.399 39.463 116.189 40.3041 115.783 41.2614L115.314 42.366Z" fill="white"/>
<path d="M87.2438 84.594C86.5822 85.2673 85.9026 85.8333 85.2051 86.2919C84.5075 86.7279 83.8711 87.0559 83.296 87.2759L82.5008 85.6197C83.0081 85.4003 83.5769 85.1068 84.2073 84.7393C84.8489 84.3603 85.45 83.8855 86.0107 83.3149C86.6051 82.7101 86.9844 82.0958 87.1487 81.4721C87.313 80.8484 87.1783 80.3235 86.7446 79.8973C86.3566 79.516 85.8801 79.3618 85.315 79.4346C84.7499 79.5074 84.0113 79.791 83.0992 80.2855C82.1644 80.7802 81.3248 81.1552 80.5803 81.4106C79.8356 81.6434 79.1574 81.7172 78.5457 81.632C77.9338 81.5242 77.3597 81.2068 76.8233 80.6797C76.1157 79.9844 75.814 79.1158 75.9181 78.074C76.0221 77.0322 76.7021 75.8723 77.9582 74.5941C78.4965 74.0463 79.0525 73.5833 79.6262 73.2049C80.1997 72.8039 80.7066 72.5506 81.147 72.4449L82.4308 73.7065C82.0135 73.8572 81.4954 74.122 80.8764 74.5008C80.2574 74.8795 79.6844 75.3371 79.1573 75.8735C78.4059 76.6381 77.9931 77.2979 77.9187 77.8529C77.8442 78.3853 77.9553 78.7973 78.252 79.0889C78.503 79.3356 78.7814 79.4746 79.0872 79.5059C79.4042 79.5258 79.8107 79.443 80.307 79.2577C80.8144 79.0609 81.4624 78.7667 82.2509 78.3752C82.9718 78.0068 83.6764 77.7122 84.3646 77.4912C85.0529 77.2702 85.7085 77.2079 86.3317 77.3043C86.9546 77.3781 87.5456 77.6897 88.1048 78.2392C88.5841 78.7102 88.9171 79.273 89.1039 79.9276C89.2904 80.5596 89.2514 81.2727 88.9868 82.067C88.7108 82.8501 88.1298 83.6924 87.2438 84.594Z" fill="white"/>
<path d="M79.7192 91.9027L73.533 84.9105C73.0135 84.3233 72.4941 84.0138 71.9746 83.982C71.4671 83.9397 70.8958 84.1994 70.2607 84.7613C69.8293 85.143 69.4749 85.5634 69.1974 86.0225C68.9214 86.459 68.6997 86.9328 68.5324 87.444L67.2602 86.006C67.3938 85.6741 67.6293 85.2521 67.9667 84.74C68.3041 84.2279 68.7783 83.7015 69.3895 83.1608C70.3242 82.3339 71.2527 81.8863 72.175 81.818C73.0973 81.7497 74.0143 82.2309 74.9261 83.2614L81.319 90.4874L79.7192 91.9027Z" fill="white"/>
<path d="M64.294 103.58L56.9395 92.6761L58.7103 91.4817L61.891 96.1972L61.9507 96.157L63.3065 88.3815L65.3758 86.9857L65.416 87.0454L64.4002 92.4494C65.5372 91.8175 66.608 91.6453 67.6125 91.9327C68.6213 92.198 69.488 92.8678 70.2127 93.9422L72.8298 97.8221L71.0589 99.0166L68.4687 95.1765C67.9677 94.4337 67.3507 93.991 66.6177 93.8485C65.898 93.6971 65.0207 93.9415 63.9857 94.5817L63.3002 98.2864L66.0648 102.385L64.294 103.58Z" fill="white"/>
<path d="M56.8796 107.546L52.4966 99.3027C52.1285 98.6105 51.6956 98.1883 51.198 98.0362C50.7144 97.8765 50.0982 97.9957 49.3495 98.3938C48.8409 98.6642 48.3982 98.9903 48.0212 99.3719C47.6509 99.7319 47.3247 100.141 47.0427 100.599L46.1413 98.9036C46.3488 98.6121 46.6763 98.2568 47.1239 97.8376C47.5714 97.4184 48.1555 97.0173 48.876 96.6342C49.9779 96.0483 50.9852 95.8298 51.898 95.9787C52.8107 96.1276 53.5901 96.8095 54.2361 98.0245L58.7656 106.543L56.8796 107.546Z" fill="white"/>
<path d="M45.3956 113.248C43.805 113.923 42.437 114.017 41.2916 113.53C40.1546 113.022 39.2079 111.877 38.4515 110.095C38.3265 109.8 38.1994 109.481 38.0704 109.136C37.9498 108.77 37.8323 108.411 37.718 108.06L42.3573 106.09L43.0137 107.637L40.2301 108.818L40.4177 109.26C40.8115 110.188 41.2241 110.873 41.6554 111.316C42.0804 111.744 42.5355 111.977 43.0206 112.014C43.5205 112.045 44.0724 111.933 44.6763 111.676C45.339 111.395 45.8603 111.026 46.24 110.569C46.6198 110.113 46.8016 109.497 46.7853 108.721C46.7691 107.946 46.4984 106.94 45.9733 105.703C45.2856 104.083 44.4994 103.008 43.6146 102.48C42.7446 101.946 41.6321 101.966 40.2771 102.541C39.5702 102.841 38.9333 103.224 38.3665 103.691C37.8083 104.137 37.3064 104.654 36.8611 105.243L36.0828 103.409C36.4246 102.986 36.922 102.54 37.5749 102.072C38.2215 101.589 38.972 101.166 39.8262 100.803C41.1223 100.253 42.2805 100.074 43.3009 100.267C44.3297 100.438 45.2314 100.925 46.006 101.726C46.7743 102.512 47.4335 103.553 47.9837 104.849C48.5338 106.145 48.8365 107.329 48.8916 108.401C48.9467 109.473 48.6945 110.414 48.1349 111.225C47.5901 112.03 46.677 112.704 45.3956 113.248Z" fill="white"/>
</g>
<defs>
<linearGradient id="paint0_linear_1081:363" x1="151" y1="-51" x2="-152" y2="135" gradientUnits="userSpaceOnUse">
<stop stop-color="#FFE193"/>
<stop offset="0.338542" stop-color="#C9E5F3"/>
<stop offset="0.895833" stop-color="#ECD1E4"/>
</linearGradient>
<clipPath id="clip0_1081:363">
<rect width="150" height="150" fill="white"/>
</clipPath>
</defs>
</svg>
