<svg width="150" height="150" viewBox="0 0 150 150" fill="none" xmlns="http://www.w3.org/2000/svg">
<g clip-path="url(#clip0_1081:203)">
<g filter="url(#filter0_d_1081:203)">
<path d="M1 151C1 111.218 16.7509 73.0644 44.7875 44.934C72.8242 16.8035 110.85 1 150.5 1V151L1 151Z" fill="#FFD394" fill-opacity="0.35"/>
<path d="M16 150.5C16 114.563 30.2232 80.0982 55.5406 54.687C80.858 29.2758 115.196 15 151 15V150.5L16 150.5Z" fill="url(#paint0_linear_1081:203)"/>
<path d="M58 150.5C58 125.702 67.7982 101.92 85.2391 84.3855C102.68 66.8509 126.335 57 151 57V150.5L58 150.5Z" fill="white"/>
<path d="M61.2272 90.0597L50.6549 82.2365L51.9255 80.5195L56.4978 83.9029L56.5406 83.845L55.2232 76.0629L56.7078 74.0565L56.7657 74.0993L57.612 79.5324C58.4729 78.5572 59.4248 78.0374 60.4676 77.9731C61.5071 77.8864 62.5477 78.2285 63.5895 78.9994L67.3515 81.7831L66.081 83.5002L62.3575 80.745C61.6373 80.212 60.9079 80.0007 60.1694 80.1111C59.4404 80.2086 58.695 80.7318 57.9331 81.6808L58.5235 85.4018L62.4978 88.3426L61.2272 90.0597Z" fill="white"/>
<path d="M78.5473 70.3657C77.8513 71.0035 77.143 71.5331 76.4225 71.9547C75.703 72.3536 75.0503 72.6478 74.4644 72.8374L73.7571 71.1418C74.2751 70.9493 74.8585 70.686 75.5072 70.3519C76.1678 70.007 76.793 69.5644 77.3828 69.0239C78.008 68.451 78.419 67.8574 78.6156 67.2432C78.8123 66.6289 78.7053 66.0976 78.2945 65.6494C77.927 65.2483 77.4592 65.0693 76.8911 65.1125C76.323 65.1556 75.5706 65.4002 74.6338 65.8463C73.6744 66.2913 72.8163 66.6219 72.0595 66.838C71.3036 67.0315 70.6225 67.0697 70.0161 66.9526C69.4106 66.813 68.8539 66.4659 68.3459 65.9115C67.6757 65.1801 67.4198 64.2969 67.5782 63.262C67.7367 62.2271 68.4765 61.1043 69.7977 59.8936C70.3639 59.3748 70.9434 58.9414 71.5361 58.5936C72.1298 58.2231 72.6493 57.9967 73.0946 57.9142L74.3106 59.2413C73.886 59.37 73.3547 59.6073 72.7168 59.9531C72.0788 60.299 71.4827 60.7259 70.9282 61.234C70.1379 61.9582 69.691 62.5955 69.5877 63.1459C69.4854 63.6737 69.5748 64.0909 69.8558 64.3976C70.0936 64.6571 70.3644 64.8105 70.6681 64.8578C70.9836 64.8942 71.3939 64.8328 71.8992 64.6737C72.4162 64.5038 73.0787 64.2439 73.8867 63.8941C74.6259 63.564 75.3449 63.3067 76.0437 63.122C76.7426 62.9374 77.4006 62.9095 78.0178 63.0383C78.636 63.1446 79.21 63.4867 79.7396 64.0648C80.1936 64.5602 80.4968 65.1397 80.649 65.8031C80.8022 66.444 80.7259 67.1541 80.4201 67.9335C80.1034 68.701 79.4792 69.5118 78.5473 70.3657Z" fill="white"/>
<path d="M86.9158 62.5858C86.4109 62.9526 85.8814 63.2582 85.3273 63.5026C84.786 63.7376 84.1466 63.9055 83.409 64.0063L82.9934 62.291C83.4004 62.2524 83.8322 62.1661 84.2887 62.0323C84.7358 61.8854 85.1988 61.638 85.6777 61.2901C86.6356 60.5941 87.1259 59.7039 87.1488 58.6193C87.1752 57.5124 86.7041 56.2923 85.7354 54.959C84.7856 53.6516 83.7831 52.8571 82.7281 52.5755C81.6766 52.2715 80.5813 52.5333 79.4422 53.3609C79.0279 53.6618 78.6402 54.0128 78.2788 54.4137C77.9175 54.8147 77.6409 55.2233 77.4489 55.6397L76.3909 54.1834C76.6252 53.7165 76.9342 53.2844 77.3179 52.887C77.7145 52.4801 78.1394 52.1121 78.5924 51.783C79.7574 50.9366 80.8716 50.483 81.9351 50.4224C82.9891 50.3488 83.9806 50.5975 84.9097 51.1684C85.8387 51.7394 86.7029 52.575 87.5023 53.6753C88.7437 55.3839 89.3382 57.0187 89.2857 58.5797C89.2461 60.1313 88.4561 61.4667 86.9158 62.5858ZM80.3983 48.1867L77.4218 44.0898L79.1304 42.8484L82.107 46.9453L80.3983 48.1867Z" fill="white"/>
<path d="M97.2365 56.0678L92.4981 48.0236C92.1002 47.3481 91.6493 46.9452 91.1455 46.8148C90.6554 46.6764 90.045 46.8224 89.3144 47.2528C88.8181 47.5451 88.39 47.8902 88.03 48.2879C87.6757 48.6637 87.3677 49.0865 87.106 49.5564L86.1315 47.9021C86.326 47.6018 86.6377 47.2325 87.0666 46.7942C87.4955 46.3559 88.0614 45.9296 88.7645 45.5155C89.8398 44.8821 90.8367 44.6198 91.7551 44.7288C92.6735 44.8378 93.4818 45.485 94.1802 46.6707L99.0769 54.9836L97.2365 56.0678Z" fill="white"/>
<path d="M103.891 52.6737L94.6136 42.4883L96.5712 41.5755L104.568 50.3192L104.829 50.1975C105.177 50.0352 105.48 49.7966 105.739 49.4815C105.992 49.152 106.173 48.8026 106.283 48.4334C106.495 47.752 106.534 47.0015 106.399 46.1818C106.257 45.3476 106.02 44.5752 105.689 43.8646C105.128 42.6611 104.413 41.847 103.544 41.4224C102.683 40.9765 101.774 40.9768 100.817 41.423C100.425 41.6056 100.115 41.8119 99.887 42.0419L98.6883 40.7207C98.9523 40.4917 99.208 40.3018 99.4555 40.1511C99.7175 39.9936 99.9572 39.8641 100.175 39.7627C101.596 39.1001 102.927 38.9825 104.168 39.4101C104.905 39.6665 105.562 40.1104 106.139 40.7417C106.731 41.3663 107.236 42.1281 107.655 43.0272C108.183 44.1583 108.479 45.2472 108.543 46.2941C108.601 47.3264 108.49 48.2253 108.212 48.9908C107.987 49.6074 107.628 50.181 107.134 50.7115C106.64 51.242 105.921 51.727 104.979 52.1665L103.891 52.6737Z" fill="white"/>
<path d="M58.0348 94.9554L50.0745 90.0773C49.4061 89.6677 48.8188 89.5236 48.3128 89.6451C47.8151 89.753 47.3447 90.1684 46.9016 90.8915C46.6006 91.3826 46.3846 91.8882 46.2535 92.4084C46.1171 92.9065 46.0437 93.4245 46.0332 93.9622L44.3961 92.959C44.4269 92.6026 44.5287 92.1302 44.7016 91.5418C44.8745 90.9534 45.1741 90.3114 45.6005 89.6156C46.2526 88.5515 47.0096 87.852 47.8717 87.5171C48.7337 87.1821 49.7513 87.3741 50.9246 88.0931L59.1508 93.1342L58.0348 94.9554Z" fill="white"/>
<path d="M71.366 76.6609L64.428 70.4139C63.8454 69.8893 63.2942 69.6406 62.7745 69.6678C62.2655 69.6832 61.7273 70.0059 61.1599 70.6361C60.7744 71.0642 60.4699 71.522 60.2462 72.0095C60.0213 72.4745 59.8547 72.9704 59.7464 73.4972L58.3195 72.2125C58.4147 71.8676 58.601 71.4217 58.8782 70.8747C59.1554 70.3277 59.567 69.751 60.113 69.1445C60.9481 68.2171 61.82 67.6673 62.7286 67.495C63.6373 67.3228 64.6029 67.697 65.6254 68.6177L72.7953 75.0735L71.366 76.6609Z" fill="white"/>
<path d="M52.2268 105.531C51.5102 107.103 50.5651 108.097 49.3915 108.512C48.2099 108.905 46.7383 108.7 44.9766 107.898C44.6854 107.765 44.3757 107.615 44.0475 107.448C43.7113 107.259 43.3825 107.074 43.0609 106.893L45.1509 102.306L46.6797 103.003L45.4256 105.755L45.8624 105.954C46.7796 106.372 47.5468 106.598 48.1638 106.633C48.7663 106.662 49.259 106.526 49.642 106.226C50.0316 105.911 50.3624 105.455 50.6345 104.858C50.933 104.203 51.0681 103.579 51.0395 102.986C51.011 102.392 50.7288 101.815 50.1931 101.255C49.6573 100.694 48.778 100.135 47.555 99.5777C45.9534 98.8478 44.6481 98.587 43.6388 98.7952C42.6363 98.9889 41.8298 99.7555 41.2193 101.095C40.9008 101.794 40.6903 102.507 40.5876 103.234C40.477 103.939 40.4564 104.66 40.5259 105.395L38.7132 104.568C38.6793 104.025 38.7449 103.361 38.9098 102.574C39.0603 101.781 39.3279 100.963 39.7127 100.118C40.2966 98.837 41.0298 97.9227 41.9122 97.3754C42.7867 96.8068 43.7801 96.5562 44.8923 96.6235C45.99 96.6842 47.1794 97.0064 48.4607 97.5903C49.7419 98.1742 50.7648 98.8426 51.5295 99.5955C52.2941 100.348 52.7441 101.213 52.8796 102.189C53.0216 103.15 52.804 104.264 52.2268 105.531Z" fill="white"/>
</g>
</g>
<defs>
<filter id="filter0_d_1081:203" x="-39" y="-39" width="250" height="250" filterUnits="userSpaceOnUse" color-interpolation-filters="sRGB">
<feFlood flood-opacity="0" result="BackgroundImageFix"/>
<feColorMatrix in="SourceAlpha" type="matrix" values="0 0 0 0 0 0 0 0 0 0 0 0 0 0 0 0 0 0 127 0" result="hardAlpha"/>
<feOffset dx="10" dy="10"/>
<feGaussianBlur stdDeviation="25"/>
<feComposite in2="hardAlpha" operator="out"/>
<feColorMatrix type="matrix" values="0 0 0 0 0.6625 0 0 0 0 0.6625 0 0 0 0 0.6625 0 0 0 0.11 0"/>
<feBlend mode="normal" in2="BackgroundImageFix" result="effect1_dropShadow_1081:203"/>
<feBlend mode="normal" in="SourceGraphic" in2="effect1_dropShadow_1081:203" result="shape"/>
</filter>
<linearGradient id="paint0_linear_1081:203" x1="16" y1="193.5" x2="206.494" y2="-22.5052" gradientUnits="userSpaceOnUse">
<stop stop-color="#FCD1D2"/>
<stop offset="0.454962" stop-color="#ECD1E4"/>
<stop offset="1" stop-color="#FFE193"/>
</linearGradient>
<clipPath id="clip0_1081:203">
<rect width="150" height="150" fill="white"/>
</clipPath>
</defs>
</svg>
