<svg id="Layer_1" data-name="Layer 1" xmlns="http://www.w3.org/2000/svg" viewBox="0 0 312.39 338.54"><defs><style>.cls-1,.cls-5{fill:#f09146;}.cls-2{fill:#f9dbb1;}.cls-3,.cls-4{fill:#f2aa4d;}.cls-4,.cls-5{fill-rule:evenodd;}</style></defs><path class="cls-1" d="M303,44.65a169.27,169.27,0,1,0-.54,256L192,172.4Z" transform="translate(-22.7 -3.13)"/><path class="cls-2" d="M90.9,273.63A143,143,0,1,0,106.44,57.88L192,172.48Z" transform="translate(-22.7 -3.13)"/><path class="cls-3" d="M192.72,136.23l-28.65-71.8A45.53,45.53,0,0,1,192.49,55a48.53,48.53,0,0,1,29.8,10.12Z" transform="translate(-22.7 -3.13)"/><path class="cls-4" d="M161.14,60.71a50.24,50.24,0,0,1,31.35-10.45,53.21,53.21,0,0,1,32.62,11.06l3,2.21-35.45,85.26L158.36,62.9Zm8.71,5.42,23,57.54,23.63-56.84a43,43,0,0,0-23.95-7.09A41.45,41.45,0,0,0,169.85,66.13Z" transform="translate(-22.7 -3.13)"/><path class="cls-3" d="M192.28,209.34l28.65,70.6a46,46,0,0,1-28.42,9.28,49,49,0,0,1-29.8-10Z" transform="translate(-22.7 -3.13)"/><path class="cls-4" d="M223.83,283.69A50.74,50.74,0,0,1,192.51,294a53.72,53.72,0,0,1-32.59-10.87l-3-2.21L192.37,197l34.3,84.53Zm-8.71-5.46-22.93-56.51-23.6,55.82a43.6,43.6,0,0,0,23.92,6.94A42,42,0,0,0,215.12,278.23Z" transform="translate(-22.7 -3.13)"/><path class="cls-3" d="M166.21,146.38,96.4,116.73a45.37,45.37,0,0,1,13.39-26.45,48.32,48.32,0,0,1,27.89-13.87Z" transform="translate(-22.7 -3.13)"/><path class="cls-4" d="M91.7,116.14a50.17,50.17,0,0,1,14.74-29.22A53.07,53.07,0,0,1,137,71.73l3.69-.57,34.28,84.07L91.25,119.7Zm10-2.3,55.77,23.68L134.75,81.78a42.82,42.82,0,0,0-21.61,11.85A41.49,41.49,0,0,0,101.71,113.84Z" transform="translate(-22.7 -3.13)"/><path class="cls-3" d="M154.59,172.56l-69.4,28.66a46.54,46.54,0,0,1-9.12-28.43A49.56,49.56,0,0,1,85.85,143Z" transform="translate(-22.7 -3.13)"/><path class="cls-4" d="M81.42,204.09a51.24,51.24,0,0,1-10.09-31.3A54.25,54.25,0,0,1,82,140.24l2.23-3.1,82.56,35.51L83.62,207Zm5.5-8.71,55.47-22.9L87.6,148.91a44.1,44.1,0,0,0-6.8,23.88A42.74,42.74,0,0,0,86.92,195.38Z" transform="translate(-22.7 -3.13)"/><path class="cls-3" d="M165.94,198.76l-29.64,69.8a45.46,45.46,0,0,1-26.46-13.38A48.49,48.49,0,0,1,96,227.28Z" transform="translate(-22.7 -3.13)"/><path class="cls-4" d="M135.71,273.27a50.2,50.2,0,0,1-29.22-14.74A53.15,53.15,0,0,1,91.29,228l-.57-3.7L174.8,190l-35.54,83.68Zm-2.3-10,23.68-55.77-55.75,22.73a42.93,42.93,0,0,0,11.85,21.62A41.49,41.49,0,0,0,133.41,263.25Z" transform="translate(-22.7 -3.13)"/><path class="cls-1" d="M263,112.77H248v15.34h-9.28V89.61h25.76v7.16H248v8.86h15Z" transform="translate(-22.7 -3.13)"/><path class="cls-1" d="M260.6,184.55H247.88l-2.22,7.19h-9.91l14.12-38.5h8.72l14.23,38.5h-10Zm-10.5-7.17h8.28L254.23,164Z" transform="translate(-22.7 -3.13)"/><path class="cls-1" d="M270.89,255.37h-9.23l-13.65-24v24h-9.28v-38.5H248l13.62,24v-24h9.26Z" transform="translate(-22.7 -3.13)"/><path class="cls-5" d="M264.34,114.13h-15v15.33h-12V88.25h28.46v9.88H249.37v6.15h15ZM248,105.63V96.77h16.48V89.61H238.73v38.5H248V112.77h15v-7.14Zm14.84,86.11-2.25-7.19H247.88l-2.22,7.19h-9.91l14.12-38.5h8.72l14.23,38.5Zm-14-5.84-2.22,7.2H233.81l15.11-41.21h10.61l15.23,41.21H261.85l-2.24-7.2Zm9.5-8.52L254.23,164l-4.13,13.35ZM251.94,176h4.6l-2.31-7.43Zm20.3,80.7H260.87l-11.5-20.2v20.2h-12V215.52H248.8l11.48,20.19V215.52h12Zm-10.61-15.9-13.62-24h-9.28v38.5H248v-24l13.65,24h9.23v-38.5h-9.26Z" transform="translate(-22.7 -3.13)"/></svg>