<svg width="1768" height="919" viewBox="0 0 1768 919" fill="none" xmlns="http://www.w3.org/2000/svg">
<path d="M752.761 568.613C605.497 494.044 518.004 407.5 304.203 407.5C90.4028 407.5 0 541.131 0 664.5C0 959 346.5 950.314 509.5 872.5C643.162 808.692 755 734 863.5 694.5C1004.99 642.989 1276.78 707.579 1479.5 664.5C1650.05 628.258 1752.25 479.485 1767.1 341.336C1777.06 248.731 1663.14 -11.8688 1424.04 0.420236C1302.58 6.66275 1176.48 105.561 1155.7 214C1138.37 304.453 1145.53 444.156 1050.54 541.131C979.242 613.92 871.571 628.775 752.761 568.613Z" fill="#EB9775"/>
</svg>
