<svg width="20" height="16" viewBox="0 0 20 16" fill="none" xmlns="http://www.w3.org/2000/svg">
<path d="M19.006 3.95139C18.8311 3.81873 18.5598 3.85943 18.2658 3.97853C17.7412 4.19259 17.1503 4.65991 16.9166 4.84684C15.8795 5.68198 14.9916 6.74174 14.3343 7.90703C14.375 7.48342 14.3931 7.10203 14.372 6.81712C14.2936 5.80409 14.0886 4.73227 13.4901 3.88657C13.0303 3.23835 12.3565 2.81626 11.5967 2.60219C11.4384 2.55697 11.3058 2.57204 11.1701 2.66551C11.1234 2.69867 11.0721 2.75596 11.0495 2.81023C11.0148 2.89314 11.0103 3.09062 11.0314 3.18107C11.0585 3.29865 11.1219 3.3695 11.2409 3.40568L11.3163 3.4298C12.3188 3.76296 12.9444 4.4172 13.2414 5.45435C13.4358 6.13573 13.475 6.8533 13.4464 7.55729C13.4132 8.36832 13.3017 9.25019 13.1946 9.95117C13.0665 9.80947 12.9308 9.6753 12.7786 9.55621C12.5283 9.36024 12.2404 9.19593 11.9495 9.0708C11.7007 8.96377 11.4354 8.85674 11.161 8.77232C10.6726 8.61856 10.1586 8.53414 9.67015 8.64117C9.49679 8.67886 9.20886 8.93212 9.68372 9.25622C10.451 9.7748 11.1942 10.4155 11.7248 11.1783C12.067 11.6697 12.3218 12.2139 12.5208 12.7777C12.6369 13.1033 12.7364 13.4365 12.8313 13.7696C12.9595 14.2143 13.0228 15.2937 13.0228 15.2937C13.0228 15.2937 13.0228 15.2952 13.0243 15.2952C13.0243 15.4158 13.0303 15.5289 13.1102 15.654C13.2097 15.8077 13.377 15.9585 13.564 15.9886C14.0027 16.0565 14.3464 15.8093 14.4036 15.3796C14.5861 14.0123 14.8468 12.6496 15.275 11.3366C15.4815 10.7004 15.7242 10.0627 15.994 9.45069C16.4099 8.51137 16.8852 7.5995 17.4171 6.72064C17.8467 6.0076 18.2869 5.3021 18.8085 4.65539C18.9578 4.46846 19.2668 4.14736 19.006 3.95139V3.95139Z" fill="#B4C1CC"/>
<path d="M7.4462 0.707418C7.33163 0.666716 7.09496 0.597372 6.85979 0.571745C6.59749 0.543103 6.33669 0.567222 6.25227 0.740583C6.10906 1.03605 6.17087 1.35714 6.2583 1.66165C6.50704 2.53147 7.27284 3.20833 8.20145 2.86915C8.38687 2.80131 8.47883 2.60232 8.54063 2.42293C8.7954 1.68879 8.09291 0.942585 7.4462 0.707418Z" fill="#B4C1CC"/>
<path d="M6.07608 3.41628C6.21326 3.27307 6.20572 3.05448 6.18311 2.86605C6.08663 2.09271 5.12636 1.73393 4.44196 1.81232C4.32137 1.82588 4.07866 1.8696 3.85555 1.9495C3.60833 2.03995 3.38522 2.17713 3.38673 2.37159C3.38974 2.70022 3.58722 2.95951 3.80128 3.19468C4.4088 3.864 5.39469 4.13083 6.07608 3.41628Z" fill="#B4C1CC"/>
<path d="M4.04887 4.80618C4.12876 4.62378 4.04887 4.42027 3.96294 4.25143C3.61019 3.55648 2.5851 3.54592 1.96703 3.85194C1.85849 3.90621 1.64443 4.02983 1.46202 4.18058C1.26002 4.34941 1.09721 4.55443 1.16505 4.73533C1.27962 5.04286 1.55398 5.22074 1.83437 5.36847C2.63334 5.79358 3.65089 5.70916 4.04887 4.80618V4.80618Z" fill="#B4C1CC"/>
<path d="M2.49893 6.19934C1.91855 5.67926 0.959789 6.04105 0.493976 6.55058C0.412572 6.64103 0.257301 6.83399 0.142733 7.04051C0.0145967 7.27116 -0.062285 7.5214 0.0658511 7.66612C0.284436 7.91033 0.604023 7.97666 0.920594 8.01435C1.81755 8.11836 2.73711 7.67215 2.77932 6.68475C2.78987 6.48576 2.64063 6.32597 2.49893 6.19934V6.19934Z" fill="#B4C1CC"/>
<path d="M2.07667 8.47404C1.90783 8.37002 1.69527 8.42429 1.51588 8.4861C0.780231 8.74237 0.63099 9.7569 0.851082 10.4096C0.890277 10.5242 0.983741 10.7534 1.10886 10.9538C1.25057 11.177 1.42996 11.3654 1.6199 11.3232C1.93949 11.2508 2.15204 11.0021 2.33746 10.7443C2.86357 10.0102 2.91784 8.98959 2.07667 8.47404V8.47404Z" fill="#B4C1CC"/>
<path d="M4.10288 6.72522C3.92048 6.6408 3.71696 6.71919 3.54662 6.80361C2.84564 7.1443 2.81851 8.16939 3.11548 8.79198C3.16673 8.90052 3.28733 9.11609 3.43507 9.30151C3.6024 9.50653 3.80289 9.67235 3.9853 9.60904C4.29433 9.49899 4.47523 9.22764 4.6305 8.95027C5.06616 8.15733 4.99983 7.13676 4.10288 6.72522Z" fill="#B4C1CC"/>
<path d="M5.52302 4.63881C5.33307 4.5755 5.13861 4.6765 4.97882 4.77901C4.32155 5.19809 4.412 6.22016 4.77531 6.80356C4.83862 6.90606 4.98334 7.10807 5.15218 7.27389C5.34061 7.4578 5.5592 7.59951 5.73406 7.51509C6.02802 7.37037 6.17726 7.08093 6.29937 6.78697C6.64157 5.95183 6.45916 4.94634 5.52302 4.63881V4.63881Z" fill="#B4C1CC"/>
<path d="M7.8531 3.60808C7.67672 3.51462 7.46869 3.58245 7.29382 3.65481C6.57626 3.95932 6.49335 4.9814 6.75565 5.61756C6.80238 5.73062 6.91092 5.95222 7.04961 6.14518C7.20488 6.35773 7.39633 6.53561 7.58326 6.48134C7.89832 6.38788 8.0943 6.12709 8.26163 5.85725C8.73648 5.08843 8.72593 4.06636 7.8531 3.60808V3.60808Z" fill="#B4C1CC"/>
<path d="M10.3879 5.47555C11.0406 4.85145 11.2848 3.85953 10.5552 3.19473C10.4075 3.06056 10.1889 3.07413 10.002 3.10127C9.23012 3.21433 8.89546 4.18364 8.98892 4.86653C9.00551 4.98713 9.05375 5.22833 9.13967 5.44993C9.23615 5.69564 9.37785 5.91423 9.57081 5.90971C9.90246 5.89614 10.1572 5.69263 10.3879 5.47555V5.47555Z" fill="#B4C1CC"/>
<path d="M10.6166 2.43058C10.808 2.37932 10.9151 2.18787 10.9919 2.01451C11.3115 1.30147 10.6708 0.49949 10.0452 0.213068C9.93519 0.161814 9.70454 0.0743797 9.47239 0.0291552C9.2131 -0.0220992 8.95231 -0.0190841 8.85432 0.148247C8.68699 0.431653 8.72166 0.755762 8.78347 1.06781C8.95834 1.9527 9.66535 2.69137 10.6166 2.43058Z" fill="#B4C1CC"/>
</svg>
