<svg width="13" height="17" viewBox="0 0 13 17" fill="none" xmlns="http://www.w3.org/2000/svg">
<path d="M6.5 9.06287V9.07183" stroke="#B4C1CC" stroke-width="1.5" stroke-linecap="round" stroke-linejoin="round"/>
<path d="M4.70825 11.7505V11.7594" stroke="#B4C1CC" stroke-width="1.5" stroke-linecap="round" stroke-linejoin="round"/>
<path d="M8.29175 11.7505V11.7594" stroke="#B4C1CC" stroke-width="1.5" stroke-linecap="round" stroke-linejoin="round"/>
<path d="M2.46851 4.5835H10.5314L10.2796 2.56957C10.2255 2.13615 10.0149 1.73745 9.68738 1.44841C9.35991 1.15937 8.93812 0.999905 8.50133 1H4.49856C4.06161 0.999687 3.63961 1.15905 3.31195 1.44811C2.98428 1.73717 2.77353 2.136 2.71935 2.56957L2.46851 4.5835Z" stroke="#B4C1CC" stroke-width="1.5" stroke-linecap="round" stroke-linejoin="round"/>
<path d="M2.46856 4.5835L1.02441 13.2475C0.981597 13.5042 0.995222 13.7672 1.06434 14.0181C1.13345 14.269 1.2564 14.5018 1.42462 14.7004C1.59284 14.899 1.80231 15.0585 2.03844 15.168C2.27458 15.2774 2.53172 15.334 2.79197 15.334H10.208C10.4683 15.334 10.7254 15.2774 10.9616 15.168C11.1977 15.0585 11.4072 14.899 11.5754 14.7004C11.7436 14.5018 11.8665 14.269 11.9357 14.0181C12.0048 13.7672 12.0184 13.5042 11.9756 13.2475L10.5314 4.5835" stroke="#B4C1CC" stroke-width="1.5" stroke-linecap="round" stroke-linejoin="round"/>
</svg>
