<svg width="17" height="18" viewBox="0 0 17 18" fill="none" xmlns="http://www.w3.org/2000/svg">
<path d="M8.41199 16.2442C9.41302 16.2442 9.8248 16.7836 10.3613 16.9034C10.8979 17.0237 11.3484 17.0566 11.8096 16.8536C12.7233 16.4509 13.28 15.9716 13.9557 15.2555C15.2084 13.9279 15.824 12.1034 15.824 9.65946C15.824 7.21557 15.1651 5.95223 14.1493 5.12621C13.1338 4.30018 12.545 4.14206 11.3171 4.30018C10.0892 4.45831 9.42043 5.77764 8.41528 5.77764C7.41055 5.77764 6.18551 4.47684 5.12024 4.30018C4.05456 4.12312 3.47066 4.30018 2.54828 5.12621C1.6259 5.95223 1 7.23863 1 9.65988C1 12.0803 1.63908 13.8748 2.89129 15.2024C3.56661 15.9185 4.10068 16.4513 5.014 16.8536C5.47519 17.057 5.95244 17.0241 6.47005 16.9039C6.98806 16.7844 7.39984 16.245 8.41199 16.245V16.2442Z" stroke="#B4C1CC" stroke-width="1.5"/>
<path d="M8.41504 5.77744C8.73828 2.59275 10.1116 1 12.534 1C12.7564 1.67037 12.8136 2.31892 12.7062 2.94606C12.6551 3.24419 12.497 3.66914 12.2314 4.22092" stroke="#B4C1CC" stroke-width="1.5" stroke-linecap="round"/>
<path d="M4.38926 10.0591C4.2752 10.6133 4.2752 11.1836 4.38926 11.7708C4.50291 12.3576 4.74545 12.8106 5.11646 13.1297" stroke="#B4C1CC" stroke-width="1.5" stroke-linecap="round"/>
</svg>
