<svg width="16" height="13" viewBox="0 0 16 13" fill="none" xmlns="http://www.w3.org/2000/svg">
<path d="M15.4062 3.07128C14.9896 2.77467 14.5625 2.75348 14.125 3.00772C13.2917 3.36789 12.6042 3.99289 12.0625 4.88272C11.4792 3.73865 10.5729 2.92297 9.34375 2.43568V1.35518C9.34375 0.995006 9.1875 0.634836 8.875 0.274667C8.54167 0.0416162 8.15625 -0.0431295 7.71875 0.0204298C6.55208 0.274667 5.78125 0.973819 5.40625 2.11789C3.90625 2.43568 2.63021 3.07128 1.57812 4.02467C0.526042 4.97806 0 6.10094 0 7.39331C0 8.91873 0.729167 10.2058 2.1875 11.2545C3.64583 12.3033 5.25 12.8276 7 12.8276C8.16667 12.8276 9.19271 12.5734 10.0781 12.0649C10.9635 11.5564 11.625 10.8573 12.0625 9.96746C12.6042 10.8573 13.2917 11.4929 14.125 11.8742C14.4167 11.959 14.5938 12.0014 14.6562 12.0014C14.9271 12.0014 15.1771 11.9378 15.4062 11.8107C15.8021 11.5353 16 11.1539 16 10.6666V4.15178C16 3.62212 15.8021 3.26195 15.4062 3.07128ZM7 1.99077C7.10417 1.73653 7.4375 1.52467 8 1.35518V1.99077H7ZM1.34375 7.39331C1.34375 6.75772 1.56771 6.1539 2.01562 5.58187C2.46354 5.00984 3.0625 4.53314 3.8125 4.15178C4.375 4.85094 4.65625 5.93145 4.65625 7.39331C4.65625 8.85517 4.375 9.94627 3.8125 10.6666C3.0625 10.2853 2.46354 9.80327 2.01562 9.22064C1.56771 8.63801 1.34375 8.0289 1.34375 7.39331ZM7 11.4611C6.5 11.4611 5.85417 11.3764 5.0625 11.2069C5.6875 10.1264 6 8.85517 6 7.39331C6 5.95263 5.6875 4.69204 5.0625 3.61153C5.5625 3.42085 6.20833 3.32551 7 3.32551C8.29167 3.32551 9.33854 3.69628 10.1406 4.4378C10.9427 5.17933 11.3438 6.1645 11.3438 7.39331C11.3438 8.62212 10.9427 9.60729 10.1406 10.3488C9.33854 11.0903 8.29167 11.4611 7 11.4611ZM14.6562 10.8573C13.3229 9.96746 12.6562 8.85517 12.6562 7.52043C12.6562 6.82128 12.8594 6.14861 13.2656 5.50242C13.6719 4.85623 14.1354 4.42721 14.6562 4.21534V10.8573ZM4 6.72594C4 6.91661 3.93229 7.07551 3.79688 7.20263C3.66146 7.32975 3.51042 7.39331 3.34375 7.39331C3.15625 7.39331 2.99479 7.32975 2.85938 7.20263C2.72396 7.07551 2.65625 6.91661 2.65625 6.72594C2.65625 6.53526 2.72396 6.37636 2.85938 6.24924C2.99479 6.12212 3.15625 6.05856 3.34375 6.05856C3.51042 6.05856 3.66146 6.12212 3.79688 6.24924C3.93229 6.37636 4 6.53526 4 6.72594Z" fill="#B4C1CD"/>
</svg>
