<svg width="12" height="17" viewBox="0 0 12 17" fill="none" xmlns="http://www.w3.org/2000/svg">
<path d="M5.52017 2.46407C8.04426 6.21571 9.66029 8.82813 9.66029 11.0914C9.66029 13.3464 7.80345 15.1805 5.52017 15.1805C3.23689 15.1805 1.38004 13.3464 1.38004 11.0921C1.38004 8.82813 2.99607 6.21571 5.52017 2.46407V2.46407ZM5.52017 0C2.15977 4.96608 0 8.07256 0 11.0921C0 14.113 2.46959 16.5605 5.52017 16.5605C8.57075 16.5605 11.0403 14.113 11.0403 11.0921C11.0403 8.07256 8.88057 4.96608 5.52017 0ZM7.35286 8.28025C8.02149 10.6843 7.07272 13.0131 5.52017 13.6493C7.80966 13.9771 9.65615 11.2577 7.35286 8.28025Z" fill="#B4C1CC"/>
</svg>
