<svg width="17" height="16" viewBox="0 0 17 16" fill="none" xmlns="http://www.w3.org/2000/svg">
<path d="M12.695 1.71276C12.7122 1.59757 12.7135 1.48238 12.7493 1.3791C12.8128 1.19903 12.8698 1.00572 12.9796 0.854785C13.124 0.658829 13.3517 0.664125 13.6112 0.824332C13.6602 0.713114 13.6867 0.583359 13.7621 0.495973C13.9012 0.334441 14.0468 0.158346 14.2282 0.0590434C14.4864 -0.0826278 14.6572 0.0299147 14.8439 0.404615C15.1299 0.290749 15.4397 0.0510992 15.7244 0.352978C15.9892 0.633672 15.7813 0.926283 15.6436 1.2136C15.7032 1.2414 15.7522 1.26391 15.8012 1.28907C16.0567 1.41882 16.1507 1.6823 15.9574 1.91798C15.7707 2.14571 15.5059 2.30857 15.2676 2.50585C15.5297 2.92954 15.3351 3.13476 14.4162 3.3572C14.3884 3.528 14.4096 3.71072 14.3315 3.82194C14.2044 4.00068 13.9859 3.96625 13.7926 3.90535C13.4047 3.78354 13.0366 3.84047 12.6897 4.0351C12.3971 4.20061 12.1124 4.382 11.8489 4.58987C12.2422 4.51573 12.6314 4.40716 13.0286 4.37538C13.4788 4.33963 13.9343 4.36214 14.3871 4.38465C14.4983 4.38994 14.6016 4.49984 14.7128 4.5528C14.8028 4.59517 14.8968 4.63092 14.9922 4.65607C15.3126 4.73816 15.3814 4.8229 15.3748 5.15126C15.629 5.25454 15.7733 5.41607 15.6237 5.71133C15.6092 5.73913 15.6436 5.79739 15.6648 5.83578C15.6886 5.87815 15.7257 5.91125 15.7535 5.95097C15.9044 6.16414 16.0342 6.3985 15.8859 6.64741C15.7297 6.9109 15.4503 6.92811 15.1722 6.89501C15.1007 6.88706 15.0306 6.8725 14.963 6.86191C14.8306 7.21145 14.64 7.26971 14.3394 7.04727C14.211 6.95194 14.1024 6.82748 13.9846 6.71626C13.598 7.01152 13.4616 6.95459 13.1359 6.35348C12.7718 6.47661 12.6354 6.40114 12.5282 6.02247C12.4355 5.69544 12.3084 5.55509 11.9615 5.56436C11.6874 5.5723 11.416 5.67558 11.1459 5.7484C11.0638 5.77091 10.9936 5.83314 10.9605 5.81328L10.227 5.07182C10.2813 4.94868 10.3845 4.75538 10.4508 4.55148C10.4944 4.41642 10.505 4.26416 10.4984 4.12117C10.4799 3.75044 10.3687 3.62598 10.0098 3.5227C9.65236 3.42075 9.56233 3.24731 9.70665 2.95205C9.54776 2.82891 9.37034 2.72564 9.23926 2.58C9.06979 2.39198 9.16247 2.22118 9.35313 2.10202C9.20616 1.92195 9.04198 1.77101 8.94136 1.58697C8.79704 1.32482 8.87648 1.19374 9.19557 1.11297C9.18233 1.02294 9.16379 0.931579 9.15585 0.837573C9.13467 0.578063 9.16115 0.318553 9.40609 0.171586C9.63647 0.0325628 9.86685 0.131865 10.0628 0.276184C10.2018 0.378134 10.3091 0.457576 10.509 0.391375C10.7288 0.318553 10.8374 0.506565 10.9049 0.685309C11.228 0.673393 11.314 0.739595 11.3948 1.03883C11.4332 1.17917 11.4173 1.33938 11.5934 1.42544C11.649 1.45192 11.6675 1.58168 11.6781 1.66774C11.7748 2.44892 11.7324 3.22215 11.5047 3.97949C11.4835 4.04834 11.4676 4.11852 11.4504 4.18737C11.4491 4.19134 11.4583 4.19928 11.4861 4.23371C11.8953 3.60347 12.4103 3.03149 12.1402 2.19205C12.119 2.12453 12.1084 2.04774 12.1151 1.97624C12.1455 1.66509 12.3322 1.57638 12.695 1.71276V1.71276Z" fill="#B4C1CC"/>
<path d="M12.0128 6.6185C11.793 5.51558 10.4266 4.46165 9.3277 4.28423C7.81565 3.94661 6.96033 4.8721 6.20034 5.8638C6.15003 5.92868 6.16591 6.02268 6.23344 6.06902C6.48368 6.24115 6.7326 6.42651 6.97754 6.62644C7.10598 6.73104 6.97887 6.93362 6.82925 6.86212C6.51149 6.71118 6.20431 6.57083 5.9064 6.44108C5.8455 6.4146 5.774 6.43313 5.73296 6.48742C4.86042 7.65786 4.00907 8.84419 3.15507 10.0279C3.10873 10.0927 3.12329 10.1815 3.18685 10.2278C3.34573 10.3443 3.50461 10.4648 3.66085 10.5919C3.79193 10.6978 3.6635 10.9031 3.51123 10.8302C3.30866 10.7336 3.11005 10.6422 2.9141 10.5535C2.85187 10.5257 2.78037 10.5456 2.73933 10.6012C2.20442 11.3373 1.65362 12.0616 1.12533 12.8017C0.387849 13.8331 -0.254305 15.2618 0.100535 15.7728C0.423598 16.2402 2.04156 15.982 3.22657 15.0446C3.54963 14.7891 3.8952 14.5627 4.23283 14.3257C4.28976 14.286 4.30962 14.2118 4.28182 14.1483C4.19973 13.9669 4.11367 13.7828 4.02496 13.5948C3.95346 13.4439 4.15604 13.3168 4.26064 13.4465C4.3798 13.5922 4.49366 13.7405 4.60224 13.8887C4.64858 13.9523 4.73596 13.9669 4.80084 13.9205C5.98849 13.0771 7.18144 12.2403 8.38234 11.4168C8.43927 11.3784 8.46046 11.3056 8.43265 11.242C8.29893 10.9348 8.15461 10.6171 7.99837 10.2887C7.92687 10.1391 8.12945 10.012 8.23405 10.1404C8.44722 10.4026 8.64582 10.67 8.82854 10.9388C8.87355 11.005 8.96226 11.0222 9.02714 10.9772C9.32505 10.7746 9.62163 10.5707 9.92086 10.3695C11.278 9.45589 12.1876 8.35695 12.0128 6.6185V6.6185Z" fill="#B4C1CC"/>
</svg>
